<?xml version="1.0" encoding="UTF-8"?>
<!DOCTYPE svg PUBLIC "-//W3C//DTD SVG 1.1//EN" "http://www.w3.org/Graphics/SVG/1.1/DTD/svg11.dtd">
<!-- Creator: CorelDRAW X8 -->
<svg xmlns="http://www.w3.org/2000/svg" xml:space="preserve" width="3in" height="3.3763in" version="1.1" style="shape-rendering:geometricPrecision; text-rendering:geometricPrecision; image-rendering:optimizeQuality; fill-rule:evenodd; clip-rule:evenodd"
viewBox="0 0 1243 1399"
 xmlns:xlink="http://www.w3.org/1999/xlink">
 <defs>
  <style type="text/css">
   <![CDATA[
    .str0 {stroke:#373435;stroke-width:2.8776}
    .fil1 {fill:#E0F9B5}
    .fil0 {fill:#FEFDCA}
    .fil2 {fill:#FFCFDF}
    .fil3 {fill:#373435;fill-rule:nonzero}
   ]]>
  </style>
 </defs>
 <g id="Layer_x0020_1">
  <metadata id="CorelCorpID_0Corel-Layer"/>
  <g id="_1612152908624">
   <rect class="fil0" width="1243" height="1399"/>
   <rect class="fil1" y="136" width="1243" height="191"/>
   <rect class="fil1" y="545" width="1243" height="203"/>
   <rect class="fil2" y="1045" width="1243" height="201"/>
   <path class="fil3" d="M157 177c1,-1 3,-2 5,-2 1,-1 3,-1 5,-1 2,0 3,0 5,1 2,0 3,1 4,2 1,1 2,2 3,3 0,2 1,3 1,5 0,2 -1,4 -2,6 -1,1 -2,2 -3,3 1,0 2,1 4,1 1,0 2,0 3,0 2,0 3,0 5,0 1,-1 2,-1 3,-2l0 -14 -6 0 0 -4 34 0 0 4 -6 0 0 39 -5 0 0 -39 -11 0 0 39 -6 0 0 -19c-2,0 -4,1 -6,1 -1,0 -2,0 -3,0 -1,-1 -2,-1 -3,-1l0 0c1,1 2,2 2,3 0,1 1,2 1,3 0,4 -2,7 -4,9 -2,2 -6,3 -10,3 -1,0 -2,0 -3,0 -1,0 -2,-1 -3,-1 -1,0 -2,-1 -3,-1 -1,-1 -2,-1 -2,-2l2 -4c1,1 3,2 4,3 1,0 3,1 5,1 1,0 2,-1 3,-1 1,0 2,-1 3,-1 0,-1 1,-2 1,-3 1,-1 1,-2 1,-3 0,-2 -1,-4 -2,-6 -2,-1 -4,-2 -7,-2l-4 0 0 -4 3 0c3,0 5,-1 7,-2 1,-1 2,-3 2,-6 0,-2 -1,-4 -2,-5 -2,-1 -3,-1 -5,-1 -1,0 -2,0 -4,0 -1,0 -2,1 -4,2l-2 -4z"/>
   <path id="1" class="fil3" d="M253 179l-6 0 0 39 -6 0 0 -17c0,1 -1,2 -3,2 -1,1 -3,1 -5,1 -1,0 -3,0 -4,0 -2,-1 -3,-2 -4,-3 -1,-1 -2,-2 -3,-3 0,-2 -1,-3 -1,-5l0 -14 -5 0 0 -4 37 0 0 4zm-26 13c0,3 0,5 1,6 2,1 3,2 6,2 1,0 3,-1 4,-2 2,0 3,-1 3,-3l0 -16 -14 0 0 13z"/>
   <path id="2" class="fil3" d="M275 194c-1,-1 -2,-1 -3,-2 -2,0 -3,0 -4,0 -2,0 -4,0 -5,2 -2,1 -2,3 -2,5 0,2 0,4 1,6 0,1 1,2 2,4 1,1 2,2 4,3 1,1 3,2 4,3l-3 4c-2,-1 -4,-2 -5,-4 -2,-1 -4,-3 -5,-4 -1,-2 -2,-4 -3,-5 0,-2 -1,-5 -1,-7 0,-2 0,-4 1,-5 1,-2 2,-3 3,-4 1,-1 2,-2 4,-2 1,-1 3,-1 5,-1 1,0 3,0 5,1 1,1 2,2 4,3 0,-1 1,-2 3,-3 1,-1 3,-1 4,-1 1,0 2,0 3,0 1,0 1,1 2,1l0 -9 -37 0 0 -4 48 0 0 4 -6 0 0 39 -5 0 0 -26c-1,0 -1,0 -2,0 0,0 -1,0 -2,0 -2,0 -4,1 -5,3 -1,2 -1,5 -2,9l-5 0c0,-3 0,-5 1,-6 0,-2 0,-3 1,-4z"/>
   <polygon id="3" class="fil3" points="305,179 299,179 299,175 317,175 317,179 310,179 310,218 305,218 "/>
   <path id="4" class="fil3" d="M359 186c3,0 5,0 7,1 1,1 3,2 3,3l0 -11 -27 0 0 -4 39 0 0 4 -6 0 0 39 -6 0 0 -11c0,1 -2,2 -3,3 -2,1 -4,1 -6,1 -2,0 -4,0 -6,-1 -1,0 -3,-1 -4,-2 -1,-2 -2,-3 -3,-5 -1,-1 -1,-3 -1,-5 0,-2 0,-4 1,-5 1,-2 1,-3 3,-4 1,-1 2,-2 4,-3 2,0 3,0 5,0zm10 9c0,-1 -2,-2 -3,-3 -2,-1 -4,-2 -6,-2 -2,0 -4,1 -6,2 -2,1 -2,3 -2,6 0,3 0,5 2,6 2,2 4,2 7,2 1,0 2,0 3,0 1,-1 2,-1 3,-2 1,-1 1,-1 2,-2 0,-1 0,-2 0,-3l0 -4z"/>
   <path id="5" class="fil3" d="M411 175l12 0 0 4 -7 0 0 39 -5 0 0 -10c-1,1 -3,2 -5,3 -2,0 -5,1 -7,1 -3,0 -5,-1 -6,-1 -2,-1 -3,-2 -5,-3 -1,0 -2,-2 -3,-3 0,-1 -1,-3 -1,-4 0,-2 1,-4 2,-5 2,-1 3,-2 5,-2 -1,-1 -2,-1 -3,-2 -1,0 -1,-1 -2,-2 -1,-1 -1,-2 -2,-3 0,-1 -1,-2 -1,-4 0,-1 1,-2 1,-3 1,-1 1,-2 2,-3 1,-1 2,-2 3,-2 2,-1 3,-1 5,-1 1,0 3,0 4,1 1,0 2,1 3,2 1,0 2,1 2,2 1,1 1,2 1,4 0,1 -1,3 -2,4 0,1 -1,2 -2,2l-4 -3c1,0 1,-1 2,-1 0,-1 0,-2 0,-2 0,-2 0,-3 -1,-4 -1,0 -2,-1 -3,-1 -1,0 -3,1 -4,2 -1,1 -1,2 -1,4 0,1 0,2 1,3 0,1 1,2 2,3 1,1 2,1 3,2 2,0 3,0 4,0l4 0 0 5 -6 0c-3,0 -4,0 -5,1 -1,1 -2,2 -2,3 0,2 1,3 2,4 2,1 4,2 7,2 2,0 4,-1 6,-1 3,-1 4,-2 6,-4l0 -27z"/>
   <path id="6" class="fil3" d="M407 220c1,-1 2,-2 4,-2 1,-1 3,-1 4,-1 3,0 6,1 8,3 1,2 2,4 2,6 0,3 -1,6 -3,8 -2,2 -5,3 -9,3 -3,0 -6,-1 -10,-3 -3,-1 -5,-4 -8,-7l4 -3c2,3 4,5 7,6 2,1 4,2 7,2 2,0 4,0 5,-1 1,-2 2,-3 2,-5 0,-1 -1,-2 -1,-3 -1,-1 -2,-1 -4,-1 -1,0 -2,0 -3,0 0,0 -1,1 -2,2l-3 -4z"/>
   <polygon id="7" class="fil3" points="441,195 441,201 426,201 426,195 "/>
   <path id="8" class="fil3" d="M461 186c2,0 4,0 6,1 2,1 3,2 4,3l0 -11 -27 0 0 -4 39 0 0 4 -7 0 0 39 -5 0 0 -11c-1,1 -2,2 -4,3 -1,1 -3,1 -6,1 -2,0 -3,0 -5,-1 -2,0 -3,-1 -5,-2 -1,-2 -2,-3 -3,-5 0,-1 -1,-3 -1,-5 0,-2 1,-4 1,-5 1,-2 2,-3 3,-4 1,-1 3,-2 4,-3 2,0 4,0 6,0zm10 9c-1,-1 -2,-2 -4,-3 -1,-1 -3,-2 -5,-2 -3,0 -5,1 -7,2 -1,1 -2,3 -2,6 0,3 1,5 3,6 1,2 3,2 6,2 1,0 3,0 4,0 1,-1 2,-1 2,-2 1,-1 2,-1 2,-2 1,-1 1,-2 1,-3l0 -4z"/>
   <path id="9" class="fil3" d="M504 216l-5 3 -13 -20c-1,-1 -1,-2 -2,-2 0,-1 0,-1 0,-2 0,-1 0,-2 1,-2 1,-1 2,-1 3,-1l1 2c1,1 1,1 2,2 0,0 1,0 2,0 2,0 3,-1 5,-2 1,-1 2,-3 2,-6 0,-2 -1,-4 -1,-5 -1,-2 -2,-3 -3,-4l-15 0 0 -4 30 0 0 4 -9 0c0,1 1,2 2,4 1,1 1,3 1,5 0,2 0,4 -1,5 0,2 -1,3 -2,4 -1,1 -2,2 -4,3 -1,0 -3,1 -4,1 0,0 -1,0 -1,0 0,0 0,0 0,-1l11 16z"/>
   <path id="10" class="fil3" d="M559 216l-4 3 -14 -20c0,-1 -1,-2 -1,-2 0,-1 -1,-1 -1,-2 0,-1 1,-2 2,-2 0,-1 1,-1 2,-1l2 2c0,1 1,1 1,2 1,0 2,0 3,0 1,0 3,-1 4,-2 1,-1 2,-3 2,-6 0,-2 0,-4 -1,-5 -1,-2 -1,-3 -2,-4l-15 0 0 -4 47 0 0 4 -6 0 0 39 -5 0 0 -18c-2,1 -5,2 -8,2 -2,0 -3,-1 -5,-1 -2,-1 -3,-1 -4,-2 -2,1 -4,2 -7,2 0,0 0,0 0,0 0,0 -1,0 -1,-1l11 16zm5 -19c2,0 4,0 5,-1 2,0 3,-1 4,-2l0 -15 -16 0c1,1 2,2 2,4 1,1 2,3 2,5 0,3 -1,6 -2,8 0,0 1,0 2,0 1,1 2,1 3,1z"/>
   <path id="11" class="fil3" d="M564 226c0,-3 1,-5 3,-6 1,-2 4,-3 7,-3 3,0 5,0 6,1 2,1 4,2 5,3 2,2 3,4 5,5 1,2 3,5 4,7l-4 2c-1,-2 -2,-3 -4,-5 -1,-2 -2,-3 -3,-4 -1,-2 -2,-3 -4,-3 -1,-1 -3,-1 -4,-1 -2,0 -4,0 -4,1 -1,1 -2,2 -2,3 0,2 1,3 2,4 1,1 2,1 3,1 1,0 1,0 2,0 0,0 1,0 1,-1l2 4c-1,1 -1,1 -2,1 -1,0 -2,1 -3,1 -1,0 -3,-1 -4,-1 -1,-1 -2,-1 -3,-2 -1,-1 -2,-2 -2,-3 -1,-1 -1,-2 -1,-4z"/>
   <path id="12" class="fil3" d="M586 191l0 -4 22 0 0 4 -2 0c-3,0 -5,1 -6,2 -1,2 -2,3 -2,5 0,1 0,2 1,3 0,1 1,2 1,2 1,1 2,1 3,1 1,1 2,1 3,1 2,0 4,-1 6,-2 1,-1 3,-2 4,-3l0 -21 -33 0 0 -4 45 0 0 4 -7 0 0 39 -5 0 0 -13c0,1 -1,1 -2,2 0,0 -1,1 -2,1 -1,1 -2,1 -3,1 -1,0 -2,0 -3,0 -2,0 -4,0 -6,0 -1,-1 -3,-2 -4,-3 -1,-1 -2,-2 -3,-3 0,-2 -1,-3 -1,-5 0,-1 1,-3 1,-4 1,-1 2,-2 3,-3l-10 0z"/>
   <path id="13" class="fil3" d="M632 179l-6 0 0 -4 6 0c0,-2 -1,-3 -1,-4 -1,-2 -1,-3 -2,-4 -1,-1 -2,-3 -3,-3 -1,-1 -3,-2 -4,-2 -3,0 -5,2 -5,5 0,2 0,3 1,4 0,2 1,3 2,4l-4 2 -1 -2c-1,-1 -2,-2 -2,-4 -1,-1 -1,-3 -1,-4 0,-3 1,-5 2,-7 2,-1 5,-2 8,-2 1,0 3,0 4,1 2,0 3,1 4,2 1,1 2,2 3,3 1,1 1,2 2,4 0,1 1,2 1,3 1,2 1,3 1,4l7 0 0 4 -6 0 0 39 -6 0 0 -39z"/>
   <path id="14" class="fil3" d="M686 179c-2,0 -3,0 -4,1 -2,0 -3,1 -5,2l-2 -4c2,-2 4,-3 5,-3 2,-1 4,-1 6,-1 2,0 4,0 6,1 2,1 3,2 4,3 2,1 2,2 3,4 1,1 1,3 1,5 0,2 -1,3 -1,5 -1,2 -2,3 -3,5 -1,2 -3,4 -5,6 -2,2 -4,4 -6,6l-4 4 20 0 0 5 -26 0 -1 -4 5 -6c3,-3 5,-5 7,-7 2,-2 3,-4 4,-5 1,-2 2,-3 3,-5 0,-1 1,-3 1,-4 0,-2 -1,-4 -2,-6 -2,-1 -4,-2 -6,-2z"/>
   <path id="15" class="fil3" d="M724 174c2,0 4,0 6,1 2,1 4,2 6,4 1,2 2,4 3,7 1,3 2,6 2,10 0,4 -1,8 -2,11 -1,2 -2,5 -3,6 -2,2 -4,4 -6,4 -2,1 -4,2 -6,2 -3,0 -5,-1 -7,-2 -2,0 -4,-2 -5,-4 -2,-1 -3,-4 -4,-6 -1,-3 -1,-7 -1,-11 0,-3 0,-7 1,-10 1,-2 2,-5 4,-7 1,-1 3,-3 5,-4 2,-1 4,-1 7,-1zm-11 22c0,4 0,7 1,9 1,2 1,4 2,6 1,1 2,2 4,2 1,1 2,1 4,1 1,0 2,0 4,-1 1,0 2,-1 3,-3 1,-1 2,-3 2,-5 1,-2 1,-5 1,-9 0,-3 0,-6 -1,-8 0,-3 -1,-5 -2,-6 -1,-1 -2,-2 -3,-3 -2,0 -3,0 -4,0 -2,0 -3,0 -4,1 -2,0 -3,1 -4,2 -1,2 -1,4 -2,6 -1,2 -1,5 -1,8z"/>
   <path id="16" class="fil3" d="M759 179c-1,0 -3,0 -4,1 -2,0 -3,1 -5,2l-2 -4c2,-2 4,-3 6,-3 1,-1 3,-1 5,-1 2,0 4,0 6,1 2,1 3,2 4,3 2,1 2,2 3,4 1,1 1,3 1,5 0,2 0,3 -1,5 -1,2 -2,3 -3,5 -1,2 -3,4 -5,6 -1,2 -4,4 -6,6l-4 4 20 0 0 5 -26 0 -1 -4 5 -6c3,-3 5,-5 7,-7 2,-2 3,-4 4,-5 1,-2 2,-3 3,-5 0,-1 1,-3 1,-4 0,-2 -1,-4 -2,-6 -2,-1 -3,-2 -6,-2z"/>
   <path id="17" class="fil3" d="M792 179c-1,0 -3,0 -4,1 -1,0 -3,1 -4,2l-3 -4c2,-2 4,-3 6,-3 2,-1 4,-1 5,-1 3,0 5,0 7,1 1,1 3,2 4,3 1,1 2,2 2,4 1,1 1,3 1,5 0,2 0,3 -1,5 -1,2 -1,3 -3,5 -1,2 -3,4 -4,6 -2,2 -4,4 -6,6l-4 4 19 0 0 5 -26 0 -1 -4 6 -6c2,-3 4,-5 6,-7 2,-2 4,-4 5,-5 1,-2 2,-3 2,-5 1,-1 1,-3 1,-4 0,-2 -1,-4 -2,-6 -1,-1 -3,-2 -6,-2z"/>
   <path id="18" class="fil3" d="M891 179l-24 0 0 12c1,-2 2,-3 4,-3 2,-1 3,-1 5,-1 2,0 4,0 5,1 1,0 3,1 4,2 1,1 2,2 2,4 1,1 1,3 1,5 0,2 0,3 -1,5 -1,2 -2,3 -3,4 -1,1 -2,2 -4,3 -2,0 -4,0 -6,0l0 -4c1,0 2,0 3,-1 1,0 2,-1 3,-1 0,-1 1,-2 2,-3 0,-1 1,-2 1,-3 0,-3 -1,-4 -2,-6 -2,-1 -3,-2 -5,-2 -2,0 -4,1 -5,2 -2,1 -3,2 -4,4l0 21 -5 0 0 -17c-1,1 -2,2 -3,2 -2,1 -4,1 -6,1 -1,0 -3,0 -4,0 -2,-1 -3,-2 -4,-3 -1,-1 -2,-2 -2,-3 -1,-2 -1,-3 -1,-5l0 -14 -5 0 0 -4 54 0 0 4zm-44 13c0,3 1,5 2,6 1,1 3,2 5,2 2,0 3,-1 5,-2 1,0 2,-2 3,-3l0 -16 -15 0 0 13z"/>
   <path id="19" class="fil3" d="M902 158c0,2 -1,3 -1,5 -1,1 -2,2 -3,3 -1,1 -2,1 -4,2 -1,0 -2,0 -4,0 -1,0 -3,0 -4,0 -1,-1 -2,-1 -3,-2 -2,-1 -2,-2 -3,-4 -1,-1 -1,-2 -1,-4l5 0c0,2 1,4 2,5 1,0 3,1 4,1 2,0 4,-1 5,-2 1,-1 1,-2 2,-4l5 0zm-6 21l-6 0 0 -4 18 0 0 4 -7 0 0 39 -5 0 0 -39z"/>
   <path id="20" class="fil3" d="M920 179l0 17 14 0 0 -17 -14 0zm0 27c0,0 -1,0 -1,0 -1,1 -2,1 -3,1 0,0 -1,0 -2,-1 -1,0 -2,0 -2,-1 -1,-1 -1,-1 -2,-2 0,-1 0,-2 0,-3 0,-1 0,-2 1,-3 0,-1 1,-1 3,-1l1 0 0 -17 -9 0 0 -4 40 0 0 4 -6 0 0 39 -6 0 0 -17 -14 0 0 5z"/>
   <path id="21" class="fil3" d="M933 175l0 -1c0,0 -1,-1 -1,-1 -1,-1 -1,-1 -1,-2 -1,-1 -1,-2 -1,-3 -1,0 -1,-1 -1,-2 0,-2 0,-3 1,-4 0,-2 1,-3 2,-3 1,-1 2,-2 3,-2 2,-1 3,-1 4,-1 2,0 3,0 4,0 2,1 3,1 3,2l-1 4c-2,-1 -3,-1 -5,-1 -1,0 -3,0 -4,1 -1,1 -1,3 -1,5 0,0 0,1 0,2 0,1 1,2 1,2 0,1 1,2 1,2 1,1 1,1 2,2l-6 0z"/>
   <path id="22" class="fil3" d="M978 179l-6 0 0 -4 5 0c0,-1 0,-2 0,-2 -1,-1 -1,-2 -1,-3 0,-2 1,-3 1,-5 1,-1 2,-2 4,-3 1,-1 3,-2 5,-2 2,-1 4,-1 6,-1 4,0 7,1 10,2 3,1 5,2 8,4 2,2 4,3 5,5 2,2 3,4 4,5l1 1 -4 3 -1 -2c-1,-2 -3,-3 -5,-5 -1,-2 -3,-3 -5,-4 -2,-1 -4,-2 -6,-3 -2,-1 -4,-1 -7,-1 -3,0 -6,1 -7,2 -2,1 -3,3 -3,5 0,1 0,2 0,2 0,1 0,1 1,2l6 0 0 4 -6 0 0 39 -5 0 0 -39z"/>
   <path id="23" class="fil3" d="M1002 179l0 17 14 0 0 -17 -14 0zm0 27c0,0 -1,0 -1,0 -1,1 -2,1 -3,1 -1,0 -1,0 -2,-1 -1,0 -2,0 -2,-1 -1,-1 -2,-1 -2,-2 0,-1 0,-2 0,-3 0,-1 0,-2 1,-3 0,-1 1,-1 3,-1l0 0 0 -17 -8 0 0 -4 40 0 0 4 -7 0 0 39 -5 0 0 -17 -14 0 0 5z"/>
   <path id="24" class="fil3" d="M1043 187c2,0 4,1 5,2 2,1 3,2 4,3 1,-2 2,-3 4,-3 2,-1 3,-1 5,-1l0 -9 -35 0 0 -4 53 0 0 4 -13 0 0 9c3,1 5,2 6,4 2,2 3,5 3,9 0,2 -1,4 -1,6 -1,2 -2,3 -3,5 -1,1 -3,2 -4,3 -2,0 -4,1 -6,1 -1,0 -3,-1 -5,-1 -1,-1 -3,-2 -4,-3 -2,2 -5,4 -9,4 -1,0 -3,-1 -5,-1 -1,-1 -3,-2 -4,-3 -1,-1 -2,-2 -3,-4 -1,-2 -1,-4 -1,-7 0,-2 0,-4 1,-6 0,-2 1,-3 2,-4 2,-1 3,-2 4,-3 2,0 4,-1 6,-1zm11 21c1,1 2,2 3,2 1,1 2,1 4,1 2,0 4,-1 6,-2 1,-2 2,-4 2,-8 0,-3 -1,-5 -2,-7 -1,-1 -3,-2 -5,-2 -2,0 -3,0 -4,1 -2,1 -2,3 -3,5l-1 10zm-4 -12c-1,-2 -2,-3 -3,-3 -1,-1 -2,-1 -4,-1 -1,0 -2,0 -3,0 -1,1 -2,1 -2,2 -1,1 -2,2 -2,3 0,1 -1,3 -1,4 0,2 0,4 1,5 0,1 1,2 1,3 1,1 2,1 3,2 1,0 2,0 3,0 1,0 3,0 4,-1 1,-1 2,-3 2,-4l1 -10z"/>
   <polygon id="25" class="fil3" points="1083,179 1077,179 1077,175 1094,175 1094,179 1088,179 1088,218 1083,218 "/>
   <path id="26" class="fil3" d="M1116 194c-1,-1 -2,-1 -3,-2 -1,0 -2,0 -3,0 -3,0 -4,0 -6,2 -1,1 -2,3 -2,5 0,2 0,4 1,6 1,1 1,2 2,4 2,1 3,2 4,3 2,1 3,2 5,3l-4 4c-2,-1 -3,-2 -5,-4 -2,-1 -3,-3 -4,-4 -2,-2 -3,-4 -3,-5 -1,-2 -2,-5 -2,-7 0,-2 1,-4 2,-5 0,-2 1,-3 2,-4 1,-1 3,-2 4,-2 2,-1 3,-1 5,-1 2,0 3,0 5,1 1,1 3,2 4,3 1,-1 2,-2 3,-3 2,-1 3,-1 5,-1 1,0 1,0 2,0 1,0 1,1 2,1l0 -9 -37 0 0 -4 49 0 0 4 -7 0 0 39 -5 0 0 -26c0,0 -1,0 -1,0 -1,0 -2,0 -2,0 -3,0 -4,1 -5,3 -2,2 -2,5 -2,9l-6 0c0,-3 1,-5 1,-6 0,-2 1,-3 1,-4z"/>
   <polygon id="27" class="fil3" points="1146,179 1140,179 1140,175 1158,175 1158,179 1152,179 1152,218 1146,218 "/>
   <path id="28" class="fil3" d="M157 257c1,-1 3,-1 5,-2 1,0 3,-1 5,-1 2,0 3,1 5,1 2,1 3,1 4,2 1,1 2,2 3,4 0,1 1,3 1,4 0,3 -1,4 -2,6 -1,1 -2,3 -3,3 1,1 2,1 4,1 1,0 2,0 3,0 2,0 3,0 5,0 1,0 2,-1 3,-1l0 -15 -6 0 0 -4 34 0 0 4 -6 0 0 39 -5 0 0 -39 -11 0 0 39 -6 0 0 -19c-2,1 -4,1 -6,1 -1,0 -2,0 -3,0 -1,0 -2,-1 -3,-1l0 0c1,1 2,2 2,3 0,1 1,2 1,4 0,3 -2,6 -4,8 -2,2 -6,3 -10,3 -1,0 -2,0 -3,0 -1,0 -2,0 -3,-1 -1,0 -2,0 -3,-1 -1,0 -2,-1 -2,-1l2 -4c1,1 3,2 4,2 1,1 3,1 5,1 1,0 2,0 3,-1 1,0 2,0 3,-1 0,0 1,-1 1,-2 1,-1 1,-2 1,-4 0,-2 -1,-4 -2,-5 -2,-2 -4,-2 -7,-2l-4 0 0 -5 3 0c3,0 5,-1 7,-2 1,-1 2,-3 2,-5 0,-3 -1,-4 -2,-5 -2,-2 -3,-2 -5,-2 -1,0 -2,0 -4,0 -1,1 -2,1 -4,2l-2 -4z"/>
   <path id="29" class="fil3" d="M240 305c-3,0 -6,-1 -8,-2 -3,-1 -5,-2 -6,-3 -2,-2 -3,-3 -4,-5 0,-2 -1,-4 -1,-5 0,-2 1,-4 1,-5 1,-1 1,-2 2,-3 -1,-1 -2,-2 -2,-4 -1,-1 -1,-2 -1,-4 0,-1 0,-3 0,-3 1,-1 1,-2 2,-3 1,-1 2,-1 3,-1 1,-1 2,-1 3,-1l10 0 0 -7 -23 0 0 -4 37 0 0 4 -9 0 0 12 -13 0c-1,0 -2,0 -3,0 -1,1 -2,2 -2,3 0,1 0,2 1,3 0,1 0,2 1,2 1,-1 2,-1 4,-1 1,-1 3,-1 4,-1 2,0 4,1 5,1 2,1 3,1 4,2 1,1 2,2 3,4 0,1 1,2 1,4 0,1 -1,3 -1,4 -1,1 -2,2 -3,3l-4 -3c1,0 1,-1 2,-2 0,0 0,-1 0,-2 0,-1 0,-2 0,-2 0,-1 -1,-2 -1,-2 -1,-1 -2,-1 -3,-2 -1,0 -2,0 -3,0 -3,0 -5,1 -7,2 -1,2 -2,3 -2,6 0,1 0,2 0,3 1,2 1,3 3,4 1,1 2,2 4,2 2,1 5,2 8,2l-2 4z"/>
   <path id="30" class="fil3" d="M217 239c1,0 2,-1 3,-1 1,0 3,0 4,0 3,0 6,0 8,2 2,2 4,4 6,7l5 10 -4 0 -5 -8c-1,-1 -2,-2 -2,-3 -1,0 -2,-1 -2,-2 -1,0 -2,0 -3,-1 -1,0 -2,0 -3,0 -1,0 -2,0 -3,0 -1,0 -1,1 -2,1l-2 -5z"/>
   <path id="31" class="fil3" d="M257 295c0,-1 0,-3 1,-3 1,-1 2,-2 3,-2 1,0 2,1 3,2 1,0 1,2 1,3 0,1 0,2 -1,3 -1,1 -2,1 -3,1 -1,0 -2,0 -3,-1 -1,-1 -1,-2 -1,-3z"/>
   <path id="32" class="fil3" d="M178 431c-4,0 -7,-1 -9,-2 -2,-1 -4,-2 -6,-3 -1,-1 -2,-3 -3,-5 -1,-1 -1,-3 -1,-5 0,-2 0,-3 1,-5 0,-1 1,-2 2,-3 -1,-1 -2,-2 -3,-3 -1,-2 -1,-3 -1,-5 0,-1 0,-2 1,-3 0,-1 1,-2 2,-3 0,0 1,-1 2,-1 2,0 3,-1 4,-1l9 0 0 -6 -22 0 0 -5 36 0 0 5 -8 0 0 11 -13 0c-2,0 -3,0 -4,1 -1,0 -2,1 -2,3 0,1 1,1 1,2 0,1 1,2 1,2 2,0 3,-1 4,-1 2,0 3,0 5,0 2,0 3,0 5,0 1,1 3,2 4,3 1,1 2,2 2,3 1,1 1,3 1,4 0,2 0,3 -1,4 0,2 -1,3 -2,4l-4 -3c0,-1 1,-2 1,-2 0,-1 1,-2 1,-3 0,-1 -1,-1 -1,-2 0,-1 0,-1 -1,-2 -1,0 -1,-1 -2,-1 -1,-1 -2,-1 -4,-1 -2,0 -5,1 -6,2 -2,2 -3,4 -3,6 0,1 0,2 1,4 0,1 1,2 2,3 1,1 3,2 5,3 2,0 4,1 7,1l-1 4z"/>
   <polygon id="33" class="fil3" points="194,386 188,386 188,381 206,381 206,386 200,386 200,425 194,425 "/>
   <path id="34" class="fil3" d="M291 386l-24 0 0 11c1,-1 2,-2 4,-3 2,0 3,-1 5,-1 2,0 4,1 5,1 1,1 3,2 4,3 1,1 2,2 2,3 1,2 1,3 1,5 0,2 0,4 -1,6 -1,1 -2,3 -3,4 -1,1 -2,2 -4,2 -2,1 -4,1 -6,1l0 -5c1,0 2,0 3,0 1,0 2,-1 3,-2 0,0 1,-1 2,-2 0,-1 1,-2 1,-4 0,-2 -1,-4 -2,-5 -2,-1 -3,-2 -5,-2 -2,0 -4,0 -5,1 -2,1 -3,3 -4,4l0 22 -5 0 0 -17c-1,0 -2,1 -3,2 -2,0 -4,1 -6,1 -1,0 -3,0 -4,-1 -2,0 -3,-1 -4,-2 -1,-1 -2,-2 -2,-4 -1,-1 -1,-3 -1,-5l0 -13 -5 0 0 -5 54 0 0 5zm-44 13c0,2 1,4 2,5 1,2 3,2 5,2 2,0 3,0 4,-1 2,-1 3,-2 4,-3l0 -16 -15 0 0 13z"/>
   <path id="35" class="fil3" d="M302 364c0,2 -1,4 -1,5 -1,2 -2,3 -3,4 -1,0 -2,1 -4,1 -1,1 -2,1 -4,1 -1,0 -3,0 -4,-1 -1,0 -2,-1 -4,-2 -1,-1 -1,-2 -2,-3 -1,-1 -1,-3 -1,-5l5 0c0,3 1,4 2,5 1,1 3,1 4,1 2,0 4,0 5,-1 1,-1 1,-3 2,-5l5 0zm-6 22l-6 0 0 -5 18 0 0 5 -7 0 0 39 -5 0 0 -39z"/>
   <path id="36" class="fil3" d="M320 386l0 17 14 0 0 -17 -14 0zm0 26c0,0 -1,1 -1,1 -1,0 -2,0 -3,0 0,0 -1,0 -2,0 -1,0 -2,-1 -2,-2 -1,0 -1,-1 -2,-2 0,0 0,-1 0,-2 0,-2 0,-2 1,-3 0,-1 1,-1 3,-1l1 0 0 -17 -9 0 0 -5 40 0 0 5 -6 0 0 39 -6 0 0 -18 -14 0 0 5z"/>
   <path id="37" class="fil3" d="M333 381l0 0c0,-1 -1,-1 -1,-2 -1,0 -1,-1 -1,-2 -1,0 -1,-1 -1,-2 -1,-1 -1,-2 -1,-3 0,-1 0,-3 1,-4 0,-1 1,-2 2,-3 1,-1 2,-1 3,-2 2,0 3,0 4,0 2,0 3,0 4,0 1,0 3,1 3,1l-1 4c-2,0 -3,-1 -5,-1 -1,0 -3,1 -4,2 -1,1 -1,2 -1,4 0,1 0,2 0,3 0,0 1,1 1,2 0,1 1,1 1,2 1,0 1,1 1,1l-5 0z"/>
   <path id="38" class="fil3" d="M409 412c0,1 0,2 -1,3 0,0 -1,1 -1,2l4 10 -5 2 -3 -10c-2,1 -5,1 -8,1 -2,0 -4,0 -5,0 -2,-1 -4,-2 -5,-3 -2,-1 -3,-3 -4,-5 0,-1 -1,-4 -1,-6 0,-2 0,-4 1,-6 1,-2 2,-3 4,-4 1,-1 3,-2 4,-3 2,0 4,-1 6,-1l5 0 0 -6 -23 0 0 -5 37 0 0 5 -9 0 0 11 -8 0c-2,0 -3,0 -5,0 -1,1 -2,1 -3,2 -1,1 -2,2 -2,3 -1,1 -1,2 -1,4 0,2 0,3 1,4 0,2 1,3 2,3 0,1 1,2 3,2 1,1 2,1 3,1 2,0 5,-1 6,-2l-2 -6c1,-1 3,-2 5,-2 1,0 3,1 3,2 1,1 2,2 2,4z"/>
   <path id="39" class="fil3" d="M396 365c1,0 2,0 3,-1 2,0 3,0 4,0 3,0 6,1 8,2 3,2 5,4 6,7l4 8 8 0 0 5 -6 0 0 39 -5 0 0 -39 -6 0 0 -5 5 0 -4 -6c-1,-1 -1,-2 -2,-2 -1,-1 -1,-2 -2,-2 -1,-1 -2,-1 -3,-1 -1,-1 -2,-1 -3,-1 -1,0 -2,0 -3,0 0,1 -1,1 -2,1l-2 -5z"/>
   <path id="40" class="fil3" d="M454 399l0 -13 -26 0 0 -5 38 0 0 5 -6 0 0 39 -6 0 0 -21 -13 0 0 5c0,0 0,1 -1,1 0,0 -1,0 -2,0 -2,0 -3,0 -5,-2 -1,-1 -2,-3 -2,-4 0,-2 1,-3 2,-4 0,-1 2,-1 3,-1l18 0z"/>
   <path id="41" class="fil3" d="M503 386l-6 0 0 -5 6 0c-1,0 -1,-1 -1,-1 0,-1 -1,-2 -1,-4 0,-1 1,-2 1,-4 1,-1 2,-2 3,-3 1,-1 3,-2 4,-2 2,-1 4,-1 7,-1 3,0 6,0 8,1 3,2 5,3 7,4 2,2 4,4 6,6 1,1 2,3 3,5l1 1 -5 2 -1 -2c-1,-1 -2,-3 -3,-5 -2,-1 -3,-3 -5,-4 -1,-1 -3,-2 -5,-2 -2,-1 -4,-1 -6,-1 -2,0 -3,0 -4,0 -1,0 -2,1 -3,2 -1,0 -1,1 -1,2 -1,1 -1,1 -1,2 0,2 0,3 1,4l7 0 0 5 -7 0 0 39 -5 0 0 -39z"/>
   <path id="42" class="fil3" d="M544 412c0,1 0,2 0,3 -1,0 -1,1 -2,2l5 10 -5 2 -4 -10c-2,1 -4,1 -7,1 -2,0 -4,0 -6,0 -1,-1 -3,-2 -5,-3 -1,-1 -2,-3 -3,-5 -1,-1 -1,-4 -1,-6 0,-2 0,-4 1,-6 1,-2 2,-3 3,-4 2,-1 3,-2 5,-3 2,0 3,-1 5,-1l6 0 0 -6 -24 0 0 -5 37 0 0 5 -8 0 0 11 -9 0c-1,0 -3,0 -4,0 -1,1 -2,1 -3,2 -1,1 -2,2 -3,3 0,1 -1,2 -1,4 0,2 1,3 1,4 1,2 1,3 2,3 1,1 2,2 3,2 1,1 2,1 3,1 3,0 5,-1 7,-2l-2 -6c1,-1 2,-2 4,-2 2,0 3,1 4,2 1,1 1,2 1,4z"/>
   <path id="43" class="fil3" d="M564 392c3,0 5,1 6,2 2,0 3,1 4,2l0 -10 -27 0 0 -5 39 0 0 5 -6 0 0 39 -6 0 0 -11c-1,1 -2,2 -3,2 -2,1 -4,2 -7,2 -1,0 -3,-1 -5,-1 -1,-1 -3,-2 -4,-3 -1,-1 -2,-2 -3,-4 -1,-2 -1,-4 -1,-6 0,-2 0,-3 1,-5 0,-1 1,-3 3,-4 1,-1 2,-1 4,-2 1,-1 3,-1 5,-1zm10 10c0,-1 -2,-2 -3,-4 -2,-1 -4,-1 -6,-1 -2,0 -5,0 -6,2 -2,1 -3,3 -3,6 0,3 1,5 3,6 1,1 4,2 7,2 1,0 2,0 3,-1 1,0 2,-1 3,-1 1,-1 1,-2 2,-3 0,-1 0,-2 0,-3l0 -3z"/>
   <path id="44" class="fil3" d="M607 422l-5 3 -13 -19c-1,-1 -1,-2 -1,-3 -1,0 -1,-1 -1,-1 0,-1 1,-2 1,-2 1,-1 2,-1 3,-1l1 2c1,0 2,1 2,1 1,0 1,1 2,1 2,0 4,-1 5,-2 1,-2 2,-4 2,-6 0,-2 -1,-4 -1,-6 -1,-1 -2,-2 -2,-3l-15 0 0 -5 47 0 0 5 -6 0 0 39 -6 0 0 -18c-1,1 -4,1 -7,1 -2,0 -4,0 -5,-1 -2,0 -3,-1 -4,-2 -2,2 -4,2 -7,2 0,0 0,0 0,0 -1,0 -1,0 -1,0l11 15zm5 -19c2,0 4,0 5,0 1,-1 2,-1 3,-2l0 -15 -15 0c1,0 1,2 2,3 1,2 1,4 1,6 0,3 0,5 -2,7 1,1 2,1 3,1 1,0 2,0 3,0z"/>
   <polygon id="45" class="fil3" points="637,386 631,386 631,381 648,381 648,386 642,386 642,425 637,425 "/>
   <path id="46" class="fil3" d="M665 400c-3,0 -5,1 -6,2 -2,2 -2,3 -2,6 0,2 0,5 1,7 1,2 3,5 5,8l-5 2c-2,-3 -4,-5 -5,-8 -1,-3 -2,-6 -2,-10 0,-3 1,-6 3,-8 3,-3 6,-4 10,-4l11 0 0 -9 -28 0 0 -5 40 0 0 5 -6 0 0 39 -6 0 0 -25 -10 0z"/>
   <path id="47" class="fil3" d="M731 386l0 17 15 0 0 -17 -15 0zm0 26c0,0 0,1 -1,1 0,0 -1,0 -2,0 -1,0 -2,0 -3,0 0,0 -1,-1 -2,-2 0,0 -1,-1 -1,-2 -1,0 -1,-1 -1,-2 0,-2 0,-2 1,-3 1,-1 2,-1 3,-1l1 0 0 -17 -8 0 0 -5 39 0 0 5 -6 0 0 39 -5 0 0 -18 -15 0 0 5z"/>
   <path id="48" class="fil3" d="M745 371c0,-1 0,-2 1,-2 0,-1 1,-1 2,-1 1,0 2,0 3,1 1,0 1,1 1,2 0,1 0,2 -1,3 -1,1 -2,1 -3,1 -1,0 -2,0 -2,-1 -1,-1 -1,-2 -1,-3z"/>
   <path id="49" class="fil3" d="M781 400c1,1 2,2 2,3 1,1 2,3 2,6 0,1 0,3 -1,4 -1,2 -1,3 -3,4 -1,1 -2,2 -4,2 -1,1 -3,1 -4,1 -2,0 -4,0 -6,-1 -1,0 -3,-1 -4,-2 -1,-1 -2,-2 -3,-3 -1,-2 -1,-3 -2,-4l4 -3c1,3 3,5 4,6 2,2 4,2 6,2 1,0 2,0 3,0 1,0 2,-1 2,-1 1,-1 1,-2 2,-3 0,0 0,-1 0,-3 0,-3 -1,-5 -2,-6 -2,-1 -5,-2 -8,-2l-2 0 0 -5 25 0 0 -9 -36 0 0 -5 48 0 0 5 -6 0 0 39 -6 0 0 -25 -11 0z"/>
   <path id="50" class="fil3" d="M784 433c0,-3 1,-5 2,-7 2,-2 5,-2 8,-2 2,0 4,0 6,1 2,1 4,2 5,3 2,1 3,3 5,5 1,2 2,4 4,6l-4 3c-1,-2 -3,-4 -4,-5 -1,-2 -2,-3 -3,-5 -1,-1 -3,-2 -4,-3 -1,0 -3,-1 -4,-1 -2,0 -4,1 -5,2 0,1 -1,2 -1,3 0,1 1,3 2,3 0,1 2,2 3,2 1,0 1,0 2,0 0,-1 1,-1 1,-1l2 4c-1,0 -2,1 -2,1 -1,0 -2,0 -3,0 -2,0 -3,0 -4,-1 -1,0 -3,-1 -3,-2 -1,0 -2,-1 -2,-3 -1,-1 -1,-2 -1,-3z"/>
   <path id="51" class="fil3" d="M825 422l-4 3 -14 -19c0,-1 -1,-2 -1,-3 0,0 -1,-1 -1,-1 0,-1 1,-2 2,-2 0,-1 1,-1 2,-1l2 2c0,0 1,1 1,1 1,0 2,1 3,1 1,0 3,-1 4,-2 1,-2 2,-4 2,-6 0,-2 0,-4 -1,-6 -1,-1 -1,-2 -2,-3l-15 0 0 -5 29 0 0 5 -9 0c1,0 2,2 2,3 1,2 1,4 1,6 0,2 0,4 0,5 -1,1 -2,3 -3,4 -1,1 -2,2 -3,2 -2,1 -3,1 -5,1 0,0 0,0 0,0 0,0 -1,0 -1,0l11 15z"/>
   <path id="52" class="fil3" d="M878 435c-1,-2 -2,-4 -4,-6 -1,-2 -2,-4 -3,-7 -1,-2 -2,-5 -3,-8 0,-2 -1,-5 -1,-9 0,-3 1,-6 1,-9 1,-3 2,-5 3,-8 1,-2 2,-5 4,-7 1,-2 2,-4 4,-5l3 2c-3,4 -5,8 -6,13 -2,4 -3,9 -3,14 0,3 1,6 1,8 0,3 1,5 2,7 0,2 1,5 2,7 1,2 3,4 4,6l-4 2z"/>
   <path id="53" class="fil3" d="M902 381l6 0 17 44 -6 0 -5 -12 -18 0 -5 12 -6 0 17 -44zm-4 27l14 0 -3 -8c-1,-2 -1,-4 -2,-6 -1,-2 -1,-3 -2,-5l0 0c-1,2 -1,3 -2,5 -1,2 -1,4 -2,6l-3 8z"/>
   <path id="54" class="fil3" d="M945 425c-1,0 -2,0 -4,0 -1,-1 -2,-1 -3,-2l0 18 -6 0 0 -49 5 0 1 4c1,-1 2,-2 4,-3 1,-1 3,-1 5,-1 5,0 8,1 11,4 2,3 3,7 3,12 0,3 0,5 -1,8 -1,2 -2,4 -4,5 -1,2 -3,3 -5,3 -2,1 -4,1 -6,1zm1 -28c-2,0 -4,0 -5,1 -1,1 -2,2 -3,3l0 17c1,1 2,2 3,2 1,0 3,1 4,1 1,0 2,-1 3,-1 2,0 3,-1 4,-2 1,-1 1,-3 2,-4 1,-2 1,-4 1,-6 0,-4 -1,-6 -2,-8 -2,-2 -4,-3 -7,-3z"/>
   <path id="55" class="fil3" d="M984 425c-1,0 -3,0 -4,0 -2,-1 -3,-1 -4,-2l0 18 -6 0 0 -49 5 0 1 4c1,-1 3,-2 4,-3 2,-1 4,-1 6,-1 4,0 8,1 10,4 3,3 4,7 4,12 0,3 -1,5 -1,8 -1,2 -3,4 -4,5 -2,2 -3,3 -5,3 -2,1 -4,1 -6,1zm1 -28c-2,0 -4,0 -5,1 -2,1 -3,2 -4,3l0 17c1,1 2,2 4,2 1,0 2,1 3,1 2,0 3,-1 4,-1 1,0 2,-1 3,-2 1,-1 2,-3 3,-4 0,-2 1,-4 1,-6 0,-4 -1,-6 -3,-8 -1,-2 -3,-3 -6,-3z"/>
   <path id="56" class="fil3" d="M1009 425l0 -33 5 0 1 7c0,-2 2,-4 3,-5 2,-2 4,-2 7,-2 1,0 2,0 3,0 0,0 1,0 2,1l-1 5c-1,0 -2,0 -2,-1 -1,0 -2,0 -3,0 -1,0 -2,0 -3,1 -1,0 -2,1 -3,2 -1,1 -2,2 -2,3 -1,2 -1,3 -1,5l0 17 -6 0z"/>
   <path id="57" class="fil3" d="M1065 408c0,3 -1,5 -1,7 -1,3 -2,4 -4,6 -1,1 -3,2 -5,3 -2,1 -4,1 -6,1 -3,0 -5,0 -7,-1 -1,0 -3,-2 -4,-3 -2,-1 -3,-3 -4,-5 -1,-2 -1,-5 -1,-7 0,-3 0,-5 1,-7 1,-3 2,-4 4,-6 1,-1 3,-2 5,-3 2,-1 4,-1 6,-1 2,0 4,0 6,1 2,0 4,2 5,3 2,1 3,3 4,5 0,2 1,4 1,7zm-7 0c0,-2 0,-4 0,-5 -1,-2 -2,-3 -3,-4 0,-1 -2,-1 -3,-2 -1,0 -2,-1 -3,-1 -1,0 -3,1 -4,1 -1,0 -2,1 -3,2 -1,1 -1,2 -2,4 0,1 -1,3 -1,5 0,3 1,4 1,6 1,2 1,3 2,4 1,1 2,1 3,2 2,0 3,1 4,1 1,0 2,-1 3,-1 2,0 3,-1 4,-2 0,-1 1,-2 2,-4 0,-1 0,-3 0,-6z"/>
   <polygon id="58" class="fil3" points="1093,392 1100,392 1088,425 1082,425 1070,392 1076,392 1083,415 1085,420 1085,420 1086,415 "/>
   <path id="59" class="fil3" d="M1134 409l-23 0 0 0c0,4 1,7 3,9 2,2 4,3 8,3 2,0 3,-1 4,-1 2,0 3,-1 5,-1l1 4c-1,1 -3,1 -5,2 -1,0 -3,0 -5,0 -3,0 -5,0 -7,-1 -2,0 -4,-1 -5,-3 -2,-1 -3,-3 -4,-5 -1,-2 -1,-5 -1,-7 0,-3 0,-5 1,-7 0,-2 2,-4 3,-6 1,-1 3,-2 5,-3 2,-1 4,-1 6,-1 3,0 4,0 6,1 2,0 3,1 4,3 2,1 3,2 3,4 1,2 1,4 1,6l0 3zm-6 -4c0,-1 0,-3 -1,-4 0,-1 0,-1 -1,-2 -1,-1 -1,-2 -2,-2 -1,-1 -2,-1 -4,-1 -2,0 -4,1 -6,3 -2,1 -3,3 -3,6l17 0z"/>
   <path id="60" class="fil3" d="M1143 376c1,2 2,4 4,6 1,2 2,4 3,7 1,2 2,5 3,7 0,3 1,6 1,9 0,4 -1,7 -1,10 -1,3 -2,5 -3,8 -1,2 -2,5 -3,7 -2,2 -3,4 -4,5l-4 -2c3,-4 5,-8 6,-13 2,-4 3,-9 3,-15 0,-2 0,-5 -1,-7 0,-3 -1,-5 -1,-7 -1,-2 -2,-5 -3,-7 -1,-2 -2,-4 -4,-6l4 -2z"/>
   <path id="61" class="fil3" d="M178 481c-1,-2 -2,-2 -4,-3 -1,0 -2,-1 -4,-1 -1,0 -2,0 -2,1 -1,0 -2,1 -3,1 -1,1 -1,2 -2,2 0,1 0,2 0,4 0,2 0,4 2,6 1,1 3,2 5,2 1,0 2,0 3,-1 1,0 2,-1 3,-1 0,-1 1,-2 1,-3 1,-1 1,-2 1,-3l0 -4zm5 24l-5 0 0 -11c-1,1 -2,2 -3,2 -2,1 -3,1 -5,1 -2,0 -3,0 -5,0 -1,-1 -3,-2 -4,-3 -1,-1 -2,-2 -3,-4 0,-2 -1,-4 -1,-6 0,-2 1,-3 1,-5 1,-1 2,-2 3,-3 1,-1 2,-2 4,-3 1,0 3,0 4,0 4,0 7,1 9,3l0 -10 -24 0 0 -4 54 0 0 4 -25 0 0 11c1,-1 2,-2 4,-3 1,-1 3,-1 5,-1 2,0 3,0 5,1 1,0 2,1 3,2 2,1 2,2 3,3 1,2 1,4 1,5 0,2 0,4 -1,6 -1,1 -2,3 -3,4 -1,1 -2,1 -4,2 -1,0 -3,1 -5,1 0,0 -1,0 -2,-1 0,0 -1,0 -1,0l1 -4c1,0 1,0 2,0 1,0 2,0 3,-1 1,0 2,0 2,-1 1,0 2,-1 2,-2 0,-1 1,-2 1,-4 0,-2 -1,-3 -2,-5 -2,-1 -3,-1 -5,-1 -3,0 -5,0 -7,2 -1,2 -2,4 -2,7l0 18z"/>
   <path id="62" class="fil3" d="M230 503l-5 3 -13 -20c-1,-1 -1,-2 -2,-2 0,-1 0,-1 0,-2 0,-1 0,-2 1,-2 1,-1 2,-1 3,-1l1 2c1,1 1,1 2,2 0,0 1,0 2,0 2,0 3,-1 5,-2 1,-2 1,-3 1,-6 0,-2 0,-4 -1,-5 0,-2 -1,-3 -2,-4l-15 0 0 -4 30 0 0 4 -9 0c0,1 1,2 2,4 1,1 1,3 1,5 0,2 0,4 -1,5 0,2 -1,3 -2,4 -1,1 -2,2 -4,3 -1,0 -3,0 -4,0 -1,0 -1,0 -1,0 0,0 0,0 0,0l11 16z"/>
   <path id="63" class="fil3" d="M299 466l0 39 -5 0 0 -12c-1,0 -2,1 -4,2 -1,0 -3,1 -5,1 -2,0 -4,-1 -6,-1 -2,-1 -4,-2 -5,-4 -2,-1 -3,-3 -4,-5 -1,-2 -1,-4 -1,-7l2 0c3,0 5,-1 7,-2 1,-1 2,-2 2,-4 0,-2 0,-3 -1,-4 -1,-1 -1,-2 -2,-3l-13 0 0 15c0,2 -1,4 -1,6 -1,1 -2,2 -3,3 -1,2 -2,2 -3,3 -2,0 -3,1 -5,1 -3,0 -6,-1 -8,-4 -3,-2 -4,-5 -4,-9l0 -15 -5 0 0 -4 70 0 0 4 -6 0zm-5 0l-12 0c1,1 2,2 2,3 1,1 1,3 1,4 0,3 -1,5 -3,7 -2,2 -4,3 -8,3 0,2 2,4 3,6 2,1 5,2 8,2 2,0 3,0 5,-1 2,-1 3,-2 4,-3l0 -21zm-48 15c0,3 0,5 1,6 1,1 3,2 5,2 2,0 3,-1 5,-2 1,-1 1,-3 1,-6l0 -15 -12 0 0 15z"/>
   <polygon id="64" class="fil3" points="310,466 304,466 304,462 322,462 322,466 316,466 316,505 310,505 "/>
   <path id="65" class="fil3" d="M338 480c-3,0 -5,1 -6,3 -1,1 -2,3 -2,5 0,3 1,5 2,7 1,3 2,5 4,8l-4 3c-2,-3 -4,-6 -5,-9 -2,-3 -2,-6 -2,-9 0,-4 1,-7 3,-9 2,-2 5,-3 9,-3l12 0 0 -10 -28 0 0 -4 39 0 0 4 -6 0 0 39 -5 0 0 -25 -11 0z"/>
   <path id="66" class="fil3" d="M402 466l0 39 -5 0 0 -12c-1,0 -2,1 -3,2 -2,0 -4,1 -6,1 -2,0 -4,-1 -6,-1 -2,-1 -4,-2 -5,-4 -2,-1 -3,-3 -4,-5 -1,-2 -1,-4 -1,-7l2 0c3,0 6,-1 7,-2 1,-1 2,-2 2,-4 0,-2 0,-3 -1,-4 0,-1 -1,-2 -2,-3l-12 0 0 -4 41 0 0 4 -7 0zm-5 0l-12 0c1,1 2,2 2,3 1,1 1,3 1,4 0,3 -1,5 -3,7 -2,2 -4,3 -8,3 0,2 2,4 3,6 2,1 5,2 8,2 2,0 4,0 5,-1 2,-1 3,-2 4,-3l0 -21z"/>
   <path id="67" class="fil3" d="M376 446c1,-1 2,-1 3,-1 1,-1 3,-1 4,-1 3,0 6,1 8,3 2,1 4,4 6,7l5 10 -4 0 -5 -8c-1,-1 -2,-2 -2,-3 -1,-1 -2,-1 -2,-2 -1,0 -2,-1 -3,-1 -1,0 -2,0 -3,0 -1,0 -2,0 -3,0 -1,0 -1,0 -2,1l-2 -5z"/>
   <path id="68" class="fil3" d="M420 505c-3,0 -4,-1 -6,-2 -1,-1 -2,-3 -2,-4 0,-1 0,-2 1,-2 1,-1 2,-1 3,-1l5 5c2,0 4,0 5,-1 2,0 3,0 5,-1 1,0 2,-1 3,-2 0,-1 1,-2 1,-3 0,-3 -3,-4 -7,-4 -2,0 -3,0 -5,0 -1,0 -3,1 -5,1 -1,0 -2,-1 -3,-2 0,-1 -1,-1 -2,-2 0,-1 -1,-2 -1,-3 -1,-1 -1,-2 -1,-3 0,-2 1,-3 1,-4 1,-1 1,-1 2,-2 1,-1 2,-1 3,-2 2,0 3,0 5,0l9 0 0 -7 -23 0 0 -4 21 0 0 -1c0,0 -1,-1 -1,-1 -1,-1 -1,-1 -2,-2 0,-1 0,-2 -1,-3 0,-1 0,-1 0,-3 0,-1 0,-2 1,-3 0,-2 1,-3 2,-4 1,0 2,-1 3,-1 1,-1 3,-1 4,-1 1,0 3,0 4,0 1,1 2,1 3,1l-1 5c-2,-1 -3,-1 -5,-1 -2,0 -3,0 -4,1 -1,1 -2,3 -2,5 0,0 1,1 1,2 0,1 0,2 1,2 0,1 1,2 1,2 0,1 1,1 1,2l10 0 0 4 -8 0 0 11 -13 0c-2,0 -3,0 -4,1 -2,1 -2,2 -2,3 0,2 1,4 2,5 2,0 3,-1 5,-1 1,0 3,0 4,0 2,0 4,0 5,1 2,0 3,1 4,2 1,1 2,2 2,3 1,1 1,2 1,3 0,2 0,3 -1,5 -1,1 -2,2 -3,3 -2,1 -3,2 -5,2 -2,1 -5,1 -7,1l8 7 -4 3 -8 -10z"/>
   <path id="69" class="fil3" d="M466 481c-1,-1 -2,-1 -3,-2 -1,0 -2,0 -3,0 -2,0 -4,0 -6,1 -1,2 -2,4 -2,6 0,2 0,4 1,5 1,2 2,3 3,5 1,1 2,2 3,3 2,1 3,2 5,3l-4 4c-1,-1 -3,-3 -5,-4 -2,-1 -3,-3 -4,-4 -2,-2 -3,-4 -3,-6 -1,-1 -1,-4 -1,-6 0,-2 0,-4 1,-5 0,-2 1,-3 2,-4 2,-1 3,-2 4,-2 2,-1 3,-1 5,-1 2,0 3,0 5,1 2,1 3,2 4,3 1,-1 2,-2 3,-3 2,-1 3,-1 5,-1 1,0 1,0 2,0 1,0 2,1 2,1l0 -9 -37 0 0 -4 49 0 0 4 -7 0 0 39 -5 0 0 -26c0,0 -1,0 -1,0 -1,0 -1,0 -2,0 -3,0 -4,1 -5,3 -1,2 -2,5 -2,8l-5 0c0,-2 0,-4 0,-5 0,-2 1,-3 1,-4z"/>
   <path id="70" class="fil3" d="M495 501c0,-1 0,-2 1,-3 1,-1 2,-1 3,-1 1,0 2,0 3,1 1,1 1,2 1,3 0,2 0,3 -1,3 -1,1 -2,2 -3,2 -1,0 -2,-1 -3,-2 -1,0 -1,-1 -1,-3z"/>
   <path id="71" class="fil3" d="M157 590c1,-1 3,-2 5,-2 1,-1 3,-1 5,-1 2,0 3,0 5,1 2,0 3,1 4,2 1,1 2,2 3,3 0,2 1,3 1,5 0,2 -1,4 -2,6 -1,1 -2,2 -3,3 1,1 2,1 4,1 1,0 2,0 3,0 2,0 3,0 5,0 1,-1 2,-1 3,-2l0 -14 -6 0 0 -4 34 0 0 4 -6 0 0 39 -5 0 0 -39 -11 0 0 39 -6 0 0 -19c-2,1 -4,1 -6,1 -1,0 -2,0 -3,0 -1,0 -2,-1 -3,-1l0 0c1,1 2,2 2,3 0,1 1,2 1,3 0,4 -2,7 -4,9 -2,2 -6,3 -10,3 -1,0 -2,0 -3,0 -1,0 -2,0 -3,-1 -1,0 -2,-1 -3,-1 -1,0 -2,-1 -2,-1l2 -4c1,1 3,1 4,2 1,0 3,1 5,1 1,0 2,0 3,-1 1,0 2,0 3,-1 0,-1 1,-1 1,-2 1,-1 1,-3 1,-4 0,-2 -1,-4 -2,-6 -2,-1 -4,-2 -7,-2l-4 0 0 -4 3 0c3,0 5,-1 7,-2 1,-1 2,-3 2,-6 0,-2 -1,-3 -2,-5 -2,-1 -3,-1 -5,-1 -1,0 -2,0 -4,0 -1,1 -2,1 -4,2l-2 -4z"/>
   <path id="72" class="fil3" d="M253 592l-6 0 0 39 -6 0 0 -16c0,0 -1,1 -3,2 -1,0 -3,0 -5,0 -1,0 -3,0 -4,0 -2,-1 -3,-1 -4,-2 -1,-1 -2,-3 -3,-4 0,-1 -1,-3 -1,-5l0 -14 -5 0 0 -4 37 0 0 4zm-26 13c0,3 0,5 1,6 2,1 3,2 6,2 1,0 3,-1 4,-1 2,-1 3,-2 3,-3l0 -17 -14 0 0 13z"/>
   <path id="73" class="fil3" d="M275 607c-1,-1 -2,-1 -3,-2 -2,0 -3,0 -4,0 -2,0 -4,0 -5,2 -2,1 -2,3 -2,6 0,2 0,3 1,5 0,1 1,3 2,4 1,1 2,2 4,3 1,1 3,2 4,3l-3 4c-2,-1 -4,-2 -5,-4 -2,-1 -4,-2 -5,-4 -1,-2 -2,-3 -3,-5 0,-2 -1,-4 -1,-7 0,-2 0,-4 1,-5 1,-2 2,-3 3,-4 1,-1 2,-2 4,-2 1,-1 3,-1 5,-1 1,0 3,1 5,1 1,1 2,2 4,3 0,-1 1,-2 3,-3 1,0 3,-1 4,-1 1,0 2,0 3,1 1,0 1,0 2,0l0 -9 -37 0 0 -4 48 0 0 4 -6 0 0 39 -5 0 0 -26c-1,0 -1,0 -2,0 0,0 -1,0 -2,0 -2,0 -4,1 -5,3 -1,2 -1,5 -2,9l-5 0c0,-3 0,-4 1,-6 0,-1 0,-3 1,-4z"/>
   <polygon id="74" class="fil3" points="305,592 299,592 299,588 317,588 317,592 310,592 310,631 305,631 "/>
   <path id="75" class="fil3" d="M380 592l-25 0 0 12c1,-1 2,-2 4,-3 2,-1 3,-1 5,-1 2,0 4,0 5,1 2,0 3,1 4,2 1,1 2,2 2,4 1,1 1,3 1,5 0,2 0,4 -1,5 -1,2 -2,3 -3,4 -1,1 -2,2 -4,3 -2,0 -4,1 -6,1l0 -5c1,0 2,0 3,0 1,-1 2,-1 3,-2 1,-1 1,-2 2,-3 0,-1 1,-2 1,-3 0,-2 -1,-4 -2,-6 -2,-1 -3,-1 -5,-1 -2,0 -4,0 -5,1 -2,1 -3,2 -4,4l0 21 -5 0 0 -17c-1,1 -2,2 -3,2 -2,1 -4,1 -5,1 -2,0 -4,0 -5,0 -2,-1 -3,-1 -4,-2 -1,-1 -2,-3 -2,-4 -1,-1 -1,-3 -1,-5l0 -14 -5 0 0 -4 55 0 0 4zm-45 13c0,3 1,5 2,6 1,1 3,2 5,2 2,0 3,-1 5,-1 1,-1 2,-2 3,-4l0 -16 -15 0 0 13z"/>
   <path id="76" class="fil3" d="M390 571c0,2 -1,3 -1,5 -1,1 -2,2 -3,3 -1,1 -2,2 -4,2 -1,0 -2,1 -4,1 -1,0 -2,-1 -4,-1 -1,0 -2,-1 -3,-2 -2,-1 -2,-2 -3,-3 -1,-2 -1,-3 -1,-5l5 0c0,2 1,4 2,5 1,1 3,1 4,1 2,0 4,0 5,-2 1,-1 1,-2 2,-4l5 0zm-6 21l-6 0 0 -4 18 0 0 4 -7 0 0 39 -5 0 0 -39z"/>
   <path id="77" class="fil3" d="M408 592l0 17 14 0 0 -17 -14 0zm0 27c0,0 -1,0 -1,1 -1,0 -2,0 -2,0 -1,0 -2,0 -3,0 -1,-1 -2,-1 -2,-2 -1,-1 -1,-1 -2,-2 0,-1 0,-2 0,-3 0,-1 0,-2 1,-3 0,0 1,-1 3,-1l1 0 0 -17 -9 0 0 -4 40 0 0 4 -6 0 0 39 -6 0 0 -17 -14 0 0 5z"/>
   <path id="78" class="fil3" d="M421 588l0 -1c0,0 -1,0 -1,-1 -1,-1 -1,-1 -1,-2 -1,-1 -1,-2 -1,-2 -1,-1 -1,-2 -1,-3 0,-2 0,-3 1,-4 0,-1 1,-2 2,-3 1,-1 2,-2 3,-2 2,-1 3,-1 4,-1 2,0 3,0 4,1 2,0 3,0 3,1l-1 4c-1,-1 -3,-1 -5,-1 -1,0 -3,0 -4,1 -1,1 -1,3 -1,5 0,1 0,1 0,2 0,1 1,2 1,3 0,0 1,1 1,1 1,1 1,1 2,2l-6 0z"/>
   <path id="79" class="fil3" d="M456 592l0 17 14 0 0 -17 -14 0zm0 27c0,0 -1,0 -1,1 -1,0 -2,0 -3,0 -1,0 -1,0 -2,0 -1,-1 -2,-1 -2,-2 -1,-1 -2,-1 -2,-2 0,-1 -1,-2 -1,-3 0,-1 1,-2 2,-3 0,0 1,-1 3,-1l0 0 0 -17 -8 0 0 -4 40 0 0 4 -7 0 0 39 -5 0 0 -17 -14 0 0 5z"/>
   <path id="80" class="fil3" d="M469 578c0,-1 0,-2 1,-3 1,0 2,-1 3,-1 1,0 2,1 2,1 1,1 1,2 1,3 0,1 0,2 -1,2 0,1 -1,2 -2,2 -1,0 -2,-1 -3,-2 -1,0 -1,-1 -1,-2z"/>
   <path id="81" class="fil3" d="M505 607c1,0 2,1 3,3 1,1 1,3 1,5 0,2 0,3 -1,5 0,1 -1,2 -2,3 -1,1 -3,2 -4,3 -2,0 -3,0 -5,0 -2,0 -4,0 -5,0 -2,-1 -3,-2 -4,-3 -2,-1 -3,-2 -3,-3 -1,-1 -2,-2 -3,-4l4 -2c2,2 3,4 5,6 1,1 3,2 6,2 1,0 2,0 2,-1 1,0 2,0 3,-1 0,0 1,-1 1,-2 1,-1 1,-2 1,-3 0,-3 -1,-5 -3,-6 -2,-2 -4,-2 -7,-2l-3 0 0 -5 26 0 0 -10 -37 0 0 -4 48 0 0 4 -6 0 0 39 -5 0 0 -24 -12 0z"/>
   <path id="82" class="fil3" d="M508 639c0,-2 1,-5 3,-6 2,-2 4,-3 8,-3 2,0 4,1 6,1 1,1 3,2 5,4 1,1 3,3 4,5 1,2 3,4 4,6l-4 3c-1,-2 -2,-4 -3,-6 -1,-1 -2,-3 -4,-4 -1,-1 -2,-2 -4,-3 -1,-1 -2,-1 -4,-1 -2,0 -3,0 -4,1 -1,1 -2,2 -2,4 0,1 1,2 2,3 1,1 2,1 4,1 0,0 1,0 1,0 0,0 1,0 1,0l2 4c0,0 -1,0 -2,0 -1,1 -2,1 -3,1 -1,0 -3,0 -4,-1 -1,0 -2,-1 -3,-2 -1,-1 -2,-2 -2,-3 -1,-1 -1,-2 -1,-4z"/>
   <path id="83" class="fil3" d="M550 629l-5 3 -13 -20c-1,-1 -2,-1 -2,-2 0,-1 0,-1 0,-2 0,-1 0,-1 1,-2 1,0 2,-1 2,-1l2 2c0,1 1,1 2,2 0,0 1,0 2,0 2,0 3,-1 4,-2 2,-1 2,-3 2,-6 0,-2 0,-4 -1,-5 0,-2 -1,-3 -2,-4l-15 0 0 -4 30 0 0 4 -9 0c0,1 1,2 2,4 1,2 1,4 1,6 0,1 0,3 -1,5 -1,1 -1,2 -2,3 -1,1 -2,2 -4,3 -1,0 -3,1 -4,1 -1,0 -1,0 -1,0 0,0 0,0 0,0l11 15z"/>
   <path id="84" class="fil3" d="M576 630c-2,0 -4,-1 -5,-2 -2,-1 -2,-2 -2,-3 0,-1 0,-2 1,-3 1,0 2,-1 4,-1l4 5c2,0 3,0 5,0 1,0 3,-1 4,-1 1,-1 2,-1 2,-2 1,-1 1,-2 1,-3 0,-3 -2,-5 -7,-5 -1,0 -2,0 -3,0 -2,1 -3,1 -5,1 -1,0 -2,-1 -3,-2 0,0 -1,-1 -2,-2 0,-1 -1,-2 -1,-3 0,-1 -1,-2 -1,-3 0,-1 1,-2 1,-3 1,-1 1,-2 2,-3 1,0 2,-1 3,-1 2,-1 3,-1 5,-1l9 0 0 -6 -23 0 0 -4 52 0 0 4 -6 0 0 39 -6 0 0 -16c0,1 -1,1 -2,1 -1,0 -2,0 -3,0 -1,0 -2,0 -3,0 0,0 -1,0 -2,-1l0 1c1,1 1,2 1,4 0,3 -1,6 -4,8 -3,1 -7,2 -11,3l6 6 -5 3 -6 -10zm12 -19c1,0 3,0 5,0 1,1 3,1 4,1 2,0 3,0 5,-1 1,0 2,-1 3,-1l0 -18 -12 0 0 11 -13 0c-2,0 -3,0 -4,1 -2,0 -2,1 -2,3 0,1 0,2 0,2 1,1 1,2 2,2 2,0 3,0 4,0 1,0 3,-1 4,-1 1,0 1,1 2,1 1,0 1,0 2,0z"/>
   <polygon id="85" class="fil3" points="622,592 616,592 616,588 633,588 633,592 627,592 627,631 622,631 "/>
   <path id="86" class="fil3" d="M632 592l0 -4 41 0 0 4 -41 0zm34 8c1,0 2,1 3,1 1,0 2,1 3,1 1,1 1,1 2,2 0,1 1,1 1,2l-3 3c-1,-2 -2,-3 -3,-3 -1,-1 -2,-1 -3,-1 -2,0 -4,1 -5,3 -1,2 -2,5 -2,9l-6 0c0,-3 1,-4 1,-6 0,-1 1,-3 1,-4 -1,-1 -2,-1 -3,-2 -1,0 -2,0 -3,0 -3,0 -4,0 -6,2 -1,1 -2,3 -2,6 0,2 0,3 1,5 1,1 1,3 2,4 2,1 3,2 4,3 2,1 3,2 5,3l-4 4c-2,-1 -3,-2 -5,-4 -2,-1 -3,-2 -4,-4 -2,-2 -3,-3 -3,-5 -1,-2 -2,-4 -2,-7 0,-2 1,-4 1,-5 1,-2 2,-3 3,-4 1,-1 3,-2 4,-2 2,-1 3,-1 5,-1 2,0 3,1 5,1 2,1 3,2 4,3 1,-1 2,-2 4,-3 1,0 3,-1 5,-1z"/>
   <path id="87" class="fil3" d="M700 592l0 39 -5 0 0 -12c-1,1 -2,1 -3,2 -2,1 -4,1 -6,1 -2,0 -4,0 -6,-1 -2,-1 -4,-2 -5,-3 -2,-2 -3,-3 -4,-6 -1,-2 -1,-4 -1,-7l2 0c3,0 6,-1 7,-2 1,-1 2,-2 2,-4 0,-2 0,-3 -1,-4 0,-1 -1,-2 -2,-3l-12 0 0 -4 41 0 0 4 -7 0zm-5 0l-12 0c1,1 2,2 3,3 0,1 1,3 1,4 0,3 -1,6 -3,7 -2,2 -5,3 -9,3 1,3 2,5 4,6 1,1 4,2 7,2 2,0 4,0 5,-1 2,-1 3,-1 4,-3l0 -21z"/>
   <polygon id="88" class="fil3" points="712,592 705,592 705,588 723,588 723,592 717,592 717,631 712,631 "/>
   <path id="89" class="fil3" d="M739 599c2,0 4,0 6,1 2,1 3,2 4,3l0 -11 -27 0 0 -4 38 0 0 4 -6 0 0 39 -5 0 0 -11c-1,1 -2,2 -4,3 -1,1 -3,1 -6,1 -2,0 -4,0 -5,-1 -2,0 -3,-1 -5,-2 -1,-1 -2,-3 -3,-4 0,-2 -1,-4 -1,-6 0,-2 1,-4 1,-5 1,-2 2,-3 3,-4 1,-1 3,-2 4,-2 2,-1 4,-1 6,-1zm10 10c-1,-2 -2,-3 -4,-4 -1,-1 -3,-2 -5,-2 -3,0 -5,1 -7,2 -1,2 -2,4 -2,6 0,3 1,5 2,7 2,1 4,1 7,1 1,0 2,0 3,0 1,-1 2,-1 3,-2 1,0 2,-1 2,-2 1,-1 1,-2 1,-3l0 -3z"/>
   <path id="90" class="fil3" d="M782 629l-5 3 -13 -20c-1,-1 -2,-1 -2,-2 0,-1 0,-1 0,-2 0,-1 0,-1 1,-2 1,0 1,-1 2,-1l2 2c0,1 1,1 2,2 0,0 1,0 2,0 2,0 3,-1 4,-2 2,-1 2,-3 2,-6 0,-2 0,-4 -1,-5 0,-2 -1,-3 -2,-4l-15 0 0 -4 30 0 0 4 -9 0c0,1 1,2 2,4 0,2 1,4 1,6 0,1 0,3 -1,5 -1,1 -1,2 -2,3 -1,1 -2,2 -4,3 -1,0 -3,1 -4,1 -1,0 -1,0 -1,0 0,0 0,0 -1,0l12 15z"/>
   <path id="91" class="fil3" d="M800 590c1,-1 3,-2 5,-2 2,-1 3,-1 5,-1 2,0 4,0 5,1 2,0 3,1 4,2 1,1 2,2 3,3 0,2 1,3 1,5 0,2 -1,4 -2,6 -1,1 -2,2 -3,3 1,1 2,1 4,1 1,0 2,0 4,0 1,0 2,0 4,0 1,-1 2,-1 3,-2l0 -14 -6 0 0 -4 34 0 0 4 -6 0 0 39 -5 0 0 -39 -11 0 0 39 -6 0 0 -19c-1,1 -3,1 -6,1 -1,0 -2,0 -3,0 0,0 -1,-1 -3,-1l0 0c1,1 2,2 2,3 0,1 1,2 1,3 0,4 -2,7 -4,9 -2,2 -6,3 -10,3 -1,0 -2,0 -3,0 -1,0 -2,0 -3,-1 -1,0 -2,-1 -3,-1 -1,0 -1,-1 -2,-1l2 -4c1,1 3,1 4,2 2,0 3,1 5,1 1,0 2,0 3,-1 1,0 2,0 3,-1 0,-1 1,-1 1,-2 1,-1 1,-3 1,-4 0,-2 -1,-4 -2,-6 -1,-1 -4,-2 -7,-2l-4 0 0 -4 3 0c3,0 5,-1 7,-2 1,-1 2,-3 2,-6 0,-2 -1,-3 -2,-5 -1,-1 -3,-1 -5,-1 -1,0 -2,0 -4,0 -1,1 -2,1 -3,2l-3 -4z"/>
   <path id="92" class="fil3" d="M896 592l-6 0 0 39 -5 0 0 -16c-1,0 -2,1 -4,2 -1,0 -3,0 -5,0 -1,0 -3,0 -4,0 -2,-1 -3,-1 -4,-2 -1,-1 -2,-3 -3,-4 0,-1 -1,-3 -1,-5l0 -14 -5 0 0 -4 37 0 0 4zm-26 13c0,3 0,5 1,6 2,1 3,2 6,2 1,0 3,-1 4,-1 2,-1 3,-2 4,-3l0 -17 -15 0 0 13z"/>
   <path id="93" class="fil3" d="M895 592l0 -4 49 0 0 4 -6 0 0 39 -6 0 0 -39 -9 0 0 16c0,2 0,3 -1,5 -1,1 -1,3 -2,4 -1,1 -3,2 -4,2 -2,1 -3,1 -5,1 -3,0 -6,-1 -8,-3 -2,-2 -3,-5 -3,-9l0 -16 -5 0zm10 16c0,2 1,4 2,5 1,2 2,2 4,2 2,0 4,0 5,-2 1,-1 1,-3 1,-5l0 -16 -12 0 0 16z"/>
   <path id="94" class="fil3" d="M971 620c0,0 -1,1 -1,1 -1,0 -2,0 -2,0 -1,0 -2,0 -3,0 -1,0 -2,-1 -2,-1 -1,-1 -2,-2 -2,-3 0,0 -1,-1 -1,-2 0,-2 1,-3 2,-3 1,-1 2,-1 3,-1l1 0 0 -15c0,-1 -1,-2 -1,-3 -1,-1 -2,-2 -3,-2 -1,0 -2,1 -3,2 -1,0 -1,1 -1,3 0,1 0,2 1,3 1,1 1,2 3,2l-2 4c-1,0 -2,0 -3,-1 -1,-1 -2,-1 -2,-2 -1,-1 -1,-2 -2,-3 0,-1 0,-2 0,-3 0,-2 0,-3 0,-4 1,-1 1,-2 2,-3 1,0 2,-1 3,-1 1,-1 3,-1 4,-1 3,0 5,1 7,3 1,1 2,4 2,6l0 15 12 0 0 -19 -7 0 0 -4 19 0 0 4 -6 0 0 39 -6 0 0 -16 -12 0 0 5z"/>
   <path id="95" class="fil3" d="M1016 629l-5 3 -13 -20c-1,-1 -1,-1 -1,-2 -1,-1 -1,-1 -1,-2 0,-1 1,-1 1,-2 1,0 2,-1 3,-1l1 2c1,1 2,1 2,2 1,0 1,0 2,0 2,0 4,-1 5,-2 1,-1 2,-3 2,-6 0,-2 0,-4 -1,-5 -1,-2 -2,-3 -2,-4l-15 0 0 -4 29 0 0 4 -9 0c1,1 2,2 2,4 1,2 1,4 1,6 0,1 0,3 0,5 -1,1 -2,2 -3,3 -1,1 -2,2 -3,3 -2,0 -3,1 -5,1 0,0 0,0 0,0 -1,0 -1,0 -1,0l11 15z"/>
   <path id="96" class="fil3" d="M1043 607c-1,-1 -2,-1 -3,-2 -1,0 -3,0 -4,0 -2,0 -4,0 -5,2 -2,1 -2,3 -2,6 0,2 0,3 1,5 0,1 1,3 2,4 1,1 2,2 4,3 1,1 3,2 4,3l-3 4c-2,-1 -4,-2 -5,-4 -2,-1 -3,-2 -5,-4 -1,-2 -2,-3 -3,-5 0,-2 -1,-4 -1,-7 0,-2 1,-4 1,-5 1,-2 2,-3 3,-4 1,-1 2,-2 4,-2 1,-1 3,-1 5,-1 1,0 3,1 5,1 1,1 2,2 4,3 0,-1 2,-2 3,-3 1,0 3,-1 4,-1 1,0 2,0 3,1 1,0 1,0 2,0l0 -9 -37 0 0 -4 48 0 0 4 -6 0 0 39 -5 0 0 -26c-1,0 -1,0 -2,0 0,0 -1,0 -2,0 -2,0 -4,1 -5,3 -1,2 -1,5 -2,9l-5 0c0,-3 0,-4 1,-6 0,-1 0,-3 1,-4z"/>
   <path id="97" class="fil3" d="M1035 572c1,-1 2,-1 3,-1 1,0 3,-1 4,-1 3,0 6,1 8,3 2,2 4,4 6,7l5 10 -4 0 -5 -8c-1,-1 -2,-2 -2,-3 -1,-1 -2,-1 -2,-2 -1,0 -2,-1 -3,-1 -1,0 -2,0 -3,0 -1,0 -2,0 -3,0 -1,0 -1,1 -2,1l-2 -5z"/>
   <path id="98" class="fil3" d="M1067 592l0 -4 40 0 0 4 -40 0zm34 8c1,0 2,1 3,1 1,0 2,1 3,1 0,1 1,1 2,2 0,1 1,1 1,2l-3 3c-1,-2 -2,-3 -3,-3 -1,-1 -2,-1 -3,-1 -3,0 -4,1 -6,3 -1,2 -1,5 -1,9l-6 0c0,-3 0,-4 1,-6 0,-1 0,-3 1,-4 -1,-1 -2,-1 -3,-2 -1,0 -2,0 -3,0 -3,0 -5,0 -6,2 -1,1 -2,3 -2,6 0,2 0,3 1,5 0,1 1,3 2,4 1,1 3,2 4,3 1,1 3,2 4,3l-3 4c-2,-1 -4,-2 -5,-4 -2,-1 -3,-2 -5,-4 -1,-2 -2,-3 -3,-5 0,-2 -1,-4 -1,-7 0,-2 1,-4 1,-5 1,-2 2,-3 3,-4 1,-1 3,-2 4,-2 2,-1 3,-1 5,-1 1,0 3,1 5,1 2,1 3,2 4,3 1,-1 2,-2 4,-3 1,0 3,-1 5,-1z"/>
   <path id="99" class="fil3" d="M1135 592l0 39 -5 0 0 -12c-1,1 -2,1 -3,2 -2,1 -4,1 -6,1 -2,0 -4,0 -6,-1 -2,-1 -4,-2 -5,-3 -2,-2 -3,-3 -4,-6 -1,-2 -1,-4 -1,-7l2 0c3,0 5,-1 7,-2 1,-1 2,-2 2,-4 0,-2 0,-3 -1,-4 0,-1 -1,-2 -2,-3l-12 0 0 -4 41 0 0 4 -7 0zm-5 0l-12 0c1,1 2,2 2,3 1,1 1,3 1,4 0,3 -1,6 -3,7 -2,2 -4,3 -8,3 0,3 2,5 3,6 2,1 5,2 8,2 2,0 4,0 5,-1 2,-1 3,-1 4,-3l0 -21z"/>
   <polygon id="100" class="fil3" points="1146,592 1140,592 1140,588 1158,588 1158,592 1152,592 1152,631 1146,631 "/>
   <path id="101" class="fil3" d="M209 673l-25 0 0 11c1,-1 2,-2 4,-3 2,0 4,-1 5,-1 2,0 4,1 5,1 2,1 3,2 4,3 1,1 2,2 2,3 1,2 1,3 1,5 0,2 0,4 -1,6 -1,1 -1,2 -3,4 -1,1 -2,2 -4,2 -2,1 -4,1 -6,1l0 -5c1,0 2,0 3,0 1,-1 2,-1 3,-2 1,0 1,-1 2,-2 0,-1 1,-2 1,-4 0,-2 -1,-4 -2,-5 -2,-1 -3,-2 -5,-2 -2,0 -4,0 -5,1 -2,1 -3,3 -4,4l0 22 -5 0 0 -17c-1,0 -2,1 -3,2 -2,0 -3,1 -5,1 -2,0 -4,0 -5,-1 -1,0 -3,-1 -4,-2 -1,-1 -2,-2 -2,-4 -1,-1 -1,-3 -1,-5l0 -13 -5 0 0 -5 55 0 0 5zm-45 13c0,2 1,4 2,5 1,2 3,2 5,2 2,0 3,0 5,-1 1,-1 2,-2 3,-3l0 -16 -15 0 0 13z"/>
   <path id="102" class="fil3" d="M219 651c0,2 -1,4 -1,5 -1,1 -2,3 -3,3 -1,1 -2,2 -3,2 -2,1 -3,1 -4,1 -2,0 -3,0 -5,-1 -1,0 -2,-1 -3,-2 -1,-1 -2,-2 -3,-3 -1,-1 -1,-3 -1,-5l5 0c0,3 1,4 2,5 1,1 3,1 4,1 2,0 4,0 5,-1 1,-1 2,-3 2,-5l5 0zm-6 22l-6 0 0 -5 18 0 0 5 -7 0 0 39 -5 0 0 -39z"/>
   <path id="103" class="fil3" d="M237 673l0 17 14 0 0 -17 -14 0zm0 26c0,0 -1,1 -1,1 -1,0 -2,0 -2,0 -1,0 -2,0 -3,0 -1,-1 -2,-1 -2,-2 -1,0 -1,-1 -2,-2 0,-1 0,-1 0,-2 0,-2 0,-3 1,-3 1,-1 2,-1 3,-1l1 0 0 -17 -9 0 0 -5 40 0 0 5 -6 0 0 39 -6 0 0 -18 -14 0 0 5z"/>
   <path id="104" class="fil3" d="M250 668l0 0c0,-1 0,-1 -1,-2 0,0 -1,-1 -1,-2 -1,0 -1,-1 -1,-2 -1,-1 -1,-2 -1,-3 0,-1 0,-3 1,-4 1,-1 1,-2 2,-3 1,-1 2,-1 4,-2 1,0 2,-1 4,-1 1,0 2,1 3,1 2,0 3,1 3,1l-1 4c-1,0 -3,-1 -5,-1 -1,0 -3,1 -4,2 -1,1 -1,2 -1,4 0,1 0,2 0,3 0,0 1,1 1,2 0,1 1,1 1,2 1,0 1,1 2,1l-6 0z"/>
   <path id="105" class="fil3" d="M274 685l0 -5 22 0 0 5 -2 0c-3,0 -5,0 -6,2 -1,1 -2,3 -2,5 0,1 0,2 1,3 0,0 1,1 1,2 1,0 2,1 3,1 1,0 2,0 3,0 2,0 4,0 6,-1 1,-1 3,-2 4,-4l0 -20 -33 0 0 -5 45 0 0 5 -7 0 0 39 -5 0 0 -13c-1,0 -1,1 -2,1 0,1 -1,1 -2,2 -1,0 -2,0 -3,1 -1,0 -2,0 -3,0 -2,0 -4,0 -6,-1 -1,0 -3,-1 -4,-2 -1,-1 -2,-2 -3,-4 0,-1 -1,-3 -1,-4 0,-2 1,-3 1,-5 1,-1 2,-2 3,-2l-10 0z"/>
   <path id="106" class="fil3" d="M320 673l-6 0 0 -5 6 0c0,-1 -1,-2 -1,-4 -1,-1 -1,-2 -2,-4 -1,-1 -2,-2 -3,-3 -1,-1 -3,-1 -4,-1 -3,0 -5,2 -5,5 0,1 0,3 1,4 0,1 1,2 2,3l-4 3 -1 -2c-1,-1 -2,-3 -2,-4 -1,-1 -1,-3 -1,-5 0,-2 1,-4 2,-6 2,-2 5,-3 8,-3 1,0 3,0 4,1 2,1 3,1 4,2 1,1 2,2 3,4 1,1 1,2 2,3 0,1 1,3 1,4 1,1 1,2 1,3l7 0 0 5 -6 0 0 39 -6 0 0 -39z"/>
   <path id="107" class="fil3" d="M346 668l14 0c2,0 4,0 6,1 2,1 3,1 5,3 1,1 2,2 3,4 0,1 1,3 1,5 0,3 -1,5 -1,6 -1,2 -2,3 -4,4 -1,2 -3,2 -5,3 -2,0 -4,1 -6,1l-7 0 0 17 -6 0 0 -44zm6 22l4 0c2,0 4,-1 5,-1 1,0 3,0 4,-1 1,-1 2,-1 2,-3 1,-1 1,-2 1,-4 0,-1 0,-2 -1,-3 0,-1 -1,-2 -2,-3 -1,-1 -2,-1 -3,-1 -1,-1 -3,-1 -4,-1l-6 0 0 17z"/>
   <path id="108" class="fil3" d="M396 668c3,0 6,1 9,1 2,1 5,3 7,4 2,2 3,4 4,7 1,2 2,5 2,9 0,4 -1,8 -2,11 -2,2 -3,5 -5,7 -3,1 -5,3 -8,3 -3,1 -6,2 -9,2l-12 0 0 -44 14 0zm-8 38l5 0c2,0 5,0 7,0 2,-1 4,-2 5,-3 2,-1 3,-3 4,-5 1,-3 2,-6 2,-9 0,-3 -1,-5 -1,-7 -1,-2 -2,-3 -3,-5 -2,-1 -4,-2 -5,-3 -2,0 -5,-1 -7,-1l-7 0 0 33z"/>
   <polygon id="109" class="fil3" points="452,668 452,673 433,673 433,687 450,687 450,693 433,693 433,712 426,712 426,668 "/>
   <path id="110" class="fil3" d="M500 673l-7 0 0 39 -5 0 0 -16 -17 17 -5 -4 13 -11c-2,0 -3,0 -5,-1 -1,0 -2,-1 -3,-2 -1,-1 -2,-2 -2,-4 -1,-1 -1,-3 -1,-4l0 -14 -5 0 0 -5 37 0 0 5zm-27 13c0,3 1,5 2,6 1,1 3,1 5,1 2,0 3,0 5,-1 1,0 2,-1 3,-2l0 -17 -15 0 0 13z"/>
   <path id="111" class="fil3" d="M516 687c-3,0 -5,1 -6,2 -2,2 -2,3 -2,6 0,2 0,5 1,7 1,2 3,5 5,8l-5 2c-2,-3 -4,-6 -5,-8 -1,-3 -2,-6 -2,-10 0,-3 1,-6 4,-9 2,-2 5,-3 9,-3l11 0 0 -9 -28 0 0 -5 40 0 0 5 -6 0 0 39 -6 0 0 -25 -10 0z"/>
   <path id="112" class="fil3" d="M570 698c-2,-1 -4,-3 -5,-5 -1,-1 -2,-3 -2,-5 0,-2 0,-3 1,-4 0,-1 1,-2 1,-2 1,-1 2,-2 4,-2 1,-1 2,-1 4,-1l10 0 0 -6 -24 0 0 -5 36 0 0 5 -7 0 0 11 -14 0c-2,0 -3,0 -4,1 -1,1 -1,2 -1,3 0,1 0,2 0,2 1,1 2,2 2,3 2,-1 3,-1 4,-1 1,-1 2,-1 4,-1 2,0 3,1 5,1 1,1 3,1 4,2 1,1 2,2 2,3 1,2 1,3 1,4 0,2 0,3 -1,5 0,1 -1,2 -2,3 -2,1 -3,2 -5,2 -1,1 -3,1 -5,1 -4,0 -7,-1 -9,-2 -3,-1 -6,-2 -7,-4l2 -4c2,2 4,3 7,4 2,1 4,1 7,1 2,0 4,0 6,-1 1,-1 2,-3 2,-5 0,-1 -1,-3 -2,-4 -1,-1 -3,-1 -5,-1 -2,0 -3,0 -4,0 -2,1 -3,1 -5,2z"/>
   <polygon id="113" class="fil3" points="600,673 593,673 593,668 611,668 611,673 605,673 605,712 600,712 "/>
   <path id="114" class="fil3" d="M633 689c2,0 4,1 5,2 1,-1 1,-2 2,-2 1,-1 1,-2 2,-3 1,0 3,-1 4,-1 1,-1 2,-1 4,-1 1,0 3,0 5,1 1,1 3,1 4,2 1,1 2,3 2,4 1,2 1,3 1,5 0,2 0,4 -1,6 -1,1 -2,3 -3,4 -1,1 -3,2 -5,2 -1,1 -3,1 -5,1l0 -5c1,0 2,0 3,0 1,-1 2,-1 3,-2 1,0 1,-1 2,-2 0,-1 1,-2 1,-4 0,-2 -1,-4 -2,-5 -2,-2 -3,-2 -6,-2 -2,0 -3,0 -5,1 -1,2 -2,3 -3,5 0,1 0,2 0,2 1,1 1,2 1,3 0,1 -1,3 -1,4 -1,2 -2,3 -3,4 -1,1 -3,2 -5,3 -1,0 -3,1 -5,1 -2,0 -4,-1 -5,-1 -2,-1 -3,-1 -5,-2 -1,-1 -2,-2 -3,-3 -1,-2 -2,-3 -2,-4l4 -3c1,3 2,5 4,6 2,1 4,2 6,2 3,0 5,-1 7,-2 1,-1 2,-3 2,-5 0,-3 -1,-5 -3,-7 -2,-1 -4,-2 -7,-2l-4 0 0 -4 3 0c3,0 5,-1 7,-2 1,-2 2,-4 2,-6 0,-2 0,-3 -2,-5 -1,-1 -2,-1 -5,-1l-17 0 0 -5 56 0 0 5 -30 0c1,0 2,1 3,2 0,2 1,3 1,4 0,3 -1,5 -2,6 -1,2 -3,3 -5,4z"/>
   <path id="115" class="fil3" d="M691 686l0 -13 -26 0 0 -5 38 0 0 5 -6 0 0 39 -6 0 0 -21 -13 0 0 5c0,0 0,1 -1,1 0,0 -1,0 -2,0 -2,0 -4,0 -5,-2 -1,-1 -2,-3 -2,-5 0,-1 1,-2 2,-3 0,-1 2,-1 3,-1l18 0z"/>
   <path id="116" class="fil3" d="M725 688c-1,-1 -2,-2 -3,-2 -2,-1 -3,-1 -4,-1 -2,0 -4,1 -5,2 -2,1 -2,3 -2,6 0,2 0,4 1,5 0,2 1,3 2,4 1,1 2,3 4,4 1,1 3,1 4,2l-3 4c-2,-1 -4,-2 -5,-3 -2,-2 -4,-3 -5,-5 -1,-1 -2,-3 -3,-5 -1,-2 -1,-4 -1,-6 0,-2 0,-4 1,-6 1,-1 2,-3 3,-4 1,-1 2,-1 4,-2 1,0 3,0 5,0 1,0 3,0 4,1 2,0 3,1 5,2 0,-1 1,-2 3,-2 1,-1 3,-1 4,-1 1,0 2,0 3,0 0,0 1,0 2,0l0 -8 -37 0 0 -5 48 0 0 5 -6 0 0 39 -5 0 0 -26c-1,0 -1,-1 -2,-1 0,0 -1,0 -2,0 -2,0 -4,1 -5,3 -1,2 -1,5 -2,9l-5 0c0,-2 0,-4 1,-6 0,-1 0,-2 1,-3z"/>
   <path id="117" class="fil3" d="M733 652c1,0 2,-1 3,-1 2,0 3,0 4,0 4,0 6,1 9,2 2,2 4,4 5,7l4 8 9 0 0 5 -7 0 0 39 -5 0 0 -39 -6 0 0 -5 5 0 -4 -6c-1,-1 -1,-2 -2,-2 -1,-1 -1,-2 -2,-2 -1,-1 -2,-1 -3,-2 0,0 -2,0 -3,0 -1,0 -2,0 -2,0 -1,1 -2,1 -3,1l-2 -5z"/>
   <path id="118" class="fil3" d="M776 698c-2,-1 -3,-3 -5,-5 -1,-1 -2,-3 -2,-5 0,-2 1,-3 1,-4 0,-1 1,-2 2,-2 1,-1 2,-2 3,-2 1,-1 3,-1 4,-1l10 0 0 -6 -24 0 0 -5 37 0 0 5 -8 0 0 11 -14 0c-2,0 -3,0 -4,1 -1,1 -1,2 -1,3 0,1 0,2 1,2 0,1 1,2 1,3 2,-1 3,-1 4,-1 1,-1 3,-1 4,-1 2,0 3,1 5,1 2,1 3,1 4,2 1,1 2,2 3,3 0,2 0,3 0,4 0,2 0,3 -1,5 0,1 -1,2 -2,3 -1,1 -3,2 -4,2 -2,1 -4,1 -6,1 -3,0 -6,-1 -9,-2 -3,-1 -5,-2 -7,-4l3 -4c1,2 3,3 6,4 2,1 4,1 7,1 2,0 5,0 6,-1 1,-1 2,-3 2,-5 0,-1 -1,-3 -2,-4 -1,-1 -3,-1 -5,-1 -1,0 -3,0 -4,0 -2,1 -3,1 -5,2z"/>
   <path id="119" class="fil3" d="M833 687c-1,-1 -2,-2 -4,-2 -1,-1 -2,-1 -4,-1 -1,0 -2,0 -3,0 0,1 -1,1 -2,2 -1,0 -1,1 -2,2 0,1 0,2 0,3 0,3 0,5 2,6 1,2 3,2 5,2 1,0 2,0 3,0 1,0 2,-1 3,-2 0,0 1,-1 1,-2 1,-1 1,-2 1,-4l0 -4zm5 25l-5 0 0 -12c-1,1 -2,2 -4,3 -1,1 -3,1 -4,1 -2,0 -4,0 -5,-1 -2,0 -3,-1 -4,-2 -1,-1 -2,-3 -3,-4 -1,-2 -1,-4 -1,-6 0,-2 0,-4 1,-5 1,-2 2,-3 3,-4 1,-1 2,-1 4,-2 1,0 3,-1 4,-1 4,0 7,1 9,4l0 -10 -24 0 0 -5 54 0 0 5 -25 0 0 11c1,-1 2,-2 4,-3 1,-1 3,-1 5,-1 2,0 3,0 5,0 1,1 2,2 3,2 1,1 2,3 3,4 1,1 1,3 1,5 0,2 0,4 -1,5 -1,2 -2,3 -3,4 -1,1 -2,2 -4,2 -2,1 -3,1 -5,1 0,0 -1,0 -2,0 0,0 -1,0 -1,0l1 -5c0,0 1,0 2,0 1,0 2,0 3,0 1,0 1,-1 2,-1 1,-1 1,-2 2,-3 0,-1 0,-2 0,-3 0,-2 0,-4 -2,-5 -1,-1 -2,-2 -5,-2 -2,0 -4,1 -6,3 -1,1 -2,3 -2,6l0 19z"/>
   <path id="120" class="fil3" d="M885 709l-5 3 -13 -19c-1,-1 -2,-2 -2,-3 0,0 0,-1 0,-1 0,-1 0,-2 1,-3 1,0 1,0 2,0l2 2c0,0 1,1 2,1 0,0 1,1 2,1 2,0 3,-1 4,-3 2,-1 2,-3 2,-5 0,-2 0,-4 -1,-6 0,-1 -1,-3 -2,-3l-15 0 0 -5 30 0 0 5 -9 0c0,0 1,2 2,3 0,2 1,4 1,6 0,2 0,3 -1,5 -1,1 -1,3 -2,4 -1,1 -2,2 -4,2 -1,1 -3,1 -4,1 -1,0 -1,0 -1,0 0,0 0,0 -1,0l12 15z"/>
   <path id="121" class="fil3" d="M906 687c-3,0 -5,1 -6,2 -1,2 -2,3 -2,6 0,2 0,5 1,7 2,2 3,5 5,8l-5 2c-2,-3 -3,-6 -5,-8 -1,-3 -2,-6 -2,-10 0,-3 1,-6 4,-9 2,-2 5,-3 9,-3l11 0 0 -9 -28 0 0 -5 40 0 0 5 -6 0 0 39 -6 0 0 -25 -10 0z"/>
   <polygon id="122" class="fil3" points="933,673 927,673 927,668 945,668 945,673 938,673 938,712 933,712 "/>
   <path id="123" class="fil3" d="M986 673l0 39 -5 0 0 -13c-1,1 -2,2 -3,2 -2,1 -4,1 -6,1 -2,0 -4,0 -6,-1 -2,-1 -4,-2 -5,-3 -2,-1 -3,-3 -4,-5 -1,-2 -1,-5 -1,-7l2 -1c3,0 6,0 7,-1 1,-1 2,-3 2,-5 0,-1 0,-2 -1,-3 0,-2 -1,-3 -2,-3l-12 0 0 -5 41 0 0 5 -7 0zm-5 0l-12 0c1,0 2,1 3,3 0,1 1,2 1,4 0,3 -1,5 -3,7 -2,2 -5,2 -9,3 1,2 2,4 4,5 1,2 4,3 7,3 2,0 4,-1 5,-2 2,0 3,-1 4,-2l0 -21z"/>
   <path id="124" class="fil3" d="M960 652c1,0 2,-1 3,-1 2,0 3,0 4,0 3,0 6,1 8,2 3,2 5,4 6,7l5 10 -4 0 -5 -8c-1,-1 -1,-2 -2,-2 -1,-1 -1,-2 -2,-2 -1,-1 -2,-1 -3,-2 -1,0 -2,0 -3,0 -1,0 -2,0 -3,0 0,1 -1,1 -2,1l-2 -5z"/>
   <path id="125" class="fil3" d="M1004 711c-3,0 -4,0 -6,-2 -1,-1 -2,-2 -2,-3 0,-1 1,-2 1,-3 1,0 2,-1 3,-1l5 5c2,0 4,0 5,0 2,0 4,-1 5,-1 1,-1 2,-1 3,-2 0,-1 1,-2 1,-3 0,-3 -3,-5 -7,-5 -2,0 -3,0 -5,1 -1,0 -3,0 -5,1 -1,-1 -2,-2 -2,-2 -1,-1 -2,-2 -3,-3 0,-1 -1,-2 -1,-3 0,-1 -1,-2 -1,-3 0,-1 1,-2 1,-3 1,-1 1,-2 2,-3 1,0 2,-1 4,-1 1,-1 2,-1 4,-1l9 0 0 -6 -23 0 0 -5 21 0 0 0c0,-1 -1,-1 -1,-2 -1,0 -1,-1 -2,-2 0,0 0,-1 -1,-2 0,-1 0,-2 0,-3 0,-1 0,-3 1,-4 0,-1 1,-2 2,-3 1,-1 2,-1 3,-2 2,0 3,-1 4,-1 2,0 3,1 4,1 1,0 2,1 3,1l-1 4c-2,0 -3,-1 -5,-1 -1,0 -3,1 -4,2 -1,1 -1,2 -1,4 0,1 0,2 0,3 0,0 1,1 1,2 0,1 1,1 1,2 1,0 1,1 1,1l10 0 0 5 -8 0 0 11 -13 0c-1,0 -3,0 -4,1 -1,0 -2,1 -2,3 0,2 1,3 2,5 2,-1 3,-1 5,-1 1,0 3,0 4,0 2,0 4,0 6,0 1,1 2,1 3,2 1,1 2,2 3,3 0,1 0,3 0,4 0,2 0,3 -1,4 -1,2 -2,3 -3,4 -2,0 -3,1 -5,2 -2,0 -4,0 -7,1l8 7 -4 3 -8 -11z"/>
   <path id="126" class="fil3" d="M1050 688c-1,-1 -2,-2 -3,-2 -1,-1 -2,-1 -3,-1 -2,0 -4,1 -6,2 -1,1 -2,3 -2,6 0,2 1,4 1,5 1,2 2,3 3,4 1,1 2,3 3,4 2,1 3,1 5,2l-3 4c-2,-1 -4,-2 -6,-3 -1,-2 -3,-3 -4,-5 -1,-1 -2,-3 -3,-5 -1,-2 -1,-4 -1,-6 0,-2 0,-4 1,-6 1,-1 1,-3 3,-4 1,-1 2,-1 4,-2 1,0 3,0 4,0 2,0 4,0 5,1 2,0 3,1 4,2 1,-1 2,-2 4,-2 1,-1 2,-1 4,-1 1,0 2,0 2,0 1,0 2,0 2,0l0 -8 -37 0 0 -5 49 0 0 5 -6 0 0 39 -6 0 0 -26c0,0 -1,-1 -1,-1 -1,0 -1,0 -2,0 -2,0 -4,1 -5,3 -1,2 -2,5 -2,9l-5 0c0,-2 0,-4 0,-6 1,-1 1,-2 1,-3z"/>
   <path id="127" class="fil3" d="M1079 708c0,-1 0,-2 1,-3 1,-1 2,-1 3,-1 1,0 2,0 3,1 1,1 1,2 1,3 0,1 0,2 -1,3 -1,1 -2,1 -3,1 -1,0 -2,0 -3,-1 -1,-1 -1,-2 -1,-3z"/>
   <polygon id="128" class="fil3" points="169,794 173,794 173,838 167,838 167,801 160,804 158,799 "/>
   <path id="129" class="fil3" d="M265 778c0,1 -1,3 -1,4 -1,2 -2,3 -3,4 -1,1 -2,1 -4,2 -1,0 -2,0 -4,0 -1,0 -3,0 -4,0 -1,-1 -3,-2 -4,-2 -1,-1 -2,-2 -2,-4 -1,-1 -1,-3 -1,-4l5 0c0,2 1,3 2,4 1,1 2,2 4,2 2,0 3,-1 5,-2 1,-1 1,-3 1,-4l6 0zm-56 19c2,-1 3,-2 5,-2 2,-1 3,-1 5,-1 2,0 4,0 5,0 2,1 3,2 4,3 1,0 2,2 3,3 1,1 1,3 1,5 0,2 -1,4 -2,5 -1,2 -2,3 -3,4 1,0 2,0 4,1 1,0 3,0 4,0 1,0 2,0 4,-1 1,0 3,0 3,-1l0 -14 -6 0 0 -5 34 0 0 5 -6 0 0 39 -5 0 0 -39 -11 0 0 39 -6 0 0 -20c-1,1 -3,2 -6,2 -1,0 -2,-1 -2,-1 -1,0 -2,0 -4,-1l0 0c1,1 2,2 2,3 1,2 1,3 1,4 0,4 -1,7 -4,9 -2,2 -6,3 -10,3 -1,0 -2,0 -3,0 -1,-1 -2,-1 -3,-1 -1,-1 -2,-1 -3,-1 -1,-1 -1,-1 -2,-2l2 -4c2,1 3,2 4,2 2,1 3,1 5,1 1,0 2,0 3,0 1,0 2,-1 3,-1 1,-1 1,-2 2,-3 0,-1 0,-2 0,-3 0,-3 0,-4 -2,-6 -1,-1 -4,-2 -7,-2l-4 0 0 -5 3 0c3,1 5,0 7,-1 2,-2 2,-4 2,-6 0,-2 0,-4 -2,-5 -1,-1 -3,-2 -5,-2 -1,0 -2,1 -4,1 -1,0 -2,1 -3,2l-3 -4z"/>
   <path id="130" class="fil3" d="M293 814c-1,-2 -2,-3 -3,-3 -2,-1 -3,-1 -4,-1 -1,0 -2,0 -3,1 -1,0 -2,0 -3,1 0,1 -1,1 -1,2 -1,1 -1,2 -1,4 0,2 1,4 2,5 1,2 3,3 5,3 1,0 2,-1 3,-1 1,0 2,-1 3,-1 1,-1 1,-2 2,-3 0,-1 0,-2 0,-4l0 -3zm18 -2c-1,-1 -2,-2 -4,-2 -3,0 -5,1 -7,3 -1,2 -2,4 -2,6l0 19 -5 0 0 -11c-1,1 -2,2 -3,2 -2,1 -3,1 -5,1 -2,0 -3,0 -5,-1 -1,0 -3,-1 -4,-2 -1,-1 -2,-3 -3,-4 0,-2 -1,-4 -1,-6 0,-2 1,-3 1,-5 1,-1 2,-3 3,-4 1,-1 3,-1 4,-2 1,0 3,0 5,0 3,0 6,1 8,3l0 -10 -24 0 0 -5 39 0 0 5 -10 0 0 11c1,-1 2,-2 4,-3 2,-1 3,-1 5,-1 3,0 6,1 8,2l-4 4z"/>
   <path id="131" class="fil3" d="M338 835c-2,1 -4,2 -6,2 -2,1 -5,1 -7,1 -2,0 -4,0 -7,-1 -2,0 -3,-1 -5,-3 -2,-1 -3,-3 -4,-4 -1,-2 -1,-5 -1,-7 0,-4 1,-7 3,-9 2,-3 5,-4 9,-5l8 -2 0 -8 -24 0 0 -5 37 0 0 5 -8 0 0 13 -8 1c-2,1 -3,1 -5,2 -1,0 -2,1 -3,2 -1,1 -2,1 -3,2 0,2 -1,3 -1,4 0,2 1,3 1,5 1,1 2,2 3,3 1,1 2,1 3,2 2,0 3,0 5,0 1,0 3,0 5,0 2,-1 4,-2 6,-3l2 5z"/>
   <path id="132" class="fil3" d="M323 778c1,0 2,0 3,-1 1,0 3,0 4,0 3,0 6,1 8,2 3,2 4,4 6,7l4 8 8 0 0 5 -6 0 0 39 -5 0 0 -39 -6 0 0 -5 5 0 -4 -6c-1,-1 -2,-1 -2,-2 -1,-1 -2,-2 -2,-2 -1,-1 -2,-1 -3,-1 -1,-1 -2,-1 -3,-1 -1,0 -2,0 -3,1 0,0 -1,0 -2,0l-2 -5z"/>
   <path id="133" class="fil3" d="M372 805c3,0 5,1 6,1 2,1 3,2 4,3l0 -10 -27 0 0 -5 39 0 0 5 -6 0 0 39 -6 0 0 -11c0,1 -2,2 -3,3 -2,0 -4,1 -6,1 -2,0 -4,-1 -6,-1 -1,-1 -3,-2 -4,-3 -2,-1 -3,-2 -3,-4 -1,-1 -2,-3 -2,-6 0,-1 1,-3 1,-5 1,-1 2,-2 3,-3 2,-1 3,-2 5,-3 1,0 3,-1 5,-1zm-8 13c0,1 0,3 1,4 0,1 1,2 2,2 1,1 2,1 3,2 1,0 2,0 3,0 1,0 2,0 4,0l-10 -14c-2,1 -3,3 -3,6zm18 -4c-1,-1 -2,-2 -3,-3 -2,-1 -4,-1 -6,-1 -1,0 -2,0 -3,0l10 14c1,-1 1,-1 2,-2 0,-1 0,-2 0,-3l0 -5z"/>
   <path id="134" class="fil3" d="M415 835l-4 4 -14 -20c-1,-1 -1,-2 -1,-2 -1,-1 -1,-2 -1,-2 0,-1 1,-2 1,-2 1,-1 2,-1 3,-1l1 2c1,1 2,1 2,1 1,1 2,1 2,1 2,0 4,-1 5,-2 1,-2 2,-4 2,-6 0,-2 0,-4 -1,-5 -1,-2 -1,-3 -2,-4l-15 0 0 -5 29 0 0 5 -9 0c1,1 2,2 2,4 1,1 1,3 1,5 0,2 0,4 0,5 -1,2 -2,3 -3,4 -1,1 -2,2 -3,2 -2,1 -3,1 -5,1 0,0 0,0 0,0 -1,0 -1,0 -1,0l11 15z"/>
   <path id="135" class="fil3" d="M464 799c-1,0 -3,0 -4,0 -1,1 -3,2 -4,3l-3 -4c2,-2 4,-3 6,-3 2,-1 3,-1 5,-1 3,0 5,0 6,1 2,0 3,1 5,2 1,2 2,3 2,5 1,1 1,3 1,5 0,1 0,3 -1,5 -1,1 -2,3 -3,5 -1,2 -3,4 -5,6 -1,2 -3,4 -6,6l-4 4 20 0 0 5 -26 0 -1 -4 6 -6c2,-3 4,-5 6,-7 2,-2 3,-4 4,-5 2,-2 2,-4 3,-5 1,-1 1,-3 1,-4 0,-2 -1,-4 -2,-6 -1,-2 -3,-2 -6,-2z"/>
   <path id="136" class="fil3" d="M502 794c2,0 5,0 7,1 2,1 3,2 5,4 2,2 3,4 4,7 0,3 1,6 1,10 0,4 -1,7 -2,10 0,3 -2,5 -3,7 -2,2 -4,3 -6,4 -2,1 -4,1 -6,1 -3,0 -5,0 -7,-1 -2,-1 -4,-2 -5,-4 -2,-2 -3,-4 -4,-7 -1,-3 -1,-6 -1,-10 0,-4 0,-7 1,-10 1,-3 3,-5 4,-7 2,-2 3,-3 5,-4 3,-1 5,-1 7,-1zm-11 22c0,4 1,7 1,9 1,2 2,4 3,5 1,2 2,3 3,3 1,0 3,1 4,1 1,0 3,-1 4,-1 1,-1 2,-2 3,-3 1,-1 2,-3 3,-5 0,-3 0,-5 0,-9 0,-3 0,-6 0,-9 -1,-2 -2,-4 -3,-5 -1,-1 -2,-2 -3,-3 -1,0 -3,0 -4,0 -2,0 -3,0 -4,0 -1,1 -3,2 -3,3 -1,1 -2,3 -3,6 0,2 -1,5 -1,8z"/>
   <path id="137" class="fil3" d="M537 799c-1,0 -3,0 -4,0 -1,1 -3,2 -4,3l-3 -4c2,-2 4,-3 6,-3 2,-1 3,-1 5,-1 3,0 5,0 6,1 2,0 4,1 5,2 1,2 2,3 2,5 1,1 1,3 1,5 0,1 0,3 -1,5 -1,1 -2,3 -3,5 -1,2 -3,4 -4,6 -2,2 -4,4 -7,6l-4 4 20 0 0 5 -26 0 -1 -4 6 -6c2,-3 4,-5 6,-7 2,-2 3,-4 5,-5 1,-2 2,-4 2,-5 1,-1 1,-3 1,-4 0,-2 -1,-4 -2,-6 -1,-2 -3,-2 -6,-2z"/>
   <path id="138" class="fil3" d="M571 799c-2,0 -3,0 -5,0 -1,1 -2,2 -4,3l-3 -4c2,-2 4,-3 6,-3 2,-1 4,-1 6,-1 2,0 4,0 6,1 1,0 3,1 4,2 1,2 2,3 3,5 0,1 0,3 0,5 0,1 0,3 -1,5 0,1 -1,3 -3,5 -1,2 -2,4 -4,6 -2,2 -4,4 -6,6l-4 4 19 0 0 5 -26 0 -1 -4 6 -6c2,-3 5,-5 6,-7 2,-2 4,-4 5,-5 1,-2 2,-4 2,-5 1,-1 1,-3 1,-4 0,-2 0,-4 -2,-6 -1,-2 -3,-2 -5,-2z"/>
   <path id="139" class="fil3" d="M651 799l-6 0 0 39 -5 0 0 -17c-1,1 -2,2 -3,2 -2,1 -3,1 -5,1 -2,0 -4,0 -5,-1 -1,0 -3,-1 -4,-2 -1,-1 -2,-2 -2,-3 -1,-2 -1,-4 -1,-5l0 -14 -5 0 0 -5 36 0 0 5zm-26 13c0,3 1,4 2,6 1,1 3,1 5,1 2,0 3,0 5,-1 1,-1 2,-2 3,-3l0 -16 -15 0 0 13z"/>
   <polygon id="140" class="fil3" points="656,799 650,799 650,794 668,794 668,799 662,799 662,838 656,838 "/>
   <path id="141" class="fil3" d="M689 835l-5 4 -13 -20c-1,-1 -1,-2 -1,-2 -1,-1 -1,-2 -1,-2 0,-1 1,-2 1,-2 1,-1 2,-1 3,-1l1 2c1,1 2,1 2,1 1,1 1,1 2,1 2,0 4,-1 5,-2 1,-2 2,-4 2,-6 0,-2 0,-4 -1,-5 -1,-2 -2,-3 -2,-4l-15 0 0 -5 47 0 0 5 -6 0 0 39 -6 0 0 -18c-1,1 -4,1 -7,1 -2,0 -4,0 -5,0 -2,-1 -3,-2 -4,-3 -2,2 -4,2 -7,2 0,0 0,0 0,0 -1,0 -1,0 -1,0l11 15zm5 -18c2,0 4,-1 5,-1 1,-1 2,-1 3,-2l0 -15 -15 0c1,1 2,2 2,4 1,1 1,3 1,5 0,3 0,5 -2,7 1,1 2,1 3,1 1,0 2,1 3,1z"/>
   <path id="142" class="fil3" d="M694 846c0,-3 1,-5 2,-7 2,-1 5,-2 8,-2 2,0 4,0 6,1 2,1 4,2 5,3 2,2 3,3 5,5 1,2 2,4 4,7l-5 2c-1,-2 -2,-4 -3,-5 -1,-2 -2,-3 -3,-5 -1,-1 -3,-2 -4,-3 -1,0 -3,-1 -4,-1 -2,0 -4,1 -5,2 -1,1 -1,2 -1,3 0,2 0,3 1,4 1,0 3,1 4,1 1,0 1,0 2,0 0,0 0,-1 1,-1l2 4c-1,1 -2,1 -2,1 -1,0 -2,0 -3,0 -2,0 -3,0 -4,0 -2,-1 -3,-2 -4,-2 0,-1 -1,-2 -2,-3 0,-1 0,-3 0,-4z"/>
   <path id="143" class="fil3" d="M739 812l0 -13 -26 0 0 -5 38 0 0 5 -7 0 0 39 -5 0 0 -21 -14 0 1 5c0,1 -1,1 -1,1 -1,0 -2,1 -3,1 -1,0 -3,-1 -4,-2 -1,-2 -2,-3 -2,-5 0,-1 0,-3 1,-3 1,-1 2,-2 4,-2l18 0z"/>
   <path id="144" class="fil3" d="M780 797c1,-1 2,-2 4,-2 2,-1 4,-1 5,-1 2,0 4,0 5,0 2,1 3,2 4,3 2,0 3,2 3,3 1,1 1,3 1,5 0,2 0,4 -1,5 -1,2 -3,3 -4,4 1,0 3,0 4,1 2,0 3,0 4,0 1,0 3,0 4,-1 2,0 3,0 4,-1l0 -14 -7 0 0 -5 35 0 0 5 -7 0 0 39 -5 0 0 -39 -11 0 0 39 -5 0 0 -20c-2,1 -4,2 -6,2 -1,0 -2,-1 -3,-1 -1,0 -2,0 -3,-1l0 0c0,1 1,2 1,3 1,2 1,3 1,4 0,4 -1,7 -4,9 -2,2 -5,3 -9,3 -1,0 -2,0 -4,0 -1,-1 -2,-1 -3,-1 -1,-1 -2,-1 -2,-1 -1,-1 -2,-1 -3,-2l3 -4c1,1 2,2 4,2 1,1 3,1 4,1 1,0 2,0 3,0 1,0 2,-1 3,-1 1,-1 1,-2 2,-3 0,-1 1,-2 1,-3 0,-3 -1,-4 -3,-6 -1,-1 -3,-2 -7,-2l-4 0 0 -5 4 0c2,1 5,0 6,-1 2,-2 3,-4 3,-6 0,-2 -1,-4 -3,-5 -1,-1 -3,-2 -5,-2 -1,0 -2,1 -3,1 -2,0 -3,1 -4,2l-2 -4z"/>
   <path id="145" class="fil3" d="M876 799l-7 0 0 39 -5 0 0 -17c-1,1 -2,2 -3,2 -2,1 -3,1 -5,1 -2,0 -3,0 -5,-1 -1,0 -3,-1 -4,-2 -1,-1 -2,-2 -2,-3 -1,-2 -1,-4 -1,-5l0 -14 -5 0 0 -5 37 0 0 5zm-27 13c0,3 1,4 2,6 1,1 3,1 5,1 2,0 3,0 5,-1 1,-1 2,-2 3,-3l0 -16 -15 0 0 13z"/>
   <path id="146" class="fil3" d="M874 799l0 -5 49 0 0 5 -6 0 0 39 -5 0 0 -39 -10 0 0 15c0,2 0,4 -1,6 0,1 -1,2 -2,3 -1,1 -2,2 -4,3 -1,0 -3,0 -4,0 -4,0 -7,-1 -9,-3 -2,-2 -3,-5 -3,-9l0 -15 -5 0zm11 15c0,3 0,5 1,6 1,1 3,2 5,2 2,0 3,-1 4,-2 1,-1 2,-3 2,-6l0 -15 -12 0 0 15z"/>
   <path id="147" class="fil3" d="M983 799l0 39 -5 0 0 -12c-1,0 -2,1 -4,2 -1,0 -3,0 -6,0 -2,0 -4,0 -6,-1 -1,0 -3,-1 -5,-3 -1,-1 -2,-3 -3,-5 -1,-2 -2,-4 -2,-7l2 0c4,0 6,-1 8,-2 1,-1 2,-3 2,-5 0,-1 -1,-2 -1,-3 -1,-1 -1,-2 -2,-3l-12 0 0 -5 40 0 0 5 -6 0zm-5 0l-12 0c1,1 2,2 2,3 1,1 1,2 1,4 0,3 -1,5 -3,7 -2,2 -5,3 -8,3 0,2 1,4 3,6 2,1 5,2 8,2 1,0 3,-1 5,-1 2,-1 3,-2 4,-3l0 -21z"/>
   <polygon id="148" class="fil3" points="994,799 988,799 988,794 1006,794 1006,799 999,799 999,838 994,838 "/>
   <path id="149" class="fil3" d="M1007 811l0 -4 23 0 0 4 -2 0c-3,0 -5,1 -6,2 -2,1 -2,3 -2,5 0,1 0,2 0,3 1,1 1,1 2,2 1,0 2,1 2,1 1,0 2,0 3,0 2,0 4,0 6,-1 2,-1 3,-2 4,-3l0 -21 -33 0 0 -5 45 0 0 5 -6 0 0 39 -6 0 0 -13c0,1 -1,1 -1,2 -1,0 -2,0 -3,1 0,0 -1,1 -3,1 -1,0 -2,0 -3,0 -2,0 -4,0 -5,-1 -2,0 -3,-1 -4,-2 -1,-1 -2,-2 -3,-4 -1,-1 -1,-2 -1,-4 0,-2 0,-3 1,-4 1,-2 2,-2 3,-3l-11 0z"/>
   <path id="150" class="fil3" d="M1125 778c0,1 0,3 -1,4 -1,2 -2,3 -3,4 -1,1 -2,1 -3,2 -2,0 -3,0 -4,0 -2,0 -3,0 -5,0 -1,-1 -2,-2 -3,-2 -1,-1 -2,-2 -3,-4 0,-1 -1,-3 -1,-4l5 0c1,2 1,3 2,4 1,1 3,2 5,2 1,0 3,-1 4,-2 1,-1 2,-3 2,-4l5 0zm-47 19c1,-1 3,-2 5,-2 1,-1 3,-1 5,-1 2,0 3,0 5,0 1,1 3,2 4,3 1,0 2,2 3,3 0,1 1,3 1,5 0,2 -1,4 -2,5 -1,2 -2,3 -3,4 1,0 2,0 4,1 1,0 2,0 3,0 2,0 3,0 5,-1 1,0 2,0 3,-1l0 -14 -6 0 0 -5 18 0 0 5 -7 0 0 39 -5 0 0 -20c-2,1 -4,2 -6,2 -1,0 -2,-1 -3,-1 -1,0 -2,0 -3,-1l0 0c1,1 1,2 2,3 0,2 1,3 1,4 0,4 -2,7 -4,9 -3,2 -6,3 -10,3 -1,0 -2,0 -3,0 -1,-1 -2,-1 -3,-1 -1,-1 -2,-1 -3,-1 -1,-1 -2,-1 -2,-2l2 -4c1,1 3,2 4,2 1,1 3,1 5,1 1,0 2,0 3,0 1,0 2,-1 2,-1 1,-1 2,-2 2,-3 1,-1 1,-2 1,-3 0,-3 -1,-4 -2,-6 -2,-1 -4,-2 -7,-2l-5 0 0 -5 4 0c3,1 5,0 7,-1 1,-2 2,-4 2,-6 0,-2 -1,-4 -2,-5 -2,-1 -3,-2 -5,-2 -1,0 -3,1 -4,1 -1,0 -2,1 -4,2l-2 -4z"/>
   <path id="151" class="fil3" d="M1158 799l-6 0 0 39 -6 0 0 -17c0,1 -2,2 -3,2 -1,1 -3,1 -5,1 -2,0 -3,0 -4,-1 -2,0 -3,-1 -4,-2 -1,-1 -2,-2 -3,-3 -1,-2 -1,-4 -1,-5l0 -14 -5 0 0 -5 37 0 0 5zm-26 13c0,3 0,4 1,6 1,1 3,1 5,1 2,0 4,0 5,-1 2,-1 3,-2 3,-3l0 -16 -14 0 0 13z"/>
   <path id="152" class="fil3" d="M168 879l0 17 14 0 0 -17 -14 0zm0 27c-1,0 -1,0 -2,1 0,0 -1,0 -2,0 -1,0 -2,0 -2,-1 -1,0 -2,0 -3,-1 0,-1 -1,-1 -1,-2 -1,-1 -1,-2 -1,-3 0,-1 1,-2 1,-3 1,0 2,-1 3,-1l1 0 0 -17 -8 0 0 -4 39 0 0 4 -6 0 0 39 -5 0 0 -17 -14 0 0 5z"/>
   <path id="153" class="fil3" d="M251 879l0 39 -5 0 0 -12c-1,1 -2,1 -4,2 -1,1 -3,1 -6,1 -3,0 -6,-1 -9,-3 -1,1 -2,2 -3,2 -1,1 -2,2 -4,2 -1,1 -2,1 -4,1 -1,1 -3,1 -5,1 -4,0 -8,-1 -10,-3 -3,-2 -4,-5 -4,-8 0,-2 0,-3 2,-5 1,-1 2,-2 4,-2 -1,0 -2,-1 -2,-2 -1,0 -2,-1 -3,-2 0,-1 -1,-2 -1,-3 -1,-1 -1,-2 -1,-3 0,-2 0,-3 1,-4 0,-1 1,-2 2,-3 0,-1 1,-2 3,-2 1,-1 2,-1 4,-1 2,0 3,0 4,1 2,0 3,1 4,2 0,0 1,1 1,2 1,2 1,3 1,4 0,1 0,3 -1,4 -1,1 -2,2 -3,2l-3 -3c0,0 1,-1 1,-1 1,-1 1,-2 1,-2 0,-2 -1,-3 -1,-3 -1,-1 -2,-2 -4,-2 -1,0 -2,1 -3,2 -1,1 -2,2 -2,4 0,1 1,2 1,4 1,1 2,2 2,2 1,1 2,2 4,2 1,0 2,1 4,1l3 0 0 4 -6 0c-2,0 -4,0 -5,1 -1,1 -1,2 -1,3 0,2 0,3 2,4 1,1 3,2 6,2 3,0 5,-1 7,-1 2,-1 4,-2 5,-4 0,-1 -1,-2 -2,-4 0,-2 -1,-4 -1,-6l2 0c4,0 6,-1 8,-2 1,-1 2,-2 2,-4 0,-2 -1,-3 -1,-4 -1,-1 -1,-2 -2,-3l-8 0 0 -4 36 0 0 4 -6 0zm-5 0l-12 0c1,1 2,2 2,3 1,1 1,3 1,4 0,3 -1,6 -3,7 -2,2 -5,3 -8,3 0,3 1,5 3,6 2,1 5,2 8,2 1,0 3,0 5,-1 2,-1 3,-2 4,-3l0 -21z"/>
   <path id="154" class="fil3" d="M224 859c1,-1 2,-1 3,-1 1,-1 3,-1 4,-1 3,0 6,1 8,3 3,2 4,4 6,7l5 10 -4 0 -5 -8c-1,-1 -2,-2 -2,-3 -1,-1 -2,-1 -2,-2 -1,0 -2,-1 -3,-1 -1,0 -2,0 -3,0 -1,0 -2,0 -3,0 -1,0 -1,0 -2,1l-2 -5z"/>
   <path id="155" class="fil3" d="M305 886c2,0 5,0 6,1 2,1 3,2 4,3l0 -11 -27 0 0 -4 39 0 0 4 -6 0 0 39 -6 0 0 -11c-1,1 -2,2 -3,3 -2,1 -4,1 -7,1 -2,0 -3,0 -5,-1 -2,0 -3,-1 -4,-2 -2,-1 -3,-3 -3,-4 -1,-2 -1,-4 -1,-6 0,-2 0,-4 1,-5 0,-2 1,-3 2,-4 2,-1 3,-2 5,-2 1,-1 3,-1 5,-1zm10 9c-1,-1 -2,-2 -3,-3 -2,-1 -4,-2 -6,-2 -3,0 -5,1 -6,2 -2,2 -3,3 -3,6 0,3 1,5 3,7 1,1 4,1 6,1 2,0 3,0 4,0 1,-1 2,-1 3,-2 0,0 1,-1 1,-2 1,-1 1,-2 1,-3l0 -4z"/>
   <path id="156" class="fil3" d="M357 875l11 0 0 4 -6 0 0 39 -5 0 0 -10c-2,1 -3,2 -5,3 -3,0 -5,1 -8,1 -2,0 -4,-1 -6,-1 -1,-1 -3,-1 -4,-2 -1,-1 -2,-2 -3,-4 -1,-1 -1,-3 -1,-4 0,-2 1,-3 2,-5 1,-1 3,-2 4,-2 0,0 -1,-1 -2,-2 -1,0 -2,-1 -2,-2 -1,-1 -2,-2 -2,-3 -1,-1 -1,-2 -1,-3 0,-2 0,-3 1,-4 0,-1 1,-2 2,-3 1,-1 2,-2 3,-2 1,-1 3,-1 4,-1 2,0 3,0 5,1 1,0 2,1 3,2 1,0 1,1 2,2 0,2 0,3 0,4 0,1 0,3 -1,4 -1,1 -2,2 -3,2l-3 -3c1,0 1,-1 2,-1 0,-1 0,-2 0,-2 0,-2 0,-3 -1,-3 -1,-1 -2,-2 -3,-2 -2,0 -3,1 -4,2 -1,1 -1,2 -1,4 0,1 0,2 1,4 0,1 1,2 2,2 1,1 2,2 3,2 1,0 3,1 4,1l3 0 0 4 -6 0c-2,0 -3,0 -5,1 -1,1 -1,2 -1,3 0,2 1,3 2,4 1,1 4,2 6,2 3,0 5,0 7,-1 2,-1 4,-2 6,-4l0 -27z"/>
   <path id="157" class="fil3" d="M353 920c1,-1 2,-1 3,-2 2,-1 3,-1 5,-1 3,0 6,1 7,3 2,2 3,4 3,7 0,3 -1,5 -3,7 -2,2 -5,3 -9,3 -4,0 -7,-1 -10,-3 -3,-1 -6,-4 -8,-7l4 -3c2,3 4,5 6,6 3,2 5,2 7,2 3,0 4,0 6,-1 1,-1 1,-3 1,-5 0,-1 0,-2 -1,-3 -1,-1 -2,-1 -3,-1 -1,0 -2,0 -3,0 -1,1 -2,1 -2,2l-3 -4z"/>
   <polygon id="158" class="fil3" points="387,895 387,901 372,901 372,895 "/>
   <path id="159" class="fil3" d="M407 886c2,0 4,0 6,1 1,1 3,2 4,3l0 -11 -27 0 0 -4 38 0 0 4 -6 0 0 39 -5 0 0 -11c-1,1 -2,2 -4,3 -1,1 -4,1 -6,1 -2,0 -4,0 -5,-1 -2,0 -4,-1 -5,-2 -1,-1 -2,-3 -3,-4 -1,-2 -1,-4 -1,-6 0,-2 0,-4 1,-5 1,-2 2,-3 3,-4 1,-1 3,-2 4,-2 2,-1 4,-1 6,-1zm10 9c-1,-1 -2,-2 -4,-3 -2,-1 -3,-2 -5,-2 -3,0 -5,1 -7,2 -1,2 -2,3 -2,6 0,3 1,5 2,7 2,1 4,1 7,1 1,0 2,0 3,0 1,-1 2,-1 3,-2 1,0 2,-1 2,-2 0,-1 1,-2 1,-3l0 -4z"/>
   <path id="160" class="fil3" d="M450 916l-5 3 -13 -20c-1,-1 -2,-2 -2,-2 0,-1 0,-1 0,-2 0,-1 0,-1 1,-2 0,0 1,-1 2,-1l2 2c0,1 1,1 1,2 1,0 2,0 3,0 2,0 3,-1 4,-2 2,-1 2,-3 2,-6 0,-2 0,-4 -1,-5 0,-2 -1,-3 -2,-4l-15 0 0 -4 30 0 0 4 -10 0c1,1 2,2 3,4 0,2 1,3 1,6 0,1 -1,3 -1,5 -1,1 -1,2 -2,3 -1,1 -3,2 -4,3 -1,0 -3,1 -5,1 0,0 0,0 0,0 0,0 0,0 -1,0l12 15z"/>
   <path id="161" class="fil3" d="M506 919c-1,0 -3,0 -4,-1 -1,0 -3,-1 -3,-1l0 17 -6 0 0 -49 5 0 0 4c2,-1 3,-2 5,-2 1,-1 3,-2 5,-2 5,0 8,2 10,4 3,3 4,7 4,12 0,3 0,6 -1,8 -1,2 -2,4 -4,6 -1,1 -3,2 -5,3 -2,0 -4,1 -6,1zm1 -29c-2,0 -4,1 -5,2 -2,1 -3,2 -3,3l0 17c1,1 2,1 3,2 1,0 2,0 3,0 2,0 3,0 4,-1 1,0 3,-1 4,-2 1,-1 1,-2 2,-4 0,-1 1,-3 1,-6 0,-3 -1,-6 -2,-8 -2,-2 -4,-3 -7,-3z"/>
   <path id="162" class="fil3" d="M533 918l0 -32 5 0 1 6c0,-2 2,-4 3,-5 2,-1 4,-2 7,-2 1,0 2,0 3,1 0,0 1,0 2,0l-1 6c-1,-1 -2,-1 -2,-1 -1,0 -2,0 -3,0 -1,0 -2,0 -3,0 -1,1 -2,1 -3,2 -1,1 -2,2 -2,4 -1,1 -1,3 -1,4l0 17 -6 0z"/>
   <path id="163" class="fil3" d="M591 902c0,2 -1,5 -2,7 0,2 -2,4 -3,5 -2,2 -3,3 -5,4 -2,0 -4,1 -6,1 -3,0 -5,-1 -7,-1 -2,-1 -3,-2 -5,-3 -1,-2 -2,-4 -3,-6 -1,-2 -1,-4 -1,-7 0,-2 0,-5 1,-7 1,-2 2,-4 4,-5 1,-2 3,-3 5,-4 2,0 4,-1 6,-1 2,0 4,1 6,1 2,1 4,2 5,3 1,2 3,4 3,6 1,2 2,4 2,7zm-7 0c0,-2 0,-4 -1,-6 0,-1 -1,-2 -2,-3 -1,-1 -2,-2 -3,-2 -1,-1 -2,-1 -3,-1 -2,0 -3,0 -4,1 -1,0 -2,1 -3,1 -1,1 -1,3 -2,4 -1,2 -1,4 -1,6 0,2 0,4 1,6 1,1 1,2 2,3 1,1 2,2 3,2 1,1 3,1 4,1 1,0 2,0 3,0 1,-1 2,-2 3,-2 1,-1 2,-3 2,-4 1,-2 1,-4 1,-6z"/>
   <path id="164" class="fil3" d="M623 918l0 -28 -14 0 0 28 -6 0 0 -28 -5 0 0 -4 5 0 0 -4c0,-2 0,-4 1,-5 1,-2 2,-3 3,-4 1,-2 2,-3 4,-3 2,-1 4,-1 6,-1 1,0 2,0 4,0 2,1 3,1 4,2l-1 4c-1,0 -2,-1 -3,-1 -1,0 -2,0 -3,0 -3,0 -5,0 -7,2 -1,1 -2,3 -2,7l0 3 20 0 0 32 -6 0z"/>
   <polygon id="165" class="fil3" points="642,918 642,869 648,869 648,918 "/>
   <path id="166" class="fil3" d="M689 903l-23 0 0 0c0,4 1,6 3,8 2,2 4,3 8,3 1,0 3,0 4,0 2,-1 3,-1 5,-2l1 5c-1,0 -3,1 -5,1 -2,1 -4,1 -6,1 -2,0 -4,0 -6,-1 -2,-1 -4,-2 -6,-3 -1,-1 -2,-3 -3,-5 -1,-2 -2,-5 -2,-8 0,-2 1,-5 1,-7 1,-2 2,-4 4,-5 1,-2 3,-3 5,-4 2,0 4,-1 6,-1 2,0 4,1 6,1 2,1 3,2 4,3 1,1 2,3 3,5 1,1 1,3 1,5l0 4zm-6 -5c0,-1 -1,-2 -1,-3 0,-1 -1,-2 -1,-3 -1,-1 -2,-1 -3,-2 -1,0 -2,0 -3,0 -3,0 -5,0 -6,2 -2,2 -3,4 -3,6l17 0z"/>
   <path id="167" class="fil3" d="M762 902c0,3 0,5 -1,7 -1,2 -2,4 -3,5 -2,2 -3,3 -5,4 -2,0 -4,1 -6,1 -2,0 -4,0 -5,-1 -2,-1 -3,-2 -5,-3l0 0 -1 3 -4 0 0 -49 6 0 0 21c2,-2 3,-3 5,-4 2,0 4,-1 5,-1 5,0 8,2 10,5 3,3 4,7 4,12zm-6 0c0,-4 -1,-6 -3,-9 -1,-2 -3,-3 -6,-3 -2,0 -3,1 -5,1 -1,1 -3,2 -4,4l0 15c1,2 2,2 3,3 2,1 3,1 5,1 1,0 2,0 3,-1 2,0 3,-1 4,-2 0,-1 1,-2 2,-3 0,-2 1,-4 1,-6z"/>
   <path id="168" class="fil3" d="M773 918l0 -32 4 0 1 6c1,-2 3,-4 4,-5 2,-1 4,-2 7,-2 1,0 2,0 2,1 1,0 2,0 3,0l-2 6c0,-1 -1,-1 -1,-1 -1,0 -2,0 -3,0 -1,0 -2,0 -3,0 -2,1 -3,1 -3,2 -1,1 -2,2 -2,4 -1,1 -1,3 -1,4l0 17 -6 0z"/>
   <path id="169" class="fil3" d="M830 902c0,2 0,5 -1,7 -1,2 -2,4 -3,5 -2,2 -3,3 -5,4 -2,0 -4,1 -7,1 -2,0 -4,-1 -6,-1 -2,-1 -3,-2 -5,-3 -1,-2 -2,-4 -3,-6 -1,-2 -1,-4 -1,-7 0,-2 0,-5 1,-7 1,-2 2,-4 3,-5 2,-2 3,-3 5,-4 2,0 4,-1 7,-1 2,0 4,1 6,1 2,1 3,2 5,3 1,2 2,4 3,6 1,2 1,4 1,7zm-6 0c0,-2 0,-4 -1,-6 0,-1 -1,-2 -2,-3 -1,-1 -2,-2 -3,-2 -1,-1 -2,-1 -4,-1 -1,0 -2,0 -3,1 -1,0 -2,1 -3,1 -1,1 -2,3 -2,4 -1,2 -1,4 -1,6 0,2 0,4 1,6 0,1 1,2 2,3 1,1 2,2 3,2 1,1 2,1 4,1 1,0 2,0 3,0 1,-1 2,-2 3,-2 1,-1 2,-3 2,-4 1,-2 1,-4 1,-6z"/>
   <polygon id="170" class="fil3" points="837,886 844,886 849,906 851,913 851,913 852,906 858,886 864,886 870,906 872,913 872,913 873,906 879,886 885,886 875,918 868,918 863,898 861,890 859,898 854,918 847,918 "/>
   <path id="171" class="fil3" d="M912 892c-1,-1 -3,-1 -4,-2 -1,0 -2,0 -4,0 -2,0 -3,0 -4,1 -2,1 -2,2 -2,3 0,1 0,2 1,3 1,1 2,1 5,2l2 1c3,0 5,2 7,3 1,2 2,4 2,6 0,3 -1,5 -3,7 -2,2 -5,3 -9,3 -2,0 -4,0 -6,-1 -2,0 -4,-1 -5,-1l1 -5c2,1 3,1 5,2 1,0 3,0 4,0 2,0 4,0 5,-1 2,-1 2,-2 2,-4 0,-1 0,-2 -1,-3 -2,0 -3,-1 -5,-2l-2 0c-3,-1 -5,-2 -7,-4 -1,-1 -2,-3 -2,-6 0,-1 0,-2 1,-3 0,-1 1,-2 2,-3 1,-1 3,-2 4,-2 1,-1 3,-1 5,-1 1,0 3,0 5,1 1,0 3,1 5,1l-2 5z"/>
   <path id="172" class="fil3" d="M927 918l0 -32 6 0 0 32 -6 0zm3 -41c-1,0 -2,0 -3,-1 -1,0 -1,-1 -1,-2 0,-1 0,-2 1,-3 1,-1 2,-1 3,-1 1,0 2,0 3,1 0,1 1,2 1,3 0,1 -1,2 -1,2 -1,1 -2,1 -3,1z"/>
   <path id="173" class="fil3" d="M953 918l-6 0 0 -32 4 0 1 4c2,-1 4,-3 5,-3 2,-1 4,-2 6,-2 4,0 6,1 8,3 2,2 3,5 3,8l0 22 -6 0 0 -21c0,-2 -1,-4 -2,-5 -1,-1 -2,-2 -4,-2 -4,0 -7,2 -9,5l0 23z"/>
   <path id="174" class="fil3" d="M986 897c0,-2 1,-4 1,-5 1,-2 2,-3 3,-4 1,-1 3,-2 4,-2 2,0 4,-1 5,-1 1,0 2,0 2,0 1,0 2,1 2,1l14 0 0 4 -2 0 -5 -1c1,1 1,2 2,4 0,1 1,2 1,3 0,2 -1,4 -1,5 -1,2 -2,3 -3,4 -1,1 -3,2 -4,2 -2,0 -4,1 -6,1 -1,0 -2,0 -3,-1 -1,1 -2,1 -2,2 -1,0 -1,1 -1,2 0,1 0,1 1,2 1,0 2,0 3,0l8 0c4,0 7,1 9,3 2,1 3,4 3,6 0,2 -1,4 -2,5 0,2 -2,3 -3,4 -1,1 -3,2 -5,2 -2,1 -5,1 -7,1 -5,0 -9,-1 -11,-2 -3,-2 -5,-5 -5,-8 0,-2 1,-3 2,-4 1,-1 2,-2 4,-3 -1,0 -1,-1 -2,-2 0,-1 -1,-1 -1,-3 0,-1 1,-2 2,-3 1,-1 2,-2 3,-3 -2,-1 -3,-2 -4,-3 -1,-2 -2,-4 -2,-6zm8 21c-3,1 -4,3 -4,5 0,4 3,6 10,6 2,0 4,0 5,0 1,-1 2,-1 3,-2 1,0 2,-1 2,-2 0,0 1,-1 1,-2 0,-2 -1,-3 -2,-4 -2,0 -3,-1 -5,-1l-10 0zm12 -21c0,-3 0,-5 -2,-6 -1,-1 -2,-1 -5,-1 -2,0 -3,0 -5,1 -1,1 -1,3 -1,5 0,3 0,5 1,6 2,1 3,1 5,1 3,0 4,0 5,-1 2,-1 2,-3 2,-5z"/>
   <path id="175" class="fil3" d="M1079 894c-1,-1 -2,-2 -4,-3 -1,0 -2,0 -4,0 -1,0 -2,0 -3,0 0,0 -1,1 -2,1 -1,1 -1,2 -2,3 0,1 0,2 0,3 0,2 0,4 2,6 1,1 3,2 5,2 1,0 2,0 3,-1 1,0 2,0 3,-1 0,-1 1,-2 1,-3 1,-1 1,-2 1,-3l0 -4zm5 24l-5 0 0 -11c-1,1 -2,2 -4,3 -1,0 -3,1 -4,1 -2,0 -4,-1 -5,-1 -2,-1 -3,-2 -4,-3 -1,-1 -2,-2 -3,-4 -1,-1 -1,-3 -1,-6 0,-1 0,-3 1,-5 1,-1 2,-2 3,-3 1,-1 2,-2 4,-2 1,-1 3,-1 4,-1 4,0 7,1 9,3l0 -10 -24 0 0 -4 54 0 0 4 -25 0 0 11c1,-1 2,-2 4,-3 1,0 3,-1 5,-1 2,0 3,0 5,1 1,0 2,1 3,2 1,1 2,2 3,4 1,1 1,3 1,5 0,2 0,4 -1,5 -1,2 -2,3 -3,4 -1,1 -2,2 -4,2 -2,1 -3,1 -5,1 0,0 -1,0 -2,0 0,0 -1,-1 -1,-1l1 -4c0,0 1,0 2,0 1,0 2,0 3,0 1,-1 1,-1 2,-2 1,0 1,-1 2,-2 0,-1 0,-2 0,-4 0,-2 0,-3 -2,-4 -1,-2 -2,-2 -5,-2 -2,0 -4,1 -6,2 -1,2 -2,4 -2,7l0 18z"/>
   <path id="176" class="fil3" d="M1130 896c-1,2 -3,3 -4,3 -2,1 -3,2 -5,2 -1,0 -1,0 -1,0 0,0 0,0 -1,0l13 15 -5 3 -14 -20c-1,-1 -2,-2 -2,-2 0,-1 0,-1 0,-2 0,-1 0,-1 1,-2 1,0 1,-1 2,-1l2 2c0,1 1,1 2,2 0,0 1,0 2,0 2,0 3,-1 4,-2 2,-1 2,-3 2,-6 0,-2 0,-4 -1,-5 0,-2 -1,-3 -2,-4l-15 0 0 -4 50 0 0 4 -29 0c0,1 1,2 2,4 0,2 1,3 1,6 0,0 0,0 0,1 0,0 0,1 0,1 1,-1 2,-2 3,-3 1,0 3,-1 5,-1 2,0 5,1 7,3 2,2 3,5 5,9l3 12 -5 1 -4 -13c-1,-2 -1,-4 -2,-5 -1,-2 -3,-2 -4,-2 -2,0 -3,0 -4,1 -1,1 -1,2 -1,3 0,2 0,3 2,4 1,1 2,2 4,2l-2 4c-1,0 -2,0 -3,-1 -2,0 -3,-1 -3,-2 -1,-1 -2,-2 -3,-3 0,-1 0,-2 0,-4z"/>
   <path id="177" class="fil3" d="M189 959l-4 0 0 -4 15 0 0 4 -6 0 0 40 -5 0 0 -40zm-20 -5c2,0 4,1 5,1 2,1 3,2 4,3 1,1 2,2 3,4 0,1 1,3 1,5 0,2 -1,5 -1,7 -1,2 -2,3 -3,5 -2,1 -3,3 -5,4 -2,1 -4,2 -6,3l12 10 -4 3 -13 -12c-1,0 -3,0 -4,-1 -1,-1 -2,-2 -2,-4 0,-1 0,-2 1,-3 1,-1 2,-1 3,-1l3 3c2,0 4,0 5,-1 2,-1 3,-2 4,-3 1,-1 2,-3 3,-4 1,-2 1,-4 1,-6 0,-1 0,-3 -1,-4 0,-1 0,-2 -1,-2 -1,-1 -1,-1 -2,-2 -1,0 -2,0 -2,0 -2,0 -3,0 -4,1 -1,1 -1,2 -1,4 0,1 0,2 1,3 1,1 2,2 4,2l-1 4c-1,0 -3,-1 -4,-1 -1,-1 -2,-1 -3,-2 -1,-1 -2,-2 -2,-3 -1,-1 -1,-2 -1,-4 0,-1 0,-2 1,-3 0,-1 1,-2 2,-3 1,-1 2,-2 3,-2 1,-1 3,-1 4,-1z"/>
   <path id="178" class="fil3" d="M223 974c-1,-1 -2,-2 -3,-2 -2,-1 -3,-1 -5,-1 -1,0 -1,0 -2,0 -1,1 -2,1 -3,2 0,0 -1,1 -1,2 -1,1 -1,2 -1,3 0,3 1,5 2,6 1,1 3,2 5,2 1,0 2,0 3,0 1,-1 2,-1 3,-2 0,0 1,-1 1,-2 1,-1 1,-2 1,-4l0 -4zm5 25l-5 0 0 -12c-1,1 -2,2 -3,3 -2,1 -3,1 -5,1 -2,0 -3,0 -5,-1 -1,0 -3,-1 -4,-2 -1,-2 -2,-3 -3,-5 0,-1 -1,-3 -1,-5 0,-2 1,-4 1,-5 1,-2 2,-3 3,-4 1,-1 2,-2 4,-2 1,-1 3,-1 5,-1 3,0 6,1 8,4l0 -11 -24 0 0 -4 54 0 0 4 -25 0 0 12c1,-2 2,-3 4,-3 2,-1 3,-1 5,-1 2,0 3,0 5,0 1,1 2,1 4,2 1,1 2,3 2,4 1,1 1,3 1,5 0,2 0,4 -1,5 -1,2 -2,3 -3,4 -1,1 -2,2 -4,2 -1,1 -3,1 -5,1 0,0 -1,0 -2,0 0,0 -1,0 -1,0l1 -5c1,0 1,0 2,0 1,0 2,0 3,0 1,0 2,-1 2,-1 1,-1 2,-2 2,-3 0,-1 1,-2 1,-3 0,-2 -1,-4 -2,-5 -2,-1 -3,-2 -5,-2 -3,0 -5,1 -7,3 -1,1 -2,3 -2,6l0 19z"/>
   <polygon id="179" class="fil3" points="257,959 251,959 251,955 269,955 269,959 262,959 262,999 257,999 "/>
   <path id="180" class="fil3" d="M290 975c-1,-1 -2,-2 -3,-2 -1,-1 -2,-1 -3,-1 -2,0 -4,1 -6,2 -1,1 -2,3 -2,6 0,2 1,3 1,5 1,1 2,3 3,4 1,1 2,2 3,3 2,1 3,2 5,3l-3 4c-2,-1 -4,-2 -6,-3 -1,-2 -3,-3 -4,-5 -1,-1 -2,-3 -3,-5 -1,-2 -1,-4 -1,-6 0,-2 0,-4 1,-6 0,-1 1,-3 3,-4 1,-1 2,-1 4,-2 1,0 3,-1 4,-1 2,0 4,1 5,1 2,1 3,2 4,3 1,-1 2,-2 3,-2 2,-1 3,-1 5,-1 1,0 2,0 2,0 1,0 2,0 2,0l0 -9 -37 0 0 -4 49 0 0 4 -6 0 0 40 -6 0 0 -26c0,0 -1,-1 -1,-1 -1,0 -1,0 -2,0 -3,0 -4,1 -5,3 -1,2 -2,5 -2,9l-5 0c0,-2 0,-4 0,-6 0,-1 1,-2 1,-3z"/>
   <path id="181" class="fil3" d="M319 995c0,-1 0,-2 1,-3 1,-1 2,-1 3,-1 1,0 2,0 3,1 1,1 1,2 1,3 0,1 0,2 -1,3 -1,1 -2,1 -3,1 -1,0 -2,0 -3,-1 -1,-1 -1,-2 -1,-3z"/>
   <path id="182" class="fil3" d="M179 1122l-7 4 -13 -19c-1,-1 -1,-2 -1,-3 -1,-1 -1,-1 -1,-2 0,-1 0,-2 1,-3 1,0 2,-1 4,-1l1 2c1,1 1,1 2,2 0,0 1,0 2,0 1,0 2,-1 4,-2 1,-1 1,-3 1,-5 0,-2 0,-3 -1,-5 0,-1 -1,-2 -2,-3l-14 0 0 -6 49 0 0 6 -6 0 0 38 -8 0 0 -17c0,0 -1,1 -2,1 -2,0 -3,0 -5,0 -1,0 -3,0 -5,-1 -1,0 -3,-1 -4,-2 -2,1 -3,2 -6,2 0,0 0,0 0,0l11 14zm4 -19c1,0 3,0 4,-1 1,0 2,-1 3,-1l0 -14 -13 0c0,0 1,2 2,3 0,2 1,4 1,6 0,2 -1,4 -2,6 1,1 3,1 5,1z"/>
   <path id="183" class="fil3" d="M189 1071c0,-1 1,-2 2,-3 1,-1 2,-1 3,-1 1,0 2,0 3,1 1,1 2,2 2,3 0,1 -1,2 -2,3 -1,1 -2,2 -3,2 -1,0 -2,-1 -3,-2 -1,-1 -2,-2 -2,-3z"/>
   <path id="184" class="fil3" d="M240 1087l-6 0 0 38 -8 0 0 -16c0,1 -1,1 -3,2 -1,0 -2,0 -4,0 -2,0 -3,0 -5,0 -1,-1 -3,-1 -4,-2 -1,-1 -2,-2 -3,-4 0,-1 -1,-3 -1,-5l0 -13 -4 0 0 -6 38 0 0 6zm-26 12c0,3 0,4 1,5 2,1 3,1 5,1 1,0 3,0 4,0 1,-1 2,-2 2,-3l0 -15 -12 0 0 12z"/>
   <path id="185" class="fil3" d="M262 1101c-1,-1 -2,-1 -3,-2 -1,0 -2,-1 -3,-1 -2,0 -4,1 -5,2 -1,1 -2,3 -2,5 0,2 1,4 2,5 1,1 2,2 4,2 1,0 2,0 3,-1 0,0 1,0 2,-1 0,0 1,-1 1,-2 1,-1 1,-2 1,-3l0 -4zm7 24l-7 0 0 -10c-1,1 -2,2 -3,2 -1,1 -3,1 -5,1 -1,0 -3,0 -5,-1 -1,-1 -3,-1 -4,-3 -1,-1 -2,-2 -3,-4 0,-1 -1,-3 -1,-5 0,-2 1,-4 1,-6 1,-1 2,-2 3,-3 1,-1 2,-2 4,-3 1,0 3,-1 5,-1 1,0 3,1 4,1 2,1 3,1 4,2l0 -8 -24 0 0 -6 55 0 0 6 -24 0 0 9c1,-1 2,-2 3,-2 2,-1 3,-1 5,-1 2,0 4,0 5,1 1,0 3,1 4,2 1,1 2,2 3,4 0,1 0,3 0,5 0,2 0,4 -1,5 0,2 -1,3 -2,4 -2,1 -3,2 -5,3 -1,0 -3,0 -5,0 0,0 -1,0 -2,0 -1,0 -1,0 -1,0l0 -6c1,0 2,0 3,0 1,0 3,0 4,-1 1,-1 2,-3 2,-5 0,-2 -1,-4 -2,-5 -1,-1 -2,-1 -4,-1 -2,0 -4,0 -5,2 -1,1 -2,3 -2,5l0 19z"/>
   <path id="186" class="fil3" d="M261 1081l0 0c-1,-1 -2,-2 -3,-4 -1,-1 -1,-3 -1,-5 0,-1 0,-3 1,-4 0,-1 1,-2 2,-3 1,-1 2,-2 3,-2 2,-1 3,-1 5,-1 1,0 3,0 4,1 1,0 2,0 3,1l-1 5c-1,0 -2,0 -3,-1 0,0 -1,0 -2,0 -1,0 -3,1 -4,1 -1,1 -1,3 -1,5 0,0 0,1 0,2 0,1 1,1 1,2 0,1 1,1 1,2 1,0 1,1 1,1l-6 0z"/>
   <path id="187" class="fil3" d="M296 1120c0,-1 1,-2 2,-3 1,-1 2,-2 3,-2 2,0 3,1 4,2 1,1 1,2 1,3 0,2 0,3 -1,4 -1,1 -2,1 -4,1 -1,0 -2,0 -3,-1 -1,-1 -2,-2 -2,-4zm0 -21c0,-1 1,-2 2,-3 1,-1 2,-2 3,-2 2,0 3,1 4,2 1,1 1,2 1,3 0,2 0,3 -1,4 -1,1 -2,2 -4,2 -1,0 -2,-1 -3,-2 -1,-1 -2,-2 -2,-4z"/>
   <path id="188" class="fil3" d="M342 1081c3,0 5,0 6,1 2,0 3,1 5,2 1,1 2,2 2,3 1,2 1,3 1,5 0,2 -1,4 -2,5 -1,2 -4,4 -6,5 3,1 5,3 7,4 1,2 2,4 2,7 0,2 0,4 -1,5 -1,2 -2,3 -3,4 -1,1 -3,2 -5,3 -2,0 -4,0 -6,0 -2,0 -4,0 -5,0 -2,-1 -4,-2 -5,-3 -2,-1 -3,-2 -3,-3 -1,-2 -2,-4 -2,-5 0,-3 1,-5 3,-7 1,-2 3,-3 6,-5 -2,-1 -4,-2 -5,-4 -1,-2 -2,-4 -2,-6 0,-1 0,-3 1,-4 0,-2 1,-3 2,-4 1,-1 3,-2 4,-2 2,-1 4,-1 6,-1zm-7 11c0,1 0,2 0,3 1,0 1,1 2,2 1,0 2,1 3,1 1,1 2,1 3,2 1,-1 2,-1 3,-2 0,0 1,-1 2,-1 1,-1 1,-2 2,-3 0,0 0,-1 0,-2 0,-1 0,-2 0,-3 -1,-1 -1,-1 -2,-2 -1,-1 -2,-1 -3,-1 -1,-1 -2,-1 -3,-1 -1,0 -2,0 -3,1 -1,0 -2,1 -2,1 -1,1 -2,2 -2,2 0,1 0,2 0,3zm7 12c-3,1 -5,2 -6,4 -2,1 -2,3 -2,5 0,2 0,4 2,6 1,1 3,2 6,2 2,0 3,0 4,-1 1,0 2,-1 3,-1 0,-1 1,-2 1,-3 1,-1 1,-2 1,-3 0,-1 0,-2 -1,-3 0,-1 -1,-2 -2,-2 0,-1 -1,-2 -3,-2 -1,-1 -2,-1 -3,-2z"/>
   <path id="189" class="fil3" d="M380 1081c2,0 4,0 6,1 2,1 4,2 6,4 1,2 2,4 3,7 1,3 2,6 2,10 0,4 -1,7 -2,10 -1,3 -2,5 -4,7 -1,2 -3,3 -5,4 -2,1 -4,1 -6,1 -3,0 -5,0 -7,-1 -2,-1 -4,-2 -5,-4 -2,-2 -3,-4 -4,-7 -1,-3 -1,-6 -1,-10 0,-4 0,-7 1,-10 1,-3 2,-5 4,-7 1,-2 3,-3 5,-4 2,-1 4,-1 7,-1zm-11 22c0,4 0,7 1,9 1,2 1,4 2,5 1,2 2,2 4,3 1,0 2,1 4,1 1,0 2,-1 4,-1 1,-1 2,-2 3,-3 1,-1 2,-3 2,-5 1,-3 1,-5 1,-9 0,-4 0,-6 -1,-9 0,-2 -1,-4 -2,-5 -1,-1 -2,-2 -3,-3 -2,0 -3,-1 -4,-1 -2,0 -3,1 -4,1 -2,1 -3,2 -4,3 -1,1 -2,3 -2,5 -1,3 -1,6 -1,9z"/>
   <path id="190" class="fil3" d="M444 1081l0 5 -16 0 -1 12c0,0 1,0 2,0 0,-1 1,-1 2,-1 2,0 3,1 5,1 2,1 3,1 5,2 1,1 3,3 3,4 1,2 2,4 2,7 0,2 -1,4 -1,5 -1,2 -2,4 -4,5 -1,1 -3,3 -5,3 -2,1 -5,1 -7,1 -2,0 -4,0 -5,0 -2,0 -4,-1 -5,-2l1 -5c2,1 3,1 4,2 2,0 3,0 4,0 4,0 7,0 9,-2 2,-2 2,-4 2,-7 0,-2 0,-3 0,-4 -1,-1 -2,-2 -3,-3 0,-1 -2,-1 -3,-2 -1,0 -3,0 -4,0 -1,0 -3,0 -4,0 -1,0 -3,0 -4,1l2 -22 21 0z"/>
   <path id="191" class="fil3" d="M480 1081l0 5 -16 0 -1 12c0,0 1,0 1,0 1,-1 2,-1 3,-1 1,0 3,1 5,1 2,1 3,1 5,2 1,1 2,3 3,4 1,2 2,4 2,7 0,2 -1,4 -2,5 0,2 -1,4 -3,5 -1,1 -3,3 -5,3 -2,1 -5,1 -8,1 -1,0 -3,0 -5,0 -1,0 -3,-1 -4,-2l1 -5c1,1 3,1 4,2 1,0 3,0 4,0 4,0 6,0 8,-2 2,-2 3,-4 3,-7 0,-2 0,-3 -1,-4 0,-1 -1,-2 -2,-3 -1,-1 -2,-1 -3,-2 -1,0 -3,0 -4,0 -2,0 -3,0 -4,0 -1,0 -3,0 -4,1l2 -22 21 0z"/>
   <path id="192" class="fil3" d="M516 1081l0 5 -16 0 -2 12c1,0 1,0 2,0 1,-1 2,-1 2,-1 2,0 4,1 6,1 1,1 3,1 4,2 2,1 3,3 4,4 1,2 1,4 1,7 0,2 0,4 -1,5 -1,2 -2,4 -3,5 -2,1 -3,3 -6,3 -2,1 -4,1 -7,1 -2,0 -3,0 -5,0 -2,0 -3,-1 -5,-2l2 -5c1,1 2,1 4,2 1,0 2,0 4,0 3,0 6,0 8,-2 2,-2 3,-4 3,-7 0,-2 0,-3 -1,-4 0,-1 -1,-2 -2,-3 -1,-1 -2,-1 -3,-2 -2,0 -3,0 -5,0 -1,0 -2,0 -3,0 -2,0 -3,0 -4,1l2 -22 21 0z"/>
   <polygon id="193" class="fil3" points="552,1081 556,1081 556,1125 550,1125 550,1088 542,1091 541,1086 "/>
   <polygon id="194" class="fil3" points="593,1081 593,1086 575,1126 569,1124 587,1086 566,1086 566,1081 "/>
   <path id="195" class="fil3" d="M615 1084c2,-1 4,-2 6,-3 2,0 4,0 6,0 2,0 3,0 5,1 2,0 3,1 4,2 1,1 2,2 3,3 0,2 1,3 1,5 0,3 -1,5 -2,7 -2,1 -3,3 -5,3 2,1 4,2 6,4 1,2 2,4 2,7 0,2 0,4 -1,6 -1,1 -2,3 -4,4 -1,1 -3,1 -5,2 -2,0 -3,0 -5,0 -2,0 -4,0 -6,0 -2,0 -4,-1 -5,-2l1 -4c1,0 2,0 2,0 1,1 2,1 2,1 1,0 2,0 3,0 1,0 2,1 3,1 1,0 2,-1 3,-1 1,0 2,-1 3,-1 1,-1 2,-2 2,-3 1,-1 1,-2 1,-3 0,-2 0,-3 -1,-4 0,-1 -1,-2 -2,-2 -1,-1 -2,-1 -3,-2 -1,0 -2,0 -4,0l-5 0 0 -5 4 0c3,0 5,0 7,-2 2,-1 3,-3 3,-6 0,0 -1,-1 -1,-2 0,-1 -1,-2 -2,-2 0,-1 -1,-2 -2,-2 -1,0 -2,0 -3,0 -1,0 -3,0 -4,0 -1,0 -3,1 -5,2l-2 -4z"/>
   <polygon id="196" class="fil3" points="677,1081 677,1086 658,1126 653,1124 671,1086 650,1086 650,1081 "/>
   <polygon id="197" class="fil3" points="711,1081 711,1086 692,1126 687,1124 705,1086 684,1086 684,1081 "/>
   <path id="198" class="fil3" d="M736 1125c-1,0 -2,0 -2,-1 -1,-1 -1,-2 -1,-3 0,-1 0,-2 1,-3 1,-1 2,-1 3,-1 1,0 1,0 2,0 0,0 1,0 1,1 1,0 1,1 2,2 0,1 0,2 0,3 0,3 -1,5 -2,7 -1,2 -3,4 -6,5l-2 -3c2,0 3,-1 4,-2 1,-1 1,-3 2,-4l-2 -1z"/>
   <path id="199" class="fil3" d="M774 1081c3,0 4,0 6,1 2,0 3,1 4,2 2,1 2,2 3,3 1,2 1,3 1,5 0,2 -1,4 -2,5 -2,2 -4,4 -6,5 3,1 5,3 7,4 1,2 2,4 2,7 0,2 0,4 -1,5 -1,2 -2,3 -3,4 -2,1 -3,2 -5,3 -2,0 -4,0 -6,0 -2,0 -4,0 -6,0 -1,-1 -3,-2 -4,-3 -2,-1 -3,-2 -3,-3 -1,-2 -2,-4 -2,-5 0,-3 1,-5 3,-7 1,-2 3,-3 6,-5 -2,-1 -4,-2 -5,-4 -2,-2 -2,-4 -2,-6 0,-1 0,-3 1,-4 0,-2 1,-3 2,-4 1,-1 3,-2 4,-2 2,-1 4,-1 6,-1zm-7 11c0,1 0,2 0,3 1,0 1,1 2,2 1,0 1,1 2,1 1,1 2,1 3,2 2,-1 3,-1 3,-2 1,0 2,-1 3,-1 1,-1 1,-2 1,-3 1,0 1,-1 1,-2 0,-1 0,-2 -1,-3 0,-1 -1,-1 -1,-2 -1,-1 -2,-1 -3,-1 -1,-1 -2,-1 -3,-1 -1,0 -2,0 -3,1 -1,0 -2,1 -3,1 0,1 -1,2 -1,2 0,1 0,2 0,3zm7 12c-3,1 -5,2 -6,4 -2,1 -3,3 -3,5 0,2 1,4 3,6 1,1 3,2 6,2 2,0 3,0 4,-1 1,0 2,-1 3,-1 0,-1 1,-2 1,-3 1,-1 1,-2 1,-3 0,-1 0,-2 -1,-3 0,-1 -1,-2 -2,-2 -1,-1 -2,-2 -3,-2 -1,-1 -2,-1 -3,-2z"/>
   <path id="200" class="fil3" d="M811 1081c3,0 5,0 7,1 2,1 4,2 6,4 1,2 2,4 3,7 1,3 1,6 1,10 0,4 0,7 -1,10 -1,3 -2,5 -4,7 -1,2 -3,3 -5,4 -2,1 -4,1 -7,1 -2,0 -4,0 -6,-1 -2,-1 -4,-2 -6,-4 -1,-2 -2,-4 -3,-7 -1,-3 -1,-6 -1,-10 0,-4 0,-7 1,-10 1,-3 2,-5 4,-7 1,-2 3,-3 5,-4 2,-1 4,-1 6,-1zm-10 22c0,4 0,7 1,9 0,2 1,4 2,5 1,2 2,2 4,3 1,0 2,1 4,1 1,0 2,-1 4,-1 1,-1 2,-2 3,-3 1,-1 2,-3 2,-5 1,-3 1,-5 1,-9 0,-4 0,-6 -1,-9 0,-2 -1,-4 -2,-5 -1,-1 -2,-2 -4,-3 -1,0 -2,-1 -4,-1 -1,0 -2,1 -4,1 -1,1 -2,2 -3,3 -1,1 -2,3 -2,5 -1,3 -1,6 -1,9z"/>
   <path id="201" class="fil3" d="M876 1081l0 5 -16 0 -1 12c0,0 1,0 2,0 0,-1 1,-1 2,-1 1,0 3,1 5,1 2,1 3,1 5,2 1,1 2,3 3,4 1,2 2,4 2,7 0,2 -1,4 -1,5 -1,2 -2,4 -4,5 -1,1 -3,3 -5,3 -2,1 -5,1 -7,1 -2,0 -4,0 -5,0 -2,0 -4,-1 -5,-2l1 -5c1,1 3,1 4,2 1,0 3,0 4,0 4,0 7,0 8,-2 2,-2 3,-4 3,-7 0,-2 0,-3 0,-4 -1,-1 -2,-2 -3,-3 -1,-1 -2,-1 -3,-2 -1,0 -3,0 -4,0 -1,0 -3,0 -4,0 -1,0 -3,0 -4,1l2 -22 21 0z"/>
   <path id="202" class="fil3" d="M912 1081l0 5 -16 0 -2 12c1,0 2,0 2,0 1,-1 2,-1 2,-1 2,0 4,1 6,1 1,1 3,1 5,2 1,1 2,3 3,4 1,2 1,4 1,7 0,2 0,4 -1,5 0,2 -2,4 -3,5 -1,1 -3,3 -5,3 -3,1 -5,1 -8,1 -1,0 -3,0 -5,0 -1,0 -3,-1 -4,-2l1 -5c1,1 2,1 4,2 1,0 3,0 4,0 4,0 6,0 8,-2 2,-2 3,-4 3,-7 0,-2 0,-3 -1,-4 0,-1 -1,-2 -2,-3 -1,-1 -2,-1 -3,-2 -2,0 -3,0 -5,0 -1,0 -2,0 -3,0 -2,0 -3,0 -4,1l2 -22 21 0z"/>
   <path id="203" class="fil3" d="M948 1081l0 5 -17 0 -1 12c1,0 1,0 2,0 1,-1 1,-1 2,-1 2,0 4,1 5,1 2,1 4,1 5,2 2,1 3,3 4,4 1,2 1,4 1,7 0,2 0,4 -1,5 -1,2 -2,4 -3,5 -2,1 -4,3 -6,3 -2,1 -4,1 -7,1 -2,0 -3,0 -5,0 -2,0 -3,-1 -5,-2l2 -5c1,1 2,1 3,2 2,0 3,0 5,0 3,0 6,0 8,-2 2,-2 3,-4 3,-7 0,-2 -1,-3 -1,-4 -1,-1 -1,-2 -2,-3 -1,-1 -2,-1 -4,-2 -1,0 -2,0 -4,0 -1,0 -2,0 -4,0 -1,0 -2,0 -4,1l3 -22 21 0z"/>
   <path id="204" class="fil3" d="M991 1081c3,0 6,0 8,1l-1 5c-1,0 -2,-1 -3,-1 -1,0 -3,0 -4,0 -2,0 -4,0 -5,1 -2,0 -3,2 -4,3 -1,1 -2,3 -3,5 0,2 0,4 0,6 1,-2 2,-3 4,-4 2,0 4,-1 6,-1 2,0 4,1 5,1 2,1 3,2 5,3 1,1 2,3 3,4 0,2 1,4 1,6 0,3 -1,5 -1,7 -1,1 -2,3 -3,4 -2,2 -3,3 -5,3 -2,1 -4,1 -6,1 -2,0 -4,0 -6,-1 -2,0 -4,-2 -5,-3 -1,-2 -3,-4 -4,-7 0,-2 -1,-5 -1,-9 0,-5 1,-8 2,-11 1,-4 2,-6 4,-8 2,-2 4,-3 6,-4 2,-1 4,-1 7,-1zm-12 28c0,2 0,3 0,5 1,1 1,2 2,3 1,1 2,2 3,3 1,0 2,1 4,1 1,0 2,-1 3,-1 2,-1 2,-1 3,-2 1,-1 2,-2 2,-3 1,-2 1,-3 1,-4 0,-4 -1,-6 -3,-8 -1,-1 -4,-2 -6,-2 -2,0 -4,1 -6,1 -1,1 -2,3 -3,4 0,0 0,1 0,1 0,1 0,1 0,2z"/>
   <polygon id="205" class="fil3" points="1036,1081 1036,1086 1017,1126 1012,1124 1029,1086 1008,1086 1008,1081 "/>
   <path id="206" class="fil3" d="M1058 1084c2,-1 3,-2 5,-3 2,0 4,0 6,0 2,0 4,0 5,1 2,0 3,1 4,2 2,1 2,2 3,3 1,2 1,3 1,5 0,3 -1,5 -2,7 -1,1 -3,3 -5,3 2,1 4,2 6,4 2,2 3,4 3,7 0,2 -1,4 -2,6 -1,1 -2,3 -3,4 -2,1 -4,1 -5,2 -2,0 -4,0 -6,0 -2,0 -4,0 -6,0 -2,0 -4,-1 -5,-2l1 -4c1,0 2,0 3,0 0,1 1,1 2,1 0,0 1,0 2,0 1,0 2,1 3,1 1,0 2,-1 3,-1 1,0 2,-1 3,-1 1,-1 2,-2 2,-3 1,-1 1,-2 1,-3 0,-2 0,-3 -1,-4 0,-1 -1,-2 -2,-2 0,-1 -1,-1 -3,-2 -1,0 -2,0 -3,0l-6 0 0 -5 5 0c2,0 4,0 6,-2 2,-1 3,-3 3,-6 0,0 0,-1 -1,-2 0,-1 -1,-2 -1,-2 -1,-1 -2,-2 -3,-2 -1,0 -2,0 -3,0 -1,0 -2,0 -4,0 -1,0 -3,1 -4,2l-2 -4z"/>
   <polygon id="207" class="fil3" points="1119,1081 1119,1086 1100,1126 1095,1124 1113,1086 1092,1086 1092,1081 "/>
   <polygon id="208" class="fil3" points="1153,1081 1153,1086 1134,1126 1129,1124 1147,1086 1126,1086 1126,1081 "/>
   <path id="209" class="fil3" d="M469 1181c-1,-1 -2,-1 -3,-2 -1,0 -2,0 -3,0 -3,0 -4,0 -6,2 -1,1 -2,3 -2,5 0,2 0,4 1,6 1,1 1,2 2,4 2,1 3,2 4,3 2,1 3,2 5,3l-4 4c-2,-1 -3,-2 -5,-4 -2,-1 -3,-2 -4,-4 -2,-2 -3,-3 -3,-5 -1,-2 -2,-4 -2,-7 0,-2 1,-4 2,-5 0,-2 1,-3 2,-4 1,-1 3,-2 4,-2 2,-1 3,-1 5,-1 2,0 3,0 5,1 1,1 3,2 4,3 1,-1 2,-2 3,-3 2,0 3,-1 5,-1 0,0 1,0 2,0 1,0 1,1 2,1l0 -9 -37 0 0 -4 49 0 0 4 -7 0 0 39 -5 0 0 -26c0,0 -1,0 -1,0 -1,0 -2,0 -2,0 -3,0 -4,1 -5,3 -2,2 -2,5 -2,9l-6 0c0,-3 1,-5 1,-6 0,-2 1,-3 1,-4z"/>
   <path id="210" class="fil3" d="M461 1146c1,-1 2,-1 3,-1 2,-1 3,-1 4,-1 4,0 6,1 9,3 2,1 4,4 5,7l5 10 -4 0 -5 -8c-1,-1 -1,-2 -2,-3 -1,-1 -1,-1 -2,-2 -1,0 -2,-1 -3,-1 -1,0 -2,0 -3,0 -1,0 -2,0 -2,0 -1,0 -2,0 -3,1l-2 -5z"/>
   <path id="211" class="fil3" d="M510 1173c3,0 5,0 6,1 2,1 3,2 4,3l0 -11 -27 0 0 -4 39 0 0 4 -6 0 0 39 -6 0 0 -11c-1,1 -2,2 -3,3 -2,1 -4,1 -7,1 -2,0 -3,0 -5,-1 -2,0 -3,-1 -4,-2 -2,-2 -3,-3 -3,-5 -1,-1 -1,-3 -1,-5 0,-2 0,-4 1,-5 0,-2 1,-3 2,-4 2,-1 3,-2 5,-3 1,0 3,0 5,0zm10 9c-1,-1 -2,-2 -3,-3 -2,-1 -4,-2 -6,-2 -3,0 -5,1 -6,2 -2,1 -3,3 -3,6 0,3 1,5 3,6 1,2 4,2 6,2 2,0 3,0 4,0 1,-1 2,-1 3,-2 0,-1 1,-1 2,-2 0,-1 0,-2 0,-3l0 -4z"/>
   <polygon id="212" class="fil3" points="537,1166 530,1166 530,1162 548,1162 548,1166 542,1166 542,1205 537,1205 "/>
   <path id="213" class="fil3" d="M589 1179l0 -13 -27 0 0 -4 38 0 0 4 -6 0 0 39 -5 0 0 -21 -14 0 0 6c0,0 0,0 -1,0 0,1 -1,1 -2,1 -2,0 -3,-1 -5,-2 -1,-1 -1,-3 -1,-5 0,-1 0,-2 1,-3 1,-1 2,-2 3,-2l19 0z"/>
   <path id="214" class="fil3" d="M616 1173c2,0 4,0 6,1 2,1 3,2 4,3l0 -11 -27 0 0 -4 39 0 0 4 -7 0 0 39 -5 0 0 -11c-1,1 -2,2 -4,3 -1,1 -3,1 -6,1 -2,0 -4,0 -5,-1 -2,0 -3,-1 -5,-2 -1,-2 -2,-3 -3,-5 0,-1 -1,-3 -1,-5 0,-2 1,-4 1,-5 1,-2 2,-3 3,-4 1,-1 3,-2 4,-3 2,0 4,0 6,0zm10 9c-1,-1 -2,-2 -4,-3 -1,-1 -3,-2 -5,-2 -3,0 -5,1 -7,2 -1,1 -2,3 -2,6 0,3 1,5 2,6 2,2 4,2 7,2 1,0 2,0 4,0 1,-1 2,-1 2,-2 1,-1 2,-1 2,-2 1,-1 1,-2 1,-3l0 -4z"/>
   <path id="215" class="fil3" d="M670 1166l0 39 -5 0 0 -12c-1,1 -2,1 -4,2 -1,0 -3,1 -5,1 -2,0 -4,-1 -6,-1 -2,-1 -4,-2 -5,-3 -2,-2 -3,-4 -4,-6 -1,-2 -1,-4 -1,-7l2 0c3,0 5,-1 7,-2 1,-1 2,-2 2,-4 0,-2 0,-3 -1,-4 -1,-1 -1,-2 -2,-3l-12 0 0 -4 40 0 0 4 -6 0zm-5 0l-12 0c1,1 2,2 2,3 1,1 1,3 1,4 0,3 -1,6 -3,7 -2,2 -4,3 -8,3 0,3 2,4 3,6 2,1 5,2 8,2 2,0 3,0 5,-1 2,-1 3,-2 4,-3l0 -21z"/>
   <path id="216" class="fil3" d="M659 1207c1,-1 2,-1 3,-2 2,-1 3,-1 5,-1 3,0 6,1 8,3 1,2 2,4 2,6 0,3 -1,6 -3,8 -2,2 -5,3 -9,3 -3,0 -7,-1 -10,-3 -3,-1 -6,-4 -8,-7l4 -3c2,3 4,5 6,6 3,1 5,2 8,2 2,0 4,0 5,-1 1,-1 2,-3 2,-5 0,-1 -1,-2 -2,-3 0,-1 -2,-1 -3,-1 -1,0 -2,0 -3,0 -1,0 -1,1 -2,2l-3 -4z"/>
   <path id="217" class="fil3" d="M692 1173c2,0 5,0 6,1 2,1 3,2 4,3l0 -11 -27 0 0 -4 39 0 0 4 -6 0 0 39 -6 0 0 -11c-1,1 -2,2 -3,3 -2,1 -4,1 -7,1 -2,0 -3,0 -5,-1 -2,0 -3,-1 -4,-2 -2,-2 -3,-3 -3,-5 -1,-1 -1,-3 -1,-5 0,-2 0,-4 1,-5 0,-2 1,-3 2,-4 2,-1 3,-2 5,-3 1,0 3,0 5,0zm10 9c-1,-1 -2,-2 -3,-3 -2,-1 -4,-2 -6,-2 -3,0 -5,1 -6,2 -2,1 -3,3 -3,6 0,3 1,5 3,6 1,2 4,2 6,2 2,0 3,0 4,0 1,-1 2,-1 3,-2 0,-1 1,-1 1,-2 1,-1 1,-2 1,-3l0 -4z"/>
   <path id="218" class="fil3" d="M737 1181c-2,-1 -3,-2 -4,-3 -1,0 -3,-1 -4,-1 -1,0 -2,1 -3,1 -1,0 -2,1 -2,1 -1,1 -2,2 -2,3 0,1 -1,2 -1,3 0,2 1,4 2,6 2,1 4,2 6,2 1,0 2,0 3,-1 1,0 1,0 2,-1 1,-1 2,-2 2,-3 0,-1 1,-2 1,-3l0 -4zm5 24l-6 0 0 -11c0,1 -1,2 -3,3 -1,0 -3,0 -5,0 -1,0 -3,0 -4,0 -2,-1 -3,-2 -4,-3 -2,-1 -2,-2 -3,-4 -1,-2 -1,-3 -1,-6 0,-2 0,-3 1,-5 1,-1 1,-2 2,-3 2,-1 3,-2 4,-2 2,-1 3,-1 5,-1 4,0 6,1 8,3l0 -10 -24 0 0 -4 54 0 0 4 -24 0 0 11c1,-1 2,-2 3,-3 2,-1 4,-1 6,-1 1,0 3,0 4,1 2,0 3,1 4,2 1,1 2,2 3,4 0,1 1,3 1,4 0,3 -1,4 -1,6 -1,2 -2,3 -3,4 -1,1 -3,2 -4,2 -2,0 -4,1 -5,1 -1,0 -1,0 -2,0 -1,-1 -1,-1 -2,-1l1 -4c1,0 2,0 3,0 1,0 2,0 2,0 1,-1 2,-1 3,-2 1,0 1,-1 1,-2 1,-1 1,-2 1,-4 0,-2 -1,-3 -2,-5 -1,-1 -3,-1 -5,-1 -3,0 -5,1 -6,2 -2,2 -2,4 -2,7l0 18z"/>
   <path id="219" class="fil3" d="M802 1203l-4 3 -14 -20c0,-1 -1,-2 -1,-2 0,-1 -1,-1 -1,-2 0,-1 1,-1 2,-2 0,-1 1,-1 2,-1l2 2c0,1 1,1 1,2 1,0 2,0 3,0 1,0 3,-1 4,-2 1,-1 2,-3 2,-6 0,-2 0,-4 -1,-5 -1,-2 -1,-3 -2,-4l-15 0 0 -4 47 0 0 4 -6 0 0 39 -6 0 0 -18c-1,1 -4,2 -7,2 -2,0 -3,-1 -5,-1 -2,-1 -3,-1 -4,-2 -2,1 -4,2 -7,2 0,0 0,0 0,0 0,0 -1,0 -1,0l11 15zm5 -19c2,0 4,0 5,-1 1,0 3,-1 3,-2l0 -15 -15 0c1,1 2,2 2,4 1,2 1,3 1,5 0,3 0,6 -1,8 0,0 1,0 2,1 1,0 2,0 3,0z"/>
   <path id="220" class="fil3" d="M814 1152c0,-1 1,-2 1,-3 1,-1 2,-1 3,-1 1,0 2,0 3,1 1,1 1,2 1,3 0,1 -1,2 -1,2 -1,1 -2,1 -3,1 -1,0 -2,0 -3,-1 0,0 -1,-1 -1,-2z"/>
   <path id="221" class="fil3" d="M854 1205l0 -10c-1,1 -2,1 -4,2 -2,1 -4,1 -6,1 -2,0 -4,0 -6,-1 -1,0 -3,-1 -4,-2 -1,-1 -2,-2 -3,-4 -1,-1 -1,-3 -1,-4 0,-2 0,-4 1,-5 1,-2 3,-3 5,-4 -2,0 -4,-1 -5,-3 -1,-1 -1,-2 -1,-4 0,-1 0,-2 1,-3 0,-1 1,-2 1,-2l-6 0 0 -4 40 0 0 4 -6 0 0 39 -6 0zm-16 -39c-1,1 -1,1 -2,2 0,1 -1,2 -1,3 0,2 1,3 2,4 1,1 3,2 6,2l4 0 0 4 -3 0c-3,0 -6,1 -7,2 -1,1 -2,2 -2,4 0,1 1,2 1,3 1,1 1,1 2,2 1,0 2,1 3,1 1,0 2,0 3,0 2,0 3,0 5,-1 2,0 4,-1 5,-2l0 -24 -16 0z"/>
   <circle class="fil2 str0" cx="86" cy="195" r="16"/>
   <circle class="fil2 str0" cx="86" cy="401" r="16"/>
   <circle class="fil2 str0" cx="86" cy="610" r="16"/>
   <circle class="fil2 str0" cx="86" cy="814" r="16"/>
  </g>
 </g>
</svg>
