<?xml version="1.0" encoding="UTF-8"?>
<!DOCTYPE svg PUBLIC "-//W3C//DTD SVG 1.1//EN" "http://www.w3.org/Graphics/SVG/1.1/DTD/svg11.dtd">
<!-- Creator: CorelDRAW X8 -->
<svg xmlns="http://www.w3.org/2000/svg" xml:space="preserve" width="3in" height="3.3763in" version="1.1" style="shape-rendering:geometricPrecision; text-rendering:geometricPrecision; image-rendering:optimizeQuality; fill-rule:evenodd; clip-rule:evenodd"
viewBox="0 0 21108 23756 " 
 xmlns:xlink="http://www.w3.org/1999/xlink">
 <defs>
  <style type="text/css">
   <!-- <![CDATA[
    .str0 {stroke:#373435;stroke-width:48.8643}
    .fil3 {fill:#A5DEE5}
    .fil2 {fill:#E0F9B5}
    .fil1 {fill:#E0F9B5}
    .fil0 {fill:#FEFDCA}
    .fil4 {fill:#FFCFDF}
    .fil5 {fill:#373435;fill-rule:nonzero}
   ]]> -->
  </style>
 </defs>
 <g id="Layer_x0020_1">
  <metadata id="CorelCorpID_0Corel-Layer"/>
  <g id="_1612192803024">
   <rect class="fil0" width="21108" height="23756"/>
   <rect class="fil1" y="2318" width="21108" height="2105"/>
   <rect class="fil2" y="7970" width="21108" height="1911"/>
   <circle class="fil3 str0" cx="1457" cy="3307" r="275"/>
   <circle class="fil3 str0" cx="1457" cy="5412" r="275"/>
   <circle class="fil3 str0" cx="1457" cy="8925" r="275"/>
   <rect class="fil4" y="13582" width="21108" height="5094"/>
   <path class="fil5" d="M3554 3040l-415 0 0 197c16,-21 39,-36 67,-48 29,-11 58,-17 87,-17 30,0 57,5 82,14 25,10 47,23 65,41 18,17 32,38 42,63 9,25 14,52 14,83 0,34 -6,65 -17,92 -12,27 -28,50 -48,68 -21,19 -45,33 -74,43 -29,10 -60,15 -94,15l-6 -78c15,0 31,-4 48,-10 17,-5 33,-14 48,-25 14,-12 26,-26 35,-43 10,-17 14,-38 14,-61 0,-40 -10,-71 -32,-92 -22,-22 -51,-32 -87,-32 -30,0 -57,7 -81,23 -24,16 -45,38 -63,68l0 362 -89 0 0 -288c-12,13 -30,25 -55,36 -25,11 -53,17 -86,17 -28,0 -54,-4 -78,-12 -25,-8 -46,-20 -65,-36 -18,-17 -33,-37 -44,-61 -11,-25 -16,-53 -16,-86l0 -233 -82 0 0 -75 930 0 0 75zm-757 224c0,44 11,76 31,96 20,19 49,29 87,29 29,0 55,-7 79,-21 24,-14 42,-33 56,-56l0 -272 -253 0 0 224z"/>
   <path id="1" class="fil5" d="M3727 2679c0,32 -5,59 -17,82 -11,23 -26,42 -44,57 -19,15 -39,26 -62,32 -23,7 -45,10 -68,10 -26,0 -50,-3 -73,-11 -23,-7 -44,-19 -62,-34 -18,-15 -32,-34 -42,-57 -11,-22 -16,-49 -16,-79l86 0c4,38 15,65 34,80 18,16 42,24 72,24 31,0 56,-10 74,-29 18,-19 28,-44 32,-75l86 0zm-97 361l-106 0 0 -75 303 0 0 75 -106 0 0 663 -91 0 0 -663z"/>
   <path id="2" class="fil5" d="M4037 3040l0 291 243 0 0 -291 -243 0zm0 451c-4,5 -11,10 -22,14 -10,5 -23,7 -37,7 -15,0 -30,-3 -44,-9 -13,-5 -26,-13 -37,-24 -11,-10 -19,-22 -25,-36 -7,-14 -10,-29 -10,-46 0,-20 6,-36 18,-48 12,-12 30,-18 52,-18l15 0 0 -291 -143 0 0 -75 673 0 0 75 -106 0 0 663 -91 0 0 -296 -243 0 0 84z"/>
   <path id="3" class="fil5" d="M4263 2969l0 -9c-7,-7 -14,-15 -23,-25 -8,-10 -16,-21 -23,-34 -7,-12 -12,-26 -17,-41 -5,-15 -7,-31 -7,-49 0,-25 4,-47 13,-67 9,-20 22,-37 38,-51 16,-14 34,-25 56,-33 21,-8 43,-12 68,-12 21,0 43,2 65,7 21,5 39,11 52,20l-24 72c-25,-13 -51,-19 -78,-19 -29,0 -52,8 -70,26 -18,17 -26,42 -26,75 0,14 2,29 6,42 4,14 10,27 17,39 6,11 13,22 21,31 8,10 15,17 21,24l-89 4z"/>
   <path id="4" class="fil5" d="M4869 3883c-24,-32 -47,-66 -70,-103 -22,-36 -42,-75 -60,-116 -18,-42 -32,-86 -43,-134 -11,-47 -16,-98 -16,-154 0,-54 5,-106 17,-155 11,-49 26,-95 44,-137 18,-43 38,-82 61,-118 22,-35 45,-67 69,-95l56 40c-43,65 -78,136 -105,213 -27,76 -40,160 -40,252 0,46 3,90 10,131 6,41 16,81 28,118 12,38 27,76 45,112 18,37 39,74 62,112l-58 34z"/>
   <path id="5" class="fil5" d="M5279 3152c41,0 75,6 101,17 27,11 50,25 71,42l0 -171 -465 0 0 -75 662 0 0 75 -105 0 0 663 -92 0 0 -178c-13,13 -34,26 -62,39 -28,12 -63,19 -105,19 -31,0 -60,-5 -89,-15 -28,-10 -54,-24 -76,-43 -22,-20 -40,-43 -54,-71 -14,-28 -21,-60 -21,-96 0,-34 6,-64 19,-89 12,-25 28,-47 49,-64 22,-17 46,-30 75,-39 28,-9 59,-14 92,-14zm-138 209c0,26 4,48 12,66 8,19 19,33 33,44 14,11 31,19 49,24 18,5 38,8 58,8 20,0 40,-3 61,-9l-171 -230c-28,22 -42,54 -42,97zm310 -56c-15,-21 -37,-38 -65,-52 -28,-15 -60,-22 -94,-22 -20,0 -38,2 -54,7l169 229c13,-11 24,-22 32,-36 8,-13 12,-28 12,-44l0 -82z"/>
   <path id="6" class="fil5" d="M6029 3818c-56,-6 -104,-17 -145,-34 -41,-16 -74,-36 -100,-59 -26,-24 -46,-50 -58,-80 -13,-29 -19,-60 -19,-92 0,-30 5,-56 15,-78 9,-21 22,-40 38,-55 -17,-18 -33,-38 -45,-58 -13,-21 -20,-46 -20,-75 0,-22 4,-41 13,-58 8,-17 19,-31 32,-42 14,-10 30,-19 48,-24 19,-6 38,-8 59,-8l163 0 0 -115 -385 0 0 -75 617 0 0 75 -142 0 0 190 -222 0c-24,0 -45,4 -63,12 -17,8 -26,26 -26,55 0,15 3,30 9,43 7,13 14,25 23,36 20,-11 42,-20 66,-24 24,-5 48,-7 73,-7 33,0 63,4 89,14 26,9 48,22 66,38 18,17 32,36 42,57 9,22 14,45 14,69 0,25 -5,49 -15,71 -10,22 -23,41 -39,56l-70 -51c10,-10 18,-21 24,-33 6,-12 9,-26 9,-42 0,-12 -2,-24 -7,-36 -4,-12 -11,-23 -20,-32 -9,-9 -22,-17 -38,-23 -15,-7 -34,-10 -57,-10 -47,0 -85,12 -114,37 -29,25 -43,57 -43,96 0,21 3,42 10,62 6,20 19,39 38,56 19,16 44,31 77,44 33,12 76,21 128,26l-25 74z"/>
   <path id="7" class="fil5" d="M5863 3789c12,-14 31,-26 56,-36 24,-10 50,-14 78,-14 54,0 96,15 126,45 29,31 44,69 44,114 0,51 -18,93 -54,125 -35,32 -86,49 -152,49 -57,0 -112,-14 -165,-42 -53,-28 -100,-67 -139,-118l62 -53c38,45 76,79 115,101 38,23 79,34 122,34 38,0 67,-9 87,-27 20,-18 30,-42 30,-71 0,-25 -7,-45 -20,-59 -13,-15 -34,-22 -61,-22 -16,0 -30,3 -44,9 -14,6 -27,14 -39,25l-46 -60z"/>
   <path id="8" class="fil5" d="M6517 3286c-47,0 -82,12 -103,36 -21,25 -32,55 -32,93 0,42 9,83 27,124 17,40 43,85 75,134l-78 41c-35,-49 -64,-98 -85,-146 -22,-48 -32,-100 -32,-157 0,-65 18,-116 55,-151 37,-36 89,-54 156,-54l198 0 0 -166 -480 0 0 -75 677 0 0 75 -106 0 0 663 -91 0 0 -417 -181 0z"/>
   <path id="9" class="fil5" d="M6977 3040l-106 0 0 -75 303 0 0 75 -106 0 0 663 -91 0 0 -663zm-19 -244c0,-16 6,-30 18,-43 12,-13 28,-19 47,-19 19,0 35,6 46,19 11,13 17,27 17,43 0,18 -6,33 -18,45 -11,12 -27,18 -45,18 -19,0 -35,-6 -47,-18 -12,-12 -18,-27 -18,-45z"/>
   <path id="10" class="fil5" d="M7744 3040l-60 0 0 -75 256 0 0 75 -105 0 0 663 -91 0 0 -663zm-330 -89c32,0 61,5 87,15 26,11 48,26 66,45 18,19 32,42 41,69 10,26 15,56 15,89 0,40 -6,76 -18,110 -12,34 -29,64 -51,90 -22,27 -48,50 -79,69 -30,19 -63,34 -99,46l199 173 -70 62 -209 -207c-29,-3 -55,-12 -77,-27 -22,-15 -33,-36 -33,-64 0,-23 6,-40 20,-52 14,-12 28,-19 43,-19l64 63c28,-6 54,-15 80,-28 25,-13 48,-30 68,-50 20,-21 36,-46 48,-74 12,-28 18,-59 18,-95 0,-23 -3,-43 -9,-61 -7,-17 -15,-31 -25,-42 -10,-12 -22,-20 -35,-25 -14,-5 -27,-8 -41,-8 -26,0 -47,8 -62,24 -15,15 -23,34 -23,56 0,25 9,45 26,60 17,15 41,24 70,29l-22 69c-23,-3 -44,-8 -64,-17 -20,-8 -38,-19 -53,-32 -16,-14 -28,-31 -37,-50 -9,-19 -14,-41 -14,-66 0,-22 5,-42 13,-60 9,-19 21,-35 36,-48 15,-14 34,-25 56,-33 22,-8 46,-11 71,-11z"/>
   <path id="11" class="fil5" d="M8069 2871c23,32 46,66 69,102 22,37 43,76 60,117 18,42 32,86 43,134 11,47 16,99 16,153 0,55 -5,107 -17,156 -11,49 -26,94 -44,137 -18,43 -38,82 -61,117 -22,36 -45,68 -69,96l-56 -40c43,-66 78,-137 105,-213 27,-76 40,-160 40,-253 0,-46 -3,-89 -10,-130 -6,-41 -16,-81 -28,-119 -12,-38 -27,-75 -45,-112 -18,-36 -39,-74 -62,-111l59 -34z"/>
   <path id="12" class="fil5" d="M8694 3040l0 291 243 0 0 -291 -243 0zm0 451c-4,5 -11,10 -22,14 -10,5 -23,7 -37,7 -15,0 -30,-3 -44,-9 -13,-5 -26,-13 -37,-24 -11,-10 -19,-22 -25,-36 -7,-14 -10,-29 -10,-46 0,-20 6,-36 18,-48 12,-12 30,-18 53,-18l14 0 0 -291 -143 0 0 -75 673 0 0 75 -106 0 0 663 -91 0 0 -296 -243 0 0 84z"/>
   <path id="13" class="fil5" d="M9495 3662l-80 53 -226 -332c-13,-18 -21,-32 -25,-41 -5,-10 -7,-19 -7,-28 0,-16 6,-29 19,-37 12,-9 27,-13 43,-13l25 31c9,13 19,21 29,26 10,5 23,7 39,7 30,0 56,-12 77,-35 21,-23 32,-56 32,-99 0,-35 -6,-65 -16,-91 -11,-26 -24,-47 -37,-63l-258 0 0 -75 504 0 0 75 -156 0c13,14 25,35 38,64 13,28 19,60 19,95 0,31 -5,60 -14,85 -10,26 -23,47 -40,65 -16,18 -37,32 -60,42 -23,10 -49,15 -77,15 -4,0 -7,0 -10,0 -2,0 -5,-1 -9,-2l190 258z"/>
   <polygon id="14" class="fil5" points="9697,3040 9591,3040 9591,2965 9894,2965 9894,3040 9788,3040 9788,3703 9697,3703 "/>
   <path id="15" class="fil5" d="M10317 3180c24,9 48,21 71,36 24,15 45,34 64,55 18,22 34,47 45,76 11,29 17,61 17,97 0,40 -7,76 -21,109 -14,32 -34,60 -60,84 -26,23 -57,41 -93,54 -36,12 -75,18 -118,18 -40,0 -78,-6 -113,-18 -36,-12 -67,-30 -94,-53 -26,-23 -47,-51 -63,-83 -15,-33 -23,-71 -23,-113 0,-36 6,-68 17,-95 12,-27 28,-51 48,-72 20,-20 43,-37 68,-50 26,-13 54,-23 82,-31l83 -21 0 -133 -357 0 0 -75 717 0 0 75 -270 0 0 140zm101 262c0,-27 -4,-51 -13,-72 -8,-22 -19,-40 -32,-56 -13,-16 -28,-29 -45,-39 -17,-11 -33,-19 -50,-24l-66 15c-58,13 -104,33 -137,60 -34,27 -50,65 -50,114 0,33 6,62 17,86 11,24 26,43 44,58 19,15 40,26 63,33 24,7 47,10 71,10 25,0 49,-3 73,-10 24,-7 45,-18 63,-33 19,-15 33,-34 45,-58 11,-23 17,-51 17,-84z"/>
   <path id="16" class="fil5" d="M10657 3040l-106 0 0 -75 93 0c-6,-19 -16,-40 -29,-64 -14,-24 -30,-46 -50,-67 -20,-21 -43,-38 -69,-53 -26,-14 -54,-22 -85,-22 -45,0 -77,11 -98,33 -20,21 -30,48 -30,79 0,23 3,43 8,61 6,19 12,36 20,53l-67 25 -14 -18c-11,-14 -21,-33 -30,-57 -9,-23 -13,-47 -13,-72 0,-25 4,-48 14,-71 9,-22 23,-42 41,-59 19,-17 42,-30 69,-40 27,-11 59,-16 95,-16 52,0 96,11 134,32 38,21 70,47 96,76 27,30 47,61 63,94 16,33 28,61 36,86l119 0 0 75 -106 0 0 663 -91 0 0 -663z"/>
   <path id="17" class="fil5" d="M11130 3286c-48,0 -83,12 -104,36 -21,25 -31,55 -31,93 0,42 8,83 26,124 18,40 43,85 76,134l-79 41c-35,-49 -63,-98 -85,-146 -21,-48 -32,-100 -32,-157 0,-65 18,-116 56,-151 37,-36 88,-54 155,-54l198 0 0 -166 -480 0 0 -75 677 0 0 75 -105 0 0 663 -92 0 0 -417 -180 0z"/>
   <path id="18" class="fil5" d="M11962 3515c-4,4 -11,9 -21,14 -10,4 -22,7 -36,7 -16,0 -31,-3 -45,-8 -15,-6 -28,-14 -39,-24 -11,-10 -21,-22 -28,-36 -7,-14 -10,-30 -10,-47 0,-21 7,-37 21,-49 14,-12 32,-18 55,-18l13 0 0 -245c0,-26 -5,-46 -14,-60 -9,-14 -24,-21 -45,-21 -21,0 -38,6 -51,17 -13,11 -19,30 -19,56 0,20 5,38 16,55 10,16 25,30 43,40l-34 65c-14,-4 -28,-12 -43,-21 -14,-10 -26,-22 -37,-36 -11,-14 -20,-30 -26,-48 -7,-17 -10,-36 -10,-56 0,-22 3,-41 11,-59 7,-18 18,-34 31,-48 14,-13 30,-24 50,-31 19,-8 40,-11 64,-11 53,0 92,14 117,44 25,29 37,68 37,117l0 242 209 0 0 -314 -124 0 0 -75 321 0 0 75 -106 0 0 663 -91 0 0 -273 -209 0 0 85z"/>
   <path id="19" class="fil5" d="M12729 3662l-80 53 -226 -332c-12,-18 -21,-32 -25,-41 -4,-10 -7,-19 -7,-28 0,-16 7,-29 19,-37 13,-9 27,-13 44,-13l24 31c10,13 19,21 30,26 10,5 23,7 38,7 31,0 57,-12 78,-35 21,-23 31,-56 31,-99 0,-35 -5,-65 -16,-91 -11,-26 -23,-47 -36,-63l-258 0 0 -75 504 0 0 75 -156 0c12,14 25,35 37,64 13,28 19,60 19,95 0,31 -5,60 -14,85 -9,26 -22,47 -39,65 -17,18 -37,32 -61,42 -23,10 -49,15 -77,15 -4,0 -7,0 -9,0 -3,0 -6,-1 -10,-2l190 258z"/>
   <polygon id="20" class="fil5" points="12931,3040 12825,3040 12825,2965 13128,2965 13128,3040 13022,3040 13022,3703 12931,3703 "/>
   <path id="21" class="fil5" d="M13684 3040l0 663 -92 0 0 -207c-13,12 -32,23 -57,33 -25,10 -59,15 -101,15 -34,0 -68,-6 -100,-18 -32,-11 -60,-29 -85,-53 -25,-24 -46,-54 -61,-89 -16,-36 -24,-77 -25,-124l34 -1c59,-2 100,-11 123,-29 23,-17 34,-44 34,-79 0,-22 -4,-42 -14,-60 -9,-19 -21,-36 -36,-51l-200 0 0 -75 685 0 0 75 -105 0zm-92 0l-197 0c14,13 26,30 37,51 11,20 16,44 16,71 0,50 -17,91 -50,120 -34,29 -82,46 -143,50 7,40 27,72 58,96 31,24 73,36 125,36 32,0 63,-6 90,-17 28,-12 49,-27 64,-46l0 -361z"/>
   <path id="22" class="fil5" d="M13813 3248l0 -76 388 0 0 76 -39 0c-44,0 -78,11 -102,33 -23,22 -35,50 -35,85 0,19 4,36 11,50 7,13 16,25 29,34 12,9 27,15 43,20 16,4 33,6 51,6 34,0 66,-8 95,-23 30,-15 54,-35 75,-60l0 -353 -563 0 0 -75 760 0 0 75 -106 0 0 663 -91 0 0 -214c-7,8 -17,15 -28,23 -12,8 -26,15 -41,22 -15,7 -32,12 -50,16 -19,4 -38,6 -57,6 -32,0 -62,-5 -89,-14 -28,-10 -51,-23 -71,-40 -20,-16 -36,-37 -47,-60 -11,-24 -17,-50 -17,-79 0,-26 6,-50 18,-71 12,-20 27,-35 45,-44l-179 0z"/>
   <polygon id="23" class="fil5" points="14608,3040 14502,3040 14502,2965 14805,2965 14805,3040 14699,3040 14699,3703 14608,3703 "/>
   <path id="24" class="fil5" d="M14996 3003c18,-14 43,-26 74,-35 31,-9 62,-14 92,-14 30,0 58,4 84,12 26,9 48,21 68,36 20,16 35,35 46,59 11,23 16,50 16,81 0,37 -8,69 -26,94 -17,26 -37,45 -59,59 22,7 45,11 69,14 23,3 45,4 64,4 24,0 48,-3 74,-9 25,-7 44,-14 56,-23l0 -241 -107 0 0 -75 583 0 0 75 -105 0 0 663 -92 0 0 -663 -187 0 0 663 -92 0 0 -329c-28,12 -62,19 -102,19 -17,0 -33,-2 -47,-4 -15,-3 -32,-9 -53,-17l-3 2c14,16 25,33 32,51 8,18 12,38 12,60 0,64 -21,113 -62,149 -41,35 -97,53 -167,53 -18,0 -36,-2 -54,-5 -18,-3 -36,-7 -53,-13 -17,-6 -33,-13 -47,-21 -15,-8 -27,-16 -37,-25l38 -67c21,17 43,30 67,39 24,9 50,13 80,13 19,0 37,-2 53,-7 17,-4 32,-12 45,-22 13,-10 23,-23 31,-40 8,-16 12,-36 12,-58 0,-40 -13,-72 -37,-97 -25,-24 -65,-36 -120,-36l-73 0 0 -76 62 0c46,1 83,-10 110,-32 28,-22 41,-53 41,-94 0,-38 -12,-66 -37,-85 -25,-19 -54,-28 -87,-28 -18,0 -38,2 -60,7 -23,5 -44,15 -64,29l-38 -66z"/>
   <path id="25" class="fil5" d="M16405 3818c-57,-6 -105,-17 -146,-34 -40,-16 -74,-36 -100,-59 -26,-24 -46,-50 -58,-80 -13,-29 -19,-60 -19,-92 0,-30 5,-56 15,-78 10,-21 22,-40 38,-55 -17,-18 -32,-38 -45,-58 -13,-21 -20,-46 -20,-75 0,-22 4,-41 13,-58 8,-17 19,-31 33,-42 13,-10 29,-19 48,-24 18,-6 37,-8 58,-8l163 0 0 -115 -385 0 0 -75 617 0 0 75 -142 0 0 190 -222 0c-24,0 -45,4 -62,12 -18,8 -27,26 -27,55 0,15 3,30 10,43 6,13 13,25 22,36 20,-11 42,-20 66,-24 24,-5 48,-7 73,-7 33,0 63,4 89,14 26,9 48,22 66,38 18,17 32,36 42,57 10,22 14,45 14,69 0,25 -5,49 -15,71 -10,22 -23,41 -38,56l-71 -51c10,-10 18,-21 24,-33 6,-12 9,-26 9,-42 0,-12 -2,-24 -6,-36 -5,-12 -12,-23 -21,-32 -9,-9 -22,-17 -37,-23 -16,-7 -35,-10 -58,-10 -47,0 -85,12 -114,37 -29,25 -43,57 -43,96 0,21 3,42 10,62 7,20 19,39 38,56 19,16 45,31 77,44 33,12 76,21 128,26l-24 74z"/>
   <path id="26" class="fil5" d="M16013 2695c13,-7 30,-13 51,-18 21,-5 42,-8 64,-8 57,0 104,14 142,43 37,28 69,68 96,119l89 169 -72 0 -90 -136c-11,-17 -22,-31 -33,-44 -11,-13 -23,-24 -35,-33 -13,-9 -28,-16 -43,-20 -16,-4 -34,-6 -54,-6 -16,0 -31,1 -45,5 -15,3 -27,8 -38,12l-32 -83z"/>
   <path id="27" class="fil5" d="M16686 3640c0,-20 7,-37 21,-51 14,-15 31,-22 51,-22 19,0 36,7 49,22 14,14 21,31 21,51 0,23 -7,41 -21,54 -13,13 -30,20 -49,20 -20,0 -37,-7 -51,-20 -14,-13 -21,-31 -21,-54z"/>
   <path id="28" class="fil5" d="M3189 5296c42,0 78,8 106,22 29,15 51,32 67,50l0 -184 -460 0 0 -75 657 0 0 75 -106 0 0 663 -91 0 0 -184c-14,14 -35,28 -61,42 -26,14 -61,22 -106,22 -32,0 -62,-5 -90,-15 -28,-10 -53,-24 -75,-44 -21,-19 -38,-42 -51,-70 -12,-28 -18,-60 -18,-97 0,-33 5,-63 17,-88 11,-26 27,-47 48,-64 20,-17 45,-30 72,-39 28,-9 58,-14 91,-14zm173 165c-14,-21 -34,-41 -61,-59 -28,-18 -59,-27 -94,-27 -45,0 -81,10 -109,32 -27,21 -41,54 -41,98 0,52 14,89 42,110 28,21 66,32 114,32 20,0 39,-4 57,-10 18,-7 34,-16 48,-27 13,-12 24,-25 32,-41 8,-15 12,-32 12,-50l0 -58z"/>
   <path id="29" class="fil5" d="M4065 5109l197 0 0 75 -105 0 0 663 -92 0 0 -167c-19,15 -48,29 -85,40 -38,11 -79,17 -124,17 -36,0 -70,-5 -99,-14 -30,-9 -55,-22 -76,-39 -21,-16 -37,-35 -48,-58 -11,-22 -17,-46 -17,-72 0,-31 10,-57 31,-78 21,-22 46,-36 76,-43 -14,-5 -29,-13 -43,-23 -14,-10 -28,-23 -39,-37 -12,-15 -22,-31 -30,-50 -7,-19 -11,-40 -11,-63 0,-22 3,-43 11,-64 7,-20 18,-37 33,-52 15,-15 33,-27 55,-36 21,-9 46,-14 73,-14 28,0 53,5 74,13 22,9 40,20 54,34 14,14 25,30 32,48 8,18 11,37 11,56 0,29 -7,53 -21,72 -15,19 -30,32 -46,39l-56 -49c9,-7 17,-15 23,-26 6,-11 9,-24 9,-38 0,-21 -7,-38 -20,-51 -12,-14 -31,-20 -55,-20 -23,0 -43,8 -59,25 -16,17 -25,40 -25,69 0,22 5,43 15,61 9,18 21,33 37,45 16,13 34,22 55,29 21,7 44,10 67,10l59 0 0 76 -102 0c-38,0 -66,7 -84,21 -19,13 -28,32 -28,54 0,28 12,50 37,67 24,17 60,26 109,26 36,0 74,-6 112,-18 39,-11 70,-30 95,-57l0 -471z"/>
   <path id="30" class="fil5" d="M4004 5880c13,-14 31,-26 56,-36 25,-9 51,-14 78,-14 55,0 97,15 126,45 29,31 44,69 44,114 0,51 -18,93 -53,125 -36,33 -87,49 -152,49 -57,0 -112,-14 -166,-42 -53,-28 -99,-67 -139,-118l62 -53c38,45 77,79 115,101 38,23 79,34 122,34 38,0 67,-9 87,-27 20,-18 30,-41 30,-71 0,-25 -7,-45 -20,-59 -13,-15 -33,-22 -61,-22 -15,0 -30,3 -44,9 -13,6 -27,14 -39,25l-46 -60z"/>
   <polygon id="31" class="fil5" points="4579,5457 4579,5549 4321,5549 4321,5457 "/>
   <path id="32" class="fil5" d="M4913 5296c42,0 78,8 106,22 29,15 51,32 66,50l0 -184 -459 0 0 -75 656 0 0 75 -105 0 0 663 -92 0 0 -184c-14,14 -34,28 -60,42 -26,14 -62,22 -106,22 -32,0 -62,-5 -90,-15 -29,-10 -53,-24 -75,-44 -21,-19 -38,-42 -51,-70 -12,-28 -19,-60 -19,-97 0,-33 6,-63 17,-88 12,-26 28,-47 48,-64 21,-17 45,-30 73,-39 28,-9 58,-14 91,-14zm172 165c-13,-21 -33,-41 -61,-59 -27,-18 -58,-27 -93,-27 -45,0 -81,10 -109,32 -28,21 -41,54 -41,98 0,52 14,89 42,110 28,21 66,32 113,32 21,0 40,-4 58,-10 18,-7 34,-16 47,-27 14,-12 25,-25 33,-41 7,-15 11,-32 11,-50l0 -58z"/>
   <path id="33" class="fil5" d="M5644 5806l-80 53 -226 -332c-13,-18 -21,-32 -26,-41 -4,-10 -6,-19 -6,-28 0,-16 6,-29 19,-38 12,-8 27,-12 43,-12l25 31c9,13 19,21 29,26 10,5 23,7 39,7 30,0 56,-12 77,-35 21,-24 32,-56 32,-99 0,-35 -6,-65 -17,-91 -11,-26 -23,-47 -36,-63l-258 0 0 -75 504 0 0 75 -156 0c13,14 25,35 38,63 12,29 19,61 19,96 0,31 -5,60 -15,85 -9,25 -22,47 -39,65 -17,18 -37,32 -60,42 -24,10 -49,14 -78,14 -4,0 -7,0 -9,0 -2,0 -5,0 -9,-1l190 258z"/>
   <polygon id="34" class="fil5" points="5845,5184 5740,5184 5740,5109 6042,5109 6042,5184 5937,5184 5937,5847 5845,5847 "/>
   <path id="35" class="fil5" d="M6066 5392l0 -76 388 0 0 76 -39 0c-44,0 -78,11 -102,33 -23,22 -35,50 -35,85 0,19 4,36 11,49 7,14 16,25 29,34 12,9 27,16 43,20 16,5 33,7 51,7 34,0 66,-8 95,-23 30,-15 54,-35 75,-60l0 -353 -563 0 0 -75 760 0 0 75 -106 0 0 663 -91 0 0 -214c-7,7 -17,15 -28,23 -12,8 -26,15 -41,22 -15,6 -32,12 -50,16 -19,4 -38,6 -57,6 -32,0 -62,-5 -89,-15 -28,-9 -51,-22 -71,-39 -20,-17 -36,-37 -47,-60 -11,-24 -17,-50 -17,-79 0,-26 6,-50 18,-71 12,-20 27,-35 45,-44l-179 0z"/>
   <path id="36" class="fil5" d="M6217 4839c13,-7 30,-13 51,-18 21,-5 42,-8 64,-8 57,0 104,14 142,43 37,28 69,68 96,119l89 169 -71 0 -91 -136c-11,-17 -22,-31 -33,-44 -10,-13 -22,-24 -35,-33 -13,-9 -27,-16 -43,-20 -16,-4 -34,-7 -54,-7 -16,0 -31,2 -45,6 -15,3 -27,7 -38,12l-32 -83z"/>
   <path id="37" class="fil5" d="M7482 5411l0 -227 -449 0 0 -75 647 0 0 75 -106 0 0 663 -92 0 0 -357 -231 0 6 93c-3,4 -9,9 -18,14 -10,5 -22,8 -38,8 -31,0 -57,-12 -78,-34 -21,-22 -31,-50 -31,-83 0,-20 6,-38 19,-53 13,-16 33,-24 61,-24l310 0z"/>
   <polygon id="38" class="fil5" points="7762,5184 7656,5184 7656,5109 7959,5109 7959,5184 7853,5184 7853,5847 7762,5847 "/>
   <path id="39" class="fil5" d="M8222 5296c43,0 78,8 107,22 28,15 50,32 66,50l0 -184 -460 0 0 -75 657 0 0 75 -106 0 0 663 -91 0 0 -184c-14,14 -34,28 -61,42 -26,14 -61,22 -106,22 -32,0 -62,-5 -90,-15 -28,-10 -53,-24 -74,-44 -22,-19 -39,-42 -51,-70 -13,-28 -19,-60 -19,-97 0,-33 5,-63 17,-88 11,-26 27,-47 48,-64 21,-17 45,-30 73,-39 27,-9 58,-14 90,-14zm173 165c-13,-21 -34,-41 -61,-59 -28,-18 -59,-27 -94,-27 -45,0 -81,10 -108,32 -28,21 -42,54 -42,98 0,52 14,89 42,110 28,21 66,32 114,32 20,0 39,-4 57,-10 18,-7 34,-16 48,-27 14,-12 24,-25 32,-41 8,-15 12,-32 12,-50l0 -58z"/>
   <path id="40" class="fil5" d="M8905 5147c18,-15 43,-27 74,-36 31,-9 62,-13 91,-13 31,0 59,4 85,12 26,8 48,20 68,36 19,16 35,35 46,59 11,23 16,50 16,81 0,37 -9,69 -26,94 -17,25 -37,45 -60,59 23,6 46,11 70,14 23,2 45,4 64,4 24,0 48,-3 73,-10 26,-6 45,-13 57,-22l0 -241 -108 0 0 -75 305 0 0 75 -105 0 0 663 -92 0 0 -329c-28,12 -62,19 -102,19 -17,0 -33,-2 -47,-5 -15,-2 -32,-8 -54,-17l-2 3c14,16 25,33 32,51 8,17 11,38 11,60 0,63 -20,113 -61,149 -41,35 -97,53 -167,53 -18,0 -36,-2 -54,-5 -18,-3 -36,-7 -53,-13 -17,-6 -33,-13 -47,-21 -15,-8 -27,-16 -37,-26l38 -66c21,17 43,30 67,39 23,9 50,13 80,13 19,0 36,-2 53,-7 17,-4 32,-12 45,-22 13,-10 23,-23 31,-40 8,-16 12,-36 12,-59 0,-39 -13,-71 -37,-96 -25,-24 -65,-36 -120,-36l-73 0 0 -76 62 0c46,1 83,-10 110,-32 28,-22 41,-53 41,-94 0,-38 -12,-67 -37,-85 -25,-19 -54,-28 -87,-28 -18,0 -38,2 -60,7 -23,5 -44,15 -64,29l-38 -66z"/>
   <path id="41" class="fil5" d="M9824 5495c14,-8 24,-23 32,-45 8,-21 12,-45 12,-71 0,-37 -8,-73 -23,-106 -15,-33 -36,-63 -62,-89l-146 0 0 -75 681 0 0 75 -105 0 0 663 -92 0 0 -663 -243 0c10,8 19,19 29,32 10,14 19,29 27,47 8,18 15,38 20,60 5,22 8,46 8,72 0,36 -5,67 -14,95 -9,27 -21,50 -36,68 -15,19 -33,32 -52,42 -19,9 -38,14 -58,14 -14,0 -27,-2 -40,-7 -12,-5 -24,-11 -34,-20 -10,-9 -18,-19 -24,-31 -6,-11 -9,-25 -9,-39 0,-22 7,-38 21,-50 14,-12 29,-18 46,-18l62 46z"/>
   <path id="42" class="fil5" d="M10036 4839c13,-7 30,-13 51,-18 20,-5 42,-8 63,-8 58,0 105,14 142,43 38,28 70,68 97,119l70 134 138 0 0 75 -105 0 0 663 -92 0 0 -663 -105 0 0 -75 88 0 -67 -101c-11,-17 -22,-31 -33,-44 -11,-13 -23,-24 -36,-33 -13,-9 -27,-16 -43,-20 -15,-4 -33,-7 -54,-7 -15,0 -30,2 -45,6 -14,3 -27,7 -38,12l-31 -83z"/>
   <path id="43" class="fil5" d="M11120 5628c0,18 -4,34 -11,47 -8,14 -17,25 -25,34l80 183 -85 30 -61 -174c-37,18 -81,27 -131,27 -31,0 -61,-5 -92,-15 -30,-10 -57,-25 -82,-45 -24,-21 -43,-46 -58,-76 -15,-31 -23,-67 -23,-109 0,-41 7,-76 22,-105 14,-29 32,-53 55,-71 23,-19 50,-33 79,-42 30,-9 61,-14 92,-14l91 0 0 -114 -397 0 0 -75 628 0 0 75 -140 0 0 192 -150 0c-26,0 -49,3 -71,9 -23,6 -42,15 -58,28 -17,13 -30,29 -40,48 -10,20 -14,43 -14,71 0,28 4,52 13,73 9,21 21,38 35,51 15,13 31,23 49,29 19,7 37,10 56,10 46,0 81,-9 106,-27l-31 -96c19,-23 44,-34 75,-34 28,0 50,8 65,25 16,17 23,38 23,65z"/>
   <path id="44" class="fil5" d="M11558 5806l-80 53 -226 -332c-13,-18 -21,-32 -26,-41 -4,-10 -6,-19 -6,-28 0,-16 6,-29 19,-38 12,-8 27,-12 43,-12l25 31c9,13 19,21 29,26 10,5 23,7 39,7 30,0 56,-12 77,-35 21,-24 32,-56 32,-99 0,-35 -6,-65 -17,-91 -11,-26 -23,-47 -36,-63l-258 0 0 -75 504 0 0 75 -156 0c13,14 25,35 38,63 12,29 19,61 19,96 0,31 -5,60 -14,85 -10,25 -23,47 -40,65 -17,18 -37,32 -60,42 -24,10 -49,14 -78,14 -3,0 -7,0 -9,0 -2,0 -5,0 -9,-1l190 258z"/>
   <path id="45" class="fil5" d="M12130 5845c-37,-5 -67,-17 -91,-36 -24,-19 -36,-40 -36,-63 0,-14 7,-28 20,-40 14,-12 31,-18 53,-18l85 84c29,0 58,-2 85,-5 28,-4 52,-10 72,-18 21,-9 38,-20 50,-34 13,-13 19,-30 19,-51 0,-50 -40,-76 -120,-76 -21,0 -45,2 -74,6 -28,4 -58,10 -90,19 -14,-11 -28,-23 -42,-36 -13,-13 -25,-27 -36,-42 -10,-15 -19,-30 -25,-47 -6,-17 -9,-35 -9,-55 0,-19 4,-37 12,-54 9,-17 21,-31 36,-44 15,-12 34,-21 55,-28 22,-7 45,-11 71,-11l160 0 0 -112 -393 0 0 -75 610 0 0 75 -127 0 0 190 -220 0c-32,0 -59,5 -80,15 -20,11 -31,30 -31,57 0,28 14,54 40,80 25,-6 50,-11 75,-15 25,-3 51,-5 79,-5 33,0 62,4 88,13 26,9 47,20 64,35 17,14 31,31 40,50 9,19 13,39 13,60 0,29 -7,55 -21,77 -14,21 -33,40 -58,55 -24,15 -53,26 -86,35 -34,8 -70,14 -108,16l135 121 -73 56 -142 -179z"/>
   <path id="46" class="fil5" d="M12307 4940c0,-16 6,-30 18,-43 12,-13 28,-19 47,-19 19,0 35,6 46,19 11,13 17,27 17,43 0,18 -6,33 -18,45 -11,12 -27,18 -45,18 -19,0 -35,-6 -47,-18 -12,-12 -18,-27 -18,-45z"/>
   <path id="47" class="fil5" d="M12706 5495c13,-8 24,-23 32,-45 7,-21 11,-45 11,-71 0,-37 -7,-73 -23,-106 -15,-33 -35,-63 -61,-89l-147 0 0 -75 682 0 0 75 -106 0 0 663 -91 0 0 -200 -282 227 -76 -70 358 -250 0 -370 -243 0c9,8 19,19 29,32 9,14 18,29 27,47 8,18 14,38 19,60 6,22 8,46 8,72 0,36 -4,67 -13,95 -9,27 -22,50 -37,68 -15,19 -32,32 -51,42 -20,9 -39,14 -58,14 -14,0 -28,-2 -40,-7 -13,-5 -24,-11 -34,-20 -10,-9 -18,-19 -24,-31 -6,-11 -9,-25 -9,-39 0,-22 7,-38 20,-50 14,-12 30,-18 47,-18l62 46z"/>
   <path id="48" class="fil5" d="M13594 5427c17,10 34,27 50,51 16,25 25,57 25,95 0,29 -6,55 -16,79 -11,24 -25,44 -44,61 -19,17 -41,30 -67,39 -26,9 -54,13 -83,13 -33,0 -63,-4 -89,-13 -26,-9 -49,-22 -69,-38 -20,-16 -37,-34 -52,-56 -15,-21 -28,-43 -38,-68l68 -36c21,41 44,73 72,97 27,24 62,36 104,36 16,0 31,-3 45,-7 15,-5 28,-12 38,-22 11,-9 20,-21 27,-36 6,-15 10,-32 10,-53 0,-49 -16,-85 -47,-108 -31,-22 -73,-34 -124,-34l-39 0 0 -76 431 0 0 -167 -620 0 0 -75 817 0 0 75 -105 0 0 663 -92 0 0 -420 -202 0z"/>
   <path id="49" class="fil5" d="M14076 5184l-106 0 0 -75 100 0c-6,-19 -13,-41 -22,-65 -9,-24 -20,-47 -34,-68 -14,-21 -30,-39 -49,-53 -19,-15 -41,-22 -65,-22 -54,0 -81,28 -81,86 0,22 4,44 13,65 8,21 18,40 29,57l-56 45 -27 -34c-15,-19 -28,-40 -38,-65 -11,-24 -16,-52 -16,-81 0,-43 15,-80 45,-109 30,-29 72,-44 126,-44 29,0 55,5 79,15 23,10 44,23 62,39 18,16 33,34 47,54 14,20 26,41 35,62 10,21 18,42 24,63 6,21 11,39 14,55l117 0 0 75 -106 0 0 663 -91 0 0 -663z"/>
   <path id="50" class="fil5" d="M14548 5430c-48,0 -82,12 -103,36 -21,24 -32,55 -32,93 0,42 9,83 27,124 17,40 42,85 75,134l-78 41c-35,-49 -64,-98 -85,-146 -22,-48 -33,-100 -33,-157 0,-65 19,-116 56,-152 37,-35 89,-53 156,-53l198 0 0 -166 -480 0 0 -75 677 0 0 75 -106 0 0 663 -91 0 0 -417 -181 0z"/>
   <path id="51" class="fil5" d="M15468 5296c42,0 77,8 106,22 28,15 50,32 66,50l0 -184 -460 0 0 -75 657 0 0 75 -106 0 0 663 -91 0 0 -184c-14,14 -34,28 -60,42 -27,14 -62,22 -107,22 -32,0 -62,-5 -90,-15 -28,-10 -53,-24 -74,-44 -22,-19 -39,-42 -51,-70 -13,-28 -19,-60 -19,-97 0,-33 6,-63 17,-88 11,-26 27,-47 48,-64 21,-17 45,-30 73,-39 27,-9 58,-14 91,-14zm172 165c-13,-21 -34,-41 -61,-59 -27,-18 -59,-27 -94,-27 -44,0 -81,10 -108,32 -28,21 -42,54 -42,98 0,52 14,89 42,110 28,21 66,32 114,32 20,0 40,-4 58,-10 18,-7 33,-16 47,-27 14,-12 24,-25 32,-41 8,-15 12,-32 12,-50l0 -58z"/>
   <path id="52" class="fil5" d="M16541 5411l0 -227 -449 0 0 -75 646 0 0 75 -106 0 0 663 -91 0 0 -357 -231 0 6 93c-4,4 -10,9 -19,14 -10,5 -22,8 -38,8 -31,0 -57,-12 -78,-34 -20,-22 -31,-50 -31,-83 0,-20 7,-38 20,-53 13,-16 33,-24 60,-24l311 0z"/>
   <path id="53" class="fil5" d="M16521 4940c0,-16 6,-30 18,-43 12,-13 28,-19 46,-19 20,0 35,6 47,19 11,13 17,27 17,43 0,18 -6,33 -18,45 -12,12 -27,18 -46,18 -18,0 -34,-6 -46,-18 -12,-12 -18,-27 -18,-45z"/>
   <path id="54" class="fil5" d="M17013 5430c-47,0 -82,12 -103,36 -21,24 -31,55 -31,93 0,42 8,83 26,124 17,40 43,85 76,134l-79 41c-35,-49 -64,-98 -85,-146 -22,-48 -32,-100 -32,-157 0,-65 18,-116 55,-152 38,-35 89,-53 156,-53l198 0 0 -166 -480 0 0 -75 677 0 0 75 -106 0 0 663 -91 0 0 -417 -181 0z"/>
   <path id="55" class="fil5" d="M17752 5806l-80 53 -226 -332c-12,-18 -21,-32 -25,-41 -4,-10 -7,-19 -7,-28 0,-16 7,-29 19,-38 13,-8 27,-12 44,-12l24 31c10,13 19,21 29,26 11,5 24,7 39,7 31,0 56,-12 78,-35 21,-24 31,-56 31,-99 0,-35 -5,-65 -16,-91 -11,-26 -23,-47 -37,-63l-257 0 0 -75 504 0 0 75 -156 0c12,14 25,35 37,63 13,29 19,61 19,96 0,31 -5,60 -14,85 -9,25 -22,47 -39,65 -17,18 -37,32 -61,42 -23,10 -49,14 -77,14 -4,0 -7,0 -9,0 -3,0 -6,0 -10,-1l190 258z"/>
   <path id="56" class="fil5" d="M2857 6548l0 291 243 0 0 -291 -243 0zm0 451c-4,5 -11,10 -22,14 -10,5 -22,7 -36,7 -16,0 -31,-3 -44,-8 -14,-6 -26,-14 -37,-24 -11,-11 -20,-23 -26,-37 -6,-14 -10,-29 -10,-46 0,-20 7,-36 19,-48 12,-12 29,-18 52,-18l14 0 0 -291 -143 0 0 -75 673 0 0 75 -106 0 0 664 -91 0 0 -297 -243 0 0 84z"/>
   <path id="57" class="fil5" d="M3658 7170l-80 53 -226 -332c-12,-18 -21,-31 -25,-41 -4,-10 -7,-19 -7,-28 0,-16 7,-29 19,-37 13,-9 27,-13 44,-13l24 31c10,13 19,22 29,26 11,5 24,7 39,7 31,0 56,-11 78,-35 21,-23 31,-56 31,-98 0,-36 -5,-66 -16,-92 -11,-26 -23,-47 -37,-63l-258 0 0 -75 505 0 0 75 -156 0c12,14 25,35 37,64 13,28 19,60 19,95 0,32 -5,60 -14,85 -9,26 -23,47 -39,65 -17,18 -37,32 -61,42 -23,10 -49,15 -77,15 -4,0 -7,0 -9,0 -3,0 -6,-1 -10,-1l190 257z"/>
   <polygon id="58" class="fil5" points="3860,6548 3754,6548 3754,6473 4057,6473 4057,6548 3951,6548 3951,7212 3860,7212 "/>
   <path id="59" class="fil5" d="M4480 6689c24,8 48,20 72,35 23,16 44,34 63,55 19,22 34,47 45,76 11,29 17,61 17,97 0,40 -7,76 -21,109 -14,32 -34,60 -60,84 -26,23 -56,41 -92,54 -36,12 -76,18 -119,18 -40,0 -77,-6 -113,-18 -36,-12 -67,-29 -93,-53 -27,-23 -48,-51 -64,-83 -15,-33 -23,-71 -23,-113 0,-36 6,-68 18,-95 11,-27 27,-51 47,-71 20,-21 43,-38 69,-51 25,-13 53,-23 82,-30l82 -22 0 -133 -357 0 0 -75 717 0 0 75 -270 0 0 141zm101 261c0,-27 -4,-51 -12,-72 -9,-22 -19,-40 -33,-56 -13,-15 -28,-29 -45,-39 -17,-11 -33,-19 -50,-24l-65 15c-59,13 -105,34 -138,61 -33,27 -50,64 -50,113 0,33 6,62 17,86 11,24 26,43 45,58 18,15 39,26 62,33 24,7 47,10 71,10 25,0 49,-3 73,-10 24,-7 45,-18 63,-33 19,-15 34,-34 45,-58 11,-23 17,-51 17,-84z"/>
   <path id="60" class="fil5" d="M4820 6548l-105 0 0 -75 92 0c-6,-19 -16,-40 -29,-64 -13,-24 -30,-46 -50,-67 -20,-21 -43,-38 -68,-53 -26,-14 -55,-21 -86,-21 -45,0 -77,10 -97,32 -21,21 -31,48 -31,79 0,23 3,43 8,62 6,18 12,35 20,52l-67 26 -14 -19c-11,-14 -21,-33 -30,-57 -9,-23 -13,-47 -13,-72 0,-24 5,-48 14,-71 9,-22 23,-42 42,-59 18,-17 41,-30 68,-40 28,-10 59,-16 95,-16 52,0 97,11 135,32 37,21 69,47 96,76 26,30 47,61 62,94 16,33 28,62 37,86l118 0 0 75 -105 0 0 664 -92 0 0 -664z"/>
   <path id="61" class="fil5" d="M5293 6794c-48,0 -82,12 -103,36 -22,25 -32,56 -32,93 0,42 9,84 26,124 18,40 43,85 76,134l-79 41c-35,-49 -63,-98 -85,-146 -21,-48 -32,-100 -32,-156 0,-66 19,-117 56,-152 37,-36 89,-54 155,-54l198 0 0 -166 -479 0 0 -75 676 0 0 75 -105 0 0 664 -92 0 0 -418 -180 0z"/>
   <path id="62" class="fil5" d="M5327 7350c0,-47 15,-85 45,-113 30,-29 74,-43 133,-43 37,0 71,6 101,19 31,13 60,32 87,55 26,24 51,53 74,85 23,33 46,70 68,109l-71 43c-18,-32 -36,-62 -54,-91 -19,-28 -38,-52 -59,-73 -21,-22 -42,-38 -65,-51 -23,-12 -47,-19 -74,-19 -33,0 -57,8 -73,24 -15,16 -23,36 -23,58 0,24 8,43 24,57 17,15 38,22 64,22 10,0 18,-1 25,-2 7,-2 14,-5 23,-9l32 68c-13,7 -25,11 -38,15 -12,3 -28,4 -47,4 -26,0 -50,-4 -71,-12 -22,-8 -39,-20 -54,-34 -15,-15 -27,-31 -35,-51 -8,-19 -12,-39 -12,-61z"/>
   <path id="63" class="fil5" d="M6096 6775l0 -227 -449 0 0 -75 646 0 0 75 -106 0 0 664 -91 0 0 -358 -231 0 6 94c-3,4 -10,8 -19,13 -9,5 -22,8 -37,8 -32,0 -58,-11 -78,-34 -21,-22 -31,-49 -31,-82 0,-21 6,-39 19,-54 13,-16 33,-24 60,-24l311 0z"/>
   <path id="64" class="fil5" d="M6748 7023c-4,4 -11,9 -21,14 -10,5 -22,7 -36,7 -16,0 -31,-3 -45,-8 -15,-6 -28,-14 -39,-24 -11,-10 -21,-22 -28,-36 -7,-14 -10,-30 -10,-47 0,-20 7,-37 21,-49 14,-12 32,-18 55,-18l13 0 0 -245c0,-26 -5,-46 -14,-60 -9,-14 -24,-21 -45,-21 -21,0 -38,6 -51,17 -13,11 -19,30 -19,56 0,20 5,39 16,55 10,16 25,30 43,40l-34 65c-14,-4 -29,-11 -43,-21 -14,-10 -26,-22 -37,-36 -11,-14 -20,-30 -27,-47 -6,-18 -9,-37 -9,-57 0,-21 3,-41 11,-59 7,-18 18,-34 31,-48 14,-13 30,-24 50,-31 19,-8 40,-11 63,-11 54,0 93,14 118,44 25,29 37,68 37,118l0 241 209 0 0 -314 -124 0 0 -75 321 0 0 75 -106 0 0 664 -91 0 0 -274 -209 0 0 85z"/>
   <path id="65" class="fil5" d="M7515 7170l-80 53 -226 -332c-12,-18 -21,-31 -25,-41 -4,-10 -7,-19 -7,-28 0,-16 7,-29 19,-37 13,-9 27,-13 44,-13l24 31c10,13 19,22 30,26 10,5 23,7 38,7 31,0 57,-11 78,-35 21,-23 31,-56 31,-98 0,-36 -5,-66 -16,-92 -11,-26 -23,-47 -36,-63l-258 0 0 -75 504 0 0 75 -156 0c12,14 25,35 37,64 13,28 19,60 19,95 0,32 -5,60 -14,85 -9,26 -22,47 -39,65 -17,18 -37,32 -61,42 -23,10 -49,15 -77,15 -4,0 -7,0 -9,0 -3,0 -6,-1 -10,-1l190 257z"/>
   <polygon id="66" class="fil5" points="7717,6548 7611,6548 7611,6473 7914,6473 7914,6548 7808,6548 7808,7212 7717,7212 "/>
   <path id="67" class="fil5" d="M8470 6548l0 664 -92 0 0 -208c-13,12 -32,23 -57,33 -25,10 -59,15 -101,15 -34,0 -68,-6 -100,-18 -32,-11 -60,-29 -85,-53 -25,-24 -46,-53 -61,-89 -16,-36 -24,-77 -25,-124l34 -1c59,-1 100,-11 123,-29 23,-17 34,-44 34,-79 0,-22 -4,-42 -14,-60 -9,-19 -21,-36 -36,-51l-200 0 0 -75 685 0 0 75 -105 0zm-92 0l-197 0c14,13 26,30 37,51 11,21 16,44 16,71 0,51 -17,91 -50,120 -34,29 -82,46 -143,50 7,40 27,72 58,96 31,24 73,36 124,36 33,0 64,-6 91,-17 28,-12 49,-27 64,-46l0 -361z"/>
   <path id="68" class="fil5" d="M8599 6757l0 -77 388 0 0 77 -39 0c-44,0 -78,11 -102,32 -23,22 -35,50 -35,85 0,19 3,36 11,50 7,13 16,25 29,34 12,9 27,15 43,20 16,4 33,6 51,6 34,0 66,-8 95,-23 30,-15 54,-35 75,-60l0 -353 -563 0 0 -75 760 0 0 75 -106 0 0 664 -91 0 0 -215c-7,8 -17,16 -28,23 -12,8 -26,15 -41,22 -15,7 -32,12 -50,16 -19,4 -38,6 -57,6 -32,0 -62,-5 -89,-14 -28,-10 -51,-23 -71,-40 -20,-16 -36,-37 -47,-60 -12,-23 -17,-50 -17,-79 0,-26 6,-50 18,-70 12,-21 27,-36 45,-44l-179 0z"/>
   <path id="69" class="fil5" d="M8750 6203c13,-7 30,-13 51,-18 21,-5 42,-8 64,-8 57,0 104,15 142,43 37,29 69,68 96,119l89 169 -71 0 -91 -136c-11,-16 -22,-31 -33,-44 -11,-13 -22,-24 -35,-33 -13,-9 -28,-16 -43,-20 -16,-4 -34,-6 -54,-6 -16,0 -31,1 -45,5 -15,4 -27,8 -38,12l-32 -83z"/>
   <path id="70" class="fil5" d="M9503 6511c18,-14 43,-26 74,-35 31,-9 62,-14 91,-14 31,0 59,4 85,13 26,8 48,20 68,35 19,16 35,35 46,59 11,23 16,50 16,81 0,37 -9,69 -26,94 -17,26 -37,45 -60,59 23,7 46,11 70,14 23,3 45,4 64,4 24,0 48,-3 73,-9 26,-7 45,-14 57,-23l0 -241 -108 0 0 -75 584 0 0 75 -105 0 0 664 -92 0 0 -664 -187 0 0 664 -92 0 0 -330c-28,13 -62,19 -102,19 -17,0 -33,-2 -47,-4 -15,-3 -32,-9 -54,-17l-2 2c14,16 25,33 32,51 8,18 11,38 11,60 0,64 -20,113 -61,149 -41,35 -97,53 -167,53 -18,0 -36,-1 -54,-5 -18,-3 -36,-7 -53,-13 -17,-6 -33,-13 -47,-21 -15,-7 -27,-16 -37,-25l38 -67c21,17 43,30 67,39 23,9 50,14 80,14 19,0 36,-3 53,-7 17,-5 32,-13 45,-23 13,-10 23,-23 31,-40 8,-16 12,-36 12,-58 0,-40 -13,-72 -37,-96 -25,-25 -65,-37 -120,-37l-73 0 0 -76 62 0c46,1 83,-10 110,-32 28,-22 41,-53 41,-93 0,-39 -12,-67 -37,-86 -25,-19 -54,-28 -87,-28 -18,0 -38,2 -60,7 -23,5 -44,15 -64,29l-38 -66z"/>
   <path id="71" class="fil5" d="M10911 7326c-56,-6 -104,-17 -145,-34 -41,-16 -74,-36 -100,-59 -26,-24 -46,-50 -58,-79 -13,-30 -19,-61 -19,-93 0,-30 5,-56 15,-78 9,-21 22,-40 38,-55 -17,-18 -32,-38 -45,-58 -13,-21 -20,-46 -20,-75 0,-22 4,-41 13,-58 8,-17 19,-30 32,-41 14,-11 30,-20 48,-25 19,-6 38,-8 59,-8l163 0 0 -115 -385 0 0 -75 617 0 0 75 -142 0 0 190 -222 0c-24,0 -45,4 -63,12 -17,8 -26,26 -26,55 0,15 3,30 9,43 7,13 14,25 23,36 20,-11 42,-20 66,-24 24,-5 48,-7 73,-7 33,0 63,4 89,14 26,9 48,22 66,38 18,17 32,36 42,57 9,22 14,45 14,69 0,25 -5,49 -15,71 -10,22 -23,41 -39,56l-70 -51c10,-10 18,-21 24,-33 6,-12 9,-26 9,-42 0,-12 -2,-24 -7,-36 -4,-12 -11,-23 -20,-32 -9,-9 -22,-17 -38,-23 -15,-7 -34,-10 -57,-10 -47,0 -85,13 -114,37 -29,25 -43,57 -43,96 0,21 3,42 10,62 6,20 19,39 38,56 19,16 44,31 77,44 33,12 76,21 128,27l-25 73z"/>
   <path id="72" class="fil5" d="M10520 6203c13,-7 30,-13 51,-18 20,-5 42,-8 64,-8 57,0 104,15 142,43 37,29 69,68 96,119l89 169 -72 0 -90 -136c-11,-16 -22,-31 -33,-44 -11,-13 -23,-24 -36,-33 -12,-9 -27,-16 -42,-20 -16,-4 -34,-6 -54,-6 -16,0 -31,1 -45,5 -15,4 -28,8 -39,12l-31 -83z"/>
   <path id="73" class="fil5" d="M11193 7148c0,-20 7,-37 21,-51 14,-14 31,-21 50,-21 20,0 37,7 50,21 14,14 21,31 21,51 0,23 -7,41 -21,54 -13,13 -30,20 -50,20 -19,0 -36,-7 -50,-20 -14,-13 -21,-31 -21,-54z"/>
   <path id="74" class="fil5" d="M3073 8919l0 -227 -449 0 0 -75 646 0 0 75 -106 0 0 663 -91 0 0 -357 -231 0 6 94c-3,3 -10,8 -19,13 -9,5 -22,8 -38,8 -31,0 -57,-11 -77,-34 -21,-22 -32,-50 -32,-82 0,-21 7,-39 20,-54 13,-16 33,-24 60,-24l311 0z"/>
   <polygon id="75" class="fil5" points="3352,8692 3247,8692 3247,8617 3549,8617 3549,8692 3444,8692 3444,9355 3352,9355 "/>
   <path id="76" class="fil5" d="M3813 8804c42,0 77,8 106,23 29,14 51,31 66,49l0 -184 -459 0 0 -75 656 0 0 75 -105 0 0 663 -92 0 0 -184c-14,14 -34,28 -60,43 -26,14 -62,21 -106,21 -32,0 -62,-5 -91,-15 -28,-10 -53,-24 -74,-43 -22,-20 -39,-43 -51,-71 -13,-28 -19,-60 -19,-97 0,-33 6,-63 17,-88 12,-25 28,-47 48,-64 21,-17 45,-30 73,-39 28,-9 58,-14 91,-14zm172 166c-13,-22 -33,-42 -61,-60 -27,-18 -58,-27 -94,-27 -44,0 -80,11 -108,32 -28,22 -42,54 -42,98 0,52 14,89 43,110 28,21 66,32 113,32 21,0 40,-3 58,-10 18,-7 34,-16 47,-27 14,-11 25,-25 33,-41 7,-15 11,-32 11,-50l0 -57z"/>
   <path id="77" class="fil5" d="M4764 8919l0 -227 -449 0 0 -75 646 0 0 75 -105 0 0 663 -92 0 0 -357 -231 0 6 94c-3,3 -9,8 -19,13 -9,5 -22,8 -37,8 -32,0 -58,-11 -78,-34 -21,-22 -31,-50 -31,-82 0,-21 6,-39 19,-54 13,-16 33,-24 60,-24l311 0z"/>
   <path id="78" class="fil5" d="M4696 8347c13,-7 30,-13 51,-18 21,-5 42,-8 64,-8 57,0 104,14 142,43 37,28 70,68 96,119l70 134 121 0 0 75 -105 0 0 663 -92 0 0 -663 -105 0 0 -75 105 0 -67 -101c-11,-17 -21,-31 -32,-44 -11,-13 -23,-24 -36,-33 -13,-9 -27,-16 -43,-20 -16,-4 -34,-6 -54,-6 -16,0 -31,1 -45,5 -15,3 -27,7 -38,12l-32 -83zm440 101c0,-16 6,-30 18,-43 12,-13 28,-19 46,-19 20,0 35,6 47,19 11,13 17,27 17,43 0,18 -6,33 -18,45 -12,12 -27,18 -46,18 -18,0 -34,-6 -46,-18 -12,-12 -18,-27 -18,-45z"/>
   <path id="79" class="fil5" d="M5763 9136c0,18 -4,34 -11,48 -8,13 -16,24 -25,33l80 183 -85 30 -61 -174c-37,18 -81,27 -131,27 -31,0 -61,-5 -92,-15 -30,-10 -57,-25 -82,-45 -24,-20 -43,-46 -58,-76 -15,-31 -23,-67 -23,-109 0,-41 7,-76 22,-105 14,-29 32,-53 55,-71 23,-19 50,-33 79,-42 30,-9 61,-13 92,-13l91 0 0 -115 -397 0 0 -75 628 0 0 75 -140 0 0 192 -150 0c-25,0 -49,3 -71,9 -23,6 -42,15 -58,28 -17,13 -30,29 -40,49 -10,19 -14,43 -14,70 0,28 4,53 13,73 9,21 21,38 35,51 15,14 31,23 50,30 18,6 36,9 55,9 46,0 81,-9 106,-27l-31 -96c19,-23 44,-34 75,-34 28,0 50,8 65,25 16,17 23,39 23,65z"/>
   <path id="80" class="fil5" d="M5810 8692l0 -75 834 0 0 75 -106 0 0 663 -91 0 0 -663 -160 0 0 262c0,35 -4,65 -14,90 -10,25 -24,47 -41,65 -18,17 -39,30 -63,39 -24,8 -51,13 -80,13 -57,0 -104,-18 -140,-52 -36,-35 -54,-87 -54,-155l0 -262 -85 0zm176 260c0,47 9,80 26,100 18,20 43,30 76,30 35,0 62,-10 80,-31 19,-21 28,-54 28,-99l0 -260 -210 0 0 260z"/>
   <path id="81" class="fil5" d="M6726 8692l-106 0 0 -75 100 0c-5,-19 -13,-41 -22,-65 -9,-24 -20,-47 -34,-68 -13,-21 -30,-39 -49,-53 -19,-15 -41,-22 -65,-22 -54,0 -81,29 -81,86 0,22 4,44 13,65 9,21 18,40 29,57l-56 45 -27 -34c-15,-18 -27,-40 -38,-65 -11,-24 -16,-52 -16,-81 0,-43 15,-79 45,-109 30,-29 72,-44 126,-44 29,0 56,5 79,15 23,10 44,23 62,39 18,16 34,34 48,54 13,21 25,41 35,62 10,21 17,42 23,63 6,21 11,39 15,55l116 0 0 75 -106 0 0 663 -91 0 0 -663z"/>
   <path id="82" class="fil5" d="M7289 8692l0 290 243 0 0 -290 -243 0zm0 451c-4,5 -11,10 -22,14 -10,5 -22,7 -37,7 -15,0 -30,-3 -43,-9 -14,-5 -27,-13 -37,-24 -11,-10 -20,-22 -26,-36 -6,-14 -10,-29 -10,-46 0,-20 6,-36 19,-48 12,-12 29,-19 52,-19l14 0 0 -290 -143 0 0 -75 673 0 0 75 -106 0 0 663 -91 0 0 -296 -243 0 0 84z"/>
   <path id="83" class="fil5" d="M7446 8347c14,-7 31,-13 51,-18 21,-5 42,-8 64,-8 57,0 105,14 142,43 38,28 70,68 96,119l71 134 138 0 0 75 -106 0 0 663 -91 0 0 -663 -106 0 0 -75 88 0 -66 -101c-11,-17 -22,-31 -33,-44 -11,-13 -23,-24 -36,-33 -13,-9 -27,-16 -43,-20 -16,-4 -34,-6 -54,-6 -15,0 -31,1 -45,5 -14,3 -27,7 -38,12l-32 -83z"/>
   <path id="84" class="fil5" d="M8914 8692l-415 0 0 197c17,-21 39,-36 68,-48 28,-11 57,-17 87,-17 30,0 57,5 82,14 25,10 47,23 65,41 18,17 31,38 41,63 10,25 15,52 15,83 0,34 -6,65 -18,92 -11,27 -27,50 -48,68 -20,19 -45,33 -74,43 -29,10 -60,15 -93,15l-6 -78c15,0 31,-4 48,-10 17,-5 33,-14 47,-25 15,-12 27,-26 36,-43 9,-17 14,-38 14,-61 0,-40 -11,-71 -33,-92 -22,-22 -51,-32 -86,-32 -30,0 -57,7 -81,23 -25,16 -46,38 -64,68l0 362 -89 0 0 -288c-12,13 -30,25 -54,36 -25,11 -54,17 -87,17 -27,0 -53,-4 -78,-12 -24,-8 -46,-20 -64,-36 -18,-17 -33,-37 -44,-61 -11,-25 -16,-53 -16,-86l0 -233 -83 0 0 -75 930 0 0 75zm-756 224c0,44 10,76 31,96 20,19 49,29 86,29 29,0 56,-7 79,-21 24,-14 43,-33 56,-56l0 -272 -252 0 0 224z"/>
   <path id="85" class="fil5" d="M9190 8938c-48,0 -82,12 -103,36 -21,25 -32,55 -32,93 0,42 9,83 26,124 18,40 43,85 76,134l-78 41c-36,-49 -64,-98 -85,-146 -22,-48 -33,-100 -33,-157 0,-65 19,-116 56,-151 37,-36 89,-54 155,-54l199 0 0 -166 -480 0 0 -75 677 0 0 75 -106 0 0 663 -91 0 0 -417 -181 0z"/>
   <path id="86" class="fil5" d="M9759 8655c18,-15 43,-26 74,-35 31,-9 62,-14 91,-14 31,0 59,4 85,12 26,9 48,21 68,36 19,16 34,35 45,59 11,23 17,50 17,81 0,37 -9,69 -26,94 -17,26 -37,45 -60,59 23,7 46,11 69,14 24,3 45,4 65,4 23,0 48,-3 73,-9 26,-7 45,-14 57,-23l0 -241 -108 0 0 -75 584 0 0 75 -105 0 0 663 -92 0 0 -663 -187 0 0 663 -92 0 0 -329c-28,12 -62,19 -102,19 -17,0 -33,-2 -47,-4 -15,-3 -33,-9 -54,-17l-2 2c14,16 25,33 32,51 8,17 11,38 11,60 0,64 -20,113 -61,149 -41,35 -97,53 -167,53 -18,0 -36,-2 -54,-5 -18,-3 -36,-7 -53,-13 -17,-6 -33,-13 -48,-21 -14,-8 -26,-16 -37,-26l39 -66c20,17 43,30 66,39 24,9 51,13 81,13 19,0 36,-2 53,-7 17,-4 32,-12 45,-22 13,-10 23,-23 31,-40 8,-16 11,-36 11,-58 0,-40 -12,-72 -36,-97 -25,-24 -65,-36 -121,-36l-72 0 0 -76 62 0c46,1 83,-10 110,-32 27,-22 41,-53 41,-94 0,-38 -12,-66 -37,-85 -25,-19 -54,-28 -87,-28 -18,0 -38,2 -61,7 -22,5 -43,15 -64,29l-37 -66z"/>
   <path id="87" class="fil5" d="M11167 9470c-56,-6 -104,-17 -145,-34 -41,-16 -74,-36 -100,-59 -27,-24 -46,-50 -58,-80 -13,-29 -19,-60 -19,-92 0,-30 5,-56 14,-78 10,-21 23,-40 39,-55 -18,-18 -33,-38 -46,-58 -12,-21 -19,-46 -19,-75 0,-22 4,-41 12,-58 9,-17 20,-31 33,-42 14,-11 30,-19 48,-24 19,-6 38,-8 58,-8l163 0 0 -115 -384 0 0 -75 617 0 0 75 -142 0 0 190 -222 0c-24,0 -45,4 -63,12 -17,8 -26,26 -26,54 0,16 3,31 9,44 7,13 14,25 23,36 20,-11 42,-20 66,-24 24,-5 48,-7 73,-7 33,0 62,4 89,14 26,9 48,22 66,38 18,17 32,36 42,57 9,22 14,45 14,69 0,25 -5,48 -15,71 -10,22 -23,41 -39,55l-70 -50c10,-10 18,-21 24,-33 6,-13 9,-26 9,-42 0,-12 -2,-24 -7,-36 -4,-12 -11,-23 -20,-32 -10,-9 -22,-17 -38,-23 -15,-7 -35,-10 -57,-10 -47,0 -85,12 -114,37 -29,25 -43,57 -43,96 0,21 3,41 10,62 6,20 19,39 38,56 18,16 44,31 77,43 33,13 76,22 128,27l-25 74z"/>
   <path id="88" class="fil5" d="M10776 8347c13,-7 30,-13 51,-18 20,-5 42,-8 64,-8 57,0 104,14 141,43 38,28 70,68 97,119l89 169 -72 0 -90 -136c-11,-17 -22,-31 -33,-44 -11,-13 -23,-24 -36,-33 -13,-9 -27,-16 -43,-20 -15,-4 -33,-6 -53,-6 -16,0 -31,1 -46,5 -14,3 -27,7 -38,12l-31 -83z"/>
   <path id="89" class="fil5" d="M2857 10836l0 290 243 0 0 -290 -243 0zm0 451c-4,5 -11,9 -22,14 -10,5 -22,7 -36,7 -16,0 -31,-3 -44,-9 -14,-6 -26,-14 -37,-24 -11,-10 -20,-22 -26,-36 -6,-14 -10,-29 -10,-46 0,-20 7,-36 19,-48 12,-13 29,-19 52,-19l14 0 0 -290 -143 0 0 -76 673 0 0 76 -106 0 0 663 -91 0 0 -296 -243 0 0 84z"/>
   <path id="90" class="fil5" d="M3658 11458l-80 53 -226 -332c-12,-18 -21,-32 -25,-42 -4,-9 -7,-18 -7,-27 0,-16 7,-29 19,-38 13,-8 27,-12 44,-12l24 31c10,13 19,21 29,26 11,5 24,7 39,7 31,0 56,-12 78,-35 21,-24 31,-56 31,-99 0,-35 -5,-65 -16,-91 -11,-26 -23,-47 -37,-63l-258 0 0 -76 505 0 0 76 -156 0c12,14 25,35 37,63 13,29 19,61 19,96 0,31 -5,60 -14,85 -9,25 -23,47 -39,65 -17,18 -37,32 -61,42 -23,10 -49,14 -77,14 -4,0 -7,0 -9,0 -3,0 -6,0 -10,-1l190 258z"/>
   <polygon id="91" class="fil5" points="3860,10836 3754,10836 3754,10760 4057,10760 4057,10836 3951,10836 3951,11499 3860,11499 "/>
   <path id="92" class="fil5" d="M4480 10976c24,9 48,21 72,36 23,15 44,34 63,55 19,22 34,47 45,76 11,29 17,61 17,97 0,40 -7,76 -21,109 -14,32 -34,60 -60,83 -26,24 -56,42 -92,54 -36,13 -76,19 -119,19 -40,0 -77,-6 -113,-18 -36,-12 -67,-30 -93,-53 -27,-23 -48,-51 -64,-84 -15,-33 -23,-70 -23,-112 0,-36 6,-68 18,-95 11,-28 27,-51 47,-72 20,-20 43,-37 69,-50 25,-13 53,-24 82,-31l82 -21 0 -133 -357 0 0 -76 717 0 0 76 -270 0 0 140zm101 262c0,-27 -4,-51 -12,-72 -9,-22 -19,-40 -33,-56 -13,-16 -28,-29 -45,-39 -17,-11 -33,-19 -50,-24l-65 15c-59,13 -105,33 -138,60 -33,27 -50,65 -50,113 0,34 6,63 17,87 11,23 26,43 45,58 18,14 39,25 62,32 24,8 47,11 71,11 25,0 49,-3 73,-11 24,-7 45,-18 63,-32 19,-15 34,-34 45,-58 11,-23 17,-51 17,-84z"/>
   <path id="93" class="fil5" d="M4820 10836l-105 0 0 -76 92 0c-6,-18 -16,-40 -29,-63 -13,-24 -30,-47 -50,-67 -20,-21 -43,-39 -68,-53 -26,-15 -55,-22 -86,-22 -45,0 -77,11 -97,33 -21,21 -31,47 -31,79 0,22 3,43 8,61 6,19 12,36 20,52l-67 26 -14 -19c-11,-14 -21,-32 -30,-56 -9,-23 -13,-48 -13,-73 0,-24 5,-47 14,-70 9,-23 23,-42 42,-59 18,-17 41,-30 68,-41 28,-10 59,-15 95,-15 52,0 97,11 135,32 37,21 69,46 96,76 26,30 47,61 62,94 16,33 28,61 37,85l118 0 0 76 -105 0 0 663 -92 0 0 -663z"/>
   <path id="94" class="fil5" d="M5293 11082c-48,0 -82,12 -103,36 -22,24 -32,55 -32,93 0,42 9,83 26,123 18,41 43,86 76,135l-79 41c-35,-49 -63,-98 -85,-146 -21,-48 -32,-100 -32,-157 0,-65 19,-116 56,-152 37,-35 89,-53 155,-53l198 0 0 -166 -479 0 0 -76 676 0 0 76 -105 0 0 663 -92 0 0 -417 -180 0z"/>
   <path id="95" class="fil5" d="M8025 11458l-80 53 -226 -332c-13,-18 -21,-32 -25,-42 -5,-9 -7,-18 -7,-27 0,-16 7,-29 19,-38 13,-8 27,-12 43,-12l25 31c9,13 19,21 29,26 11,5 23,7 39,7 31,0 56,-12 77,-35 22,-24 32,-56 32,-99 0,-35 -5,-65 -16,-91 -11,-26 -23,-47 -37,-63l-258 0 0 -76 806 0 0 76 -106 0 0 663 -91 0 0 -303c-31,15 -75,23 -131,23 -28,0 -55,-5 -82,-14 -28,-9 -52,-21 -72,-35 -30,21 -67,31 -110,31 -4,0 -7,0 -10,0 -2,0 -5,0 -9,-1l190 258zm81 -321c33,0 61,-4 85,-12 24,-8 43,-17 58,-29l0 -260 -260 0c12,14 25,35 37,63 13,29 19,61 19,96 0,48 -11,89 -33,123 14,6 29,11 44,14 14,3 31,5 50,5z"/>
   <path id="96" class="fil5" d="M8153 11532c12,-14 31,-26 56,-36 24,-9 50,-14 78,-14 54,0 96,15 126,45 29,31 44,69 44,114 0,51 -18,93 -54,125 -35,32 -86,49 -152,49 -57,0 -112,-14 -165,-42 -53,-28 -100,-67 -140,-118l63 -53c38,45 76,79 115,101 38,23 78,34 121,34 39,0 68,-9 88,-27 20,-18 30,-41 30,-71 0,-25 -7,-45 -20,-59 -13,-15 -34,-22 -61,-22 -16,0 -30,3 -44,9 -14,6 -27,14 -39,25l-46 -60z"/>
   <path id="97" class="fil5" d="M8811 11092c-14,-14 -30,-24 -50,-31 -20,-7 -38,-11 -55,-11 -38,0 -69,11 -94,32 -25,21 -37,55 -37,101 0,32 5,60 16,86 10,25 25,48 43,70 18,21 39,40 62,57 24,17 49,33 76,47l-56 67c-32,-17 -63,-37 -91,-59 -29,-23 -54,-48 -75,-75 -21,-27 -38,-57 -50,-90 -13,-33 -19,-69 -19,-108 0,-36 6,-67 18,-93 11,-25 27,-47 47,-64 19,-16 42,-29 67,-37 26,-8 52,-12 79,-12 30,0 58,5 84,17 26,11 49,27 69,47 14,-19 33,-35 57,-46 23,-11 49,-16 76,-16 13,0 26,1 40,3 13,2 24,5 31,9l0 -150 -626 0 0 -76 823 0 0 76 -106 0 0 663 -91 0 0 -438c-7,-3 -14,-6 -23,-8 -9,-2 -20,-3 -34,-3 -39,0 -68,17 -86,51 -17,34 -27,84 -30,151l-90 0c0,-38 3,-70 8,-96 5,-26 10,-47 17,-64z"/>
   <path id="98" class="fil5" d="M9545 11310c-4,5 -11,10 -21,15 -11,4 -23,7 -37,7 -15,0 -30,-3 -45,-9 -14,-5 -27,-13 -39,-23 -11,-10 -20,-22 -27,-36 -7,-15 -11,-30 -11,-47 0,-21 7,-37 21,-49 15,-12 33,-18 56,-18l12 0 0 -245c0,-26 -4,-46 -14,-60 -9,-14 -24,-21 -44,-21 -21,0 -38,5 -51,17 -13,11 -20,30 -20,56 0,20 6,38 16,55 11,16 25,29 43,39l-34 66c-14,-5 -28,-12 -42,-22 -14,-9 -27,-21 -38,-35 -11,-14 -19,-30 -26,-48 -7,-17 -10,-36 -10,-57 0,-21 4,-40 11,-58 8,-18 18,-34 32,-48 13,-13 30,-24 49,-31 19,-8 41,-12 64,-12 53,0 92,15 117,44 25,30 38,69 38,118l0 242 209 0 0 -314 -125 0 0 -76 321 0 0 76 -105 0 0 663 -91 0 0 -273 -209 0 0 84z"/>
   <path id="99" class="fil5" d="M10226 11082c-48,0 -82,12 -103,36 -21,24 -32,55 -32,93 0,42 9,83 27,123 17,41 42,86 75,135l-78 41c-35,-49 -64,-98 -85,-146 -22,-48 -33,-100 -33,-157 0,-65 19,-116 56,-152 37,-35 89,-53 156,-53l198 0 0 -166 -480 0 0 -76 677 0 0 76 -106 0 0 663 -91 0 0 -417 -181 0z"/>
   <path id="100" class="fil5" d="M10042 10491c13,-7 30,-13 51,-18 21,-5 42,-8 64,-8 57,0 104,14 142,43 37,28 69,68 96,119l89 169 -71 0 -91 -136c-11,-17 -22,-31 -33,-44 -11,-13 -22,-24 -35,-33 -13,-9 -28,-16 -43,-20 -16,-4 -34,-7 -54,-7 -16,0 -31,2 -45,6 -15,3 -27,7 -38,12l-32 -83z"/>
   <path id="101" class="fil5" d="M11029 11063l0 -227 -449 0 0 -76 646 0 0 76 -105 0 0 663 -92 0 0 -357 -231 0 6 93c-3,4 -9,9 -19,14 -9,5 -21,8 -37,8 -31,0 -57,-12 -78,-34 -21,-22 -31,-50 -31,-83 0,-20 6,-38 19,-54 13,-15 33,-23 61,-23l310 0z"/>
   <path id="102" class="fil5" d="M10665 10491c13,-7 30,-13 51,-18 20,-5 42,-8 64,-8 57,0 104,14 141,43 38,28 70,68 97,119l89 169 -72 0 -90 -136c-11,-17 -22,-31 -33,-44 -11,-13 -23,-24 -36,-33 -13,-9 -27,-16 -42,-20 -16,-4 -34,-7 -54,-7 -16,0 -31,2 -46,6 -14,3 -27,7 -38,12l-31 -83z"/>
   <path id="103" class="fil5" d="M13519 11310c-4,5 -11,10 -21,15 -10,4 -23,7 -37,7 -15,0 -30,-3 -45,-9 -14,-5 -27,-13 -38,-23 -12,-10 -21,-22 -28,-36 -7,-15 -11,-30 -11,-47 0,-21 7,-37 22,-49 14,-12 32,-18 55,-18l13 0 0 -245c0,-26 -5,-46 -14,-60 -10,-14 -25,-21 -45,-21 -21,0 -38,5 -51,17 -13,11 -19,30 -19,56 0,20 5,38 15,55 11,16 25,29 43,39l-34 66c-14,-5 -28,-12 -42,-22 -14,-9 -27,-21 -38,-35 -10,-14 -19,-30 -26,-48 -7,-17 -10,-36 -10,-57 0,-21 4,-40 11,-58 8,-18 18,-34 32,-48 14,-13 30,-24 49,-31 19,-8 41,-12 64,-12 53,0 92,15 117,44 25,30 38,69 38,118l0 242 209 0 0 -314 -125 0 0 -76 322 0 0 76 -106 0 0 663 -91 0 0 -273 -209 0 0 84z"/>
   <path id="104" class="fil5" d="M14286 11458l-80 53 -226 -332c-13,-18 -21,-32 -25,-42 -5,-9 -7,-18 -7,-27 0,-16 6,-29 19,-38 12,-8 27,-12 43,-12l25 31c9,13 19,21 29,26 10,5 23,7 39,7 30,0 56,-12 77,-35 21,-24 32,-56 32,-99 0,-35 -6,-65 -17,-91 -10,-26 -23,-47 -36,-63l-258 0 0 -76 504 0 0 76 -156 0c13,14 25,35 38,63 12,29 19,61 19,96 0,31 -5,60 -14,85 -10,25 -23,47 -40,65 -16,18 -37,32 -60,42 -23,10 -49,14 -77,14 -4,0 -7,0 -10,0 -2,0 -5,0 -9,-1l190 258z"/>
   <path id="105" class="fil5" d="M15465 10836l0 663 -91 0 0 -207c-13,11 -32,22 -57,33 -25,10 -59,15 -101,15 -35,0 -68,-6 -100,-18 -32,-12 -61,-29 -86,-53 -25,-24 -45,-54 -61,-89 -15,-36 -23,-77 -24,-124l34 -1c58,-2 99,-11 122,-29 23,-17 35,-44 35,-79 0,-22 -5,-42 -14,-60 -9,-19 -22,-36 -36,-51l-227 0 0 262c0,35 -5,64 -14,90 -10,25 -24,47 -41,64 -18,18 -39,31 -63,40 -24,8 -51,13 -80,13 -57,0 -104,-18 -140,-53 -36,-34 -55,-86 -55,-154l0 -262 -84 0 0 -76 1189 0 0 76 -106 0zm-91 0l-197 0c13,13 25,30 36,51 11,20 17,44 17,70 0,51 -17,91 -51,121 -33,29 -81,46 -143,50 8,39 28,71 59,96 31,24 73,36 124,36 33,0 63,-6 91,-18 28,-11 49,-27 64,-45l0 -361zm-816 260c0,47 9,80 26,100 18,20 43,30 76,30 35,0 62,-10 80,-31 19,-21 28,-54 28,-99l0 -260 -210 0 0 260z"/>
   <polygon id="106" class="fil5" points="15653,10836 15548,10836 15548,10760 15850,10760 15850,10836 15745,10836 15745,11499 15653,11499 "/>
   <path id="107" class="fil5" d="M16211 11458l-79 53 -227 -332c-12,-18 -21,-32 -25,-42 -4,-9 -6,-18 -6,-27 0,-16 6,-29 18,-38 13,-8 27,-12 44,-12l24 31c10,13 20,21 30,26 10,5 23,7 38,7 31,0 57,-12 78,-35 21,-24 31,-56 31,-99 0,-35 -5,-65 -16,-91 -11,-26 -23,-47 -36,-63l-258 0 0 -76 805 0 0 76 -105 0 0 663 -92 0 0 -303c-31,15 -75,23 -131,23 -27,0 -55,-5 -82,-14 -28,-9 -51,-21 -72,-35 -30,21 -67,31 -110,31 -4,0 -7,0 -9,0 -3,0 -6,0 -10,-1l190 258zm81 -321c33,0 61,-4 85,-12 24,-8 43,-17 58,-29l0 -260 -260 0c12,14 25,35 37,63 13,29 19,61 19,96 0,48 -11,89 -33,123 14,6 29,11 44,14 15,3 31,5 50,5z"/>
   <polygon id="108" class="fil5" points="16714,10836 16609,10836 16609,10760 16911,10760 16911,10836 16806,10836 16806,11499 16714,11499 "/>
   <path id="109" class="fil5" d="M17335 10976c24,9 48,21 71,36 24,15 45,34 64,55 18,22 33,47 45,76 11,29 17,61 17,97 0,40 -7,76 -21,109 -14,32 -34,60 -60,83 -26,24 -57,42 -93,54 -36,13 -75,19 -118,19 -40,0 -78,-6 -113,-18 -36,-12 -67,-30 -94,-53 -26,-23 -47,-51 -63,-84 -16,-33 -23,-70 -23,-112 0,-36 5,-68 17,-95 12,-28 28,-51 48,-72 20,-20 42,-37 68,-50 26,-13 53,-24 82,-31l82 -21 0 -133 -356 0 0 -76 716 0 0 76 -269 0 0 140zm101 262c0,-27 -5,-51 -13,-72 -8,-22 -19,-40 -32,-56 -13,-16 -28,-29 -45,-39 -17,-11 -34,-19 -50,-24l-66 15c-58,13 -104,33 -137,60 -34,27 -50,65 -50,113 0,34 5,63 17,87 11,23 26,43 44,58 19,14 40,25 63,32 23,8 47,11 70,11 25,0 50,-3 74,-11 23,-7 45,-18 63,-32 18,-15 33,-34 45,-58 11,-23 17,-51 17,-84z"/>
   <path id="110" class="fil5" d="M17675 10836l-106 0 0 -76 93 0c-6,-18 -16,-40 -29,-63 -14,-24 -30,-47 -50,-67 -20,-21 -43,-39 -69,-53 -26,-15 -54,-22 -85,-22 -45,0 -78,11 -98,33 -20,21 -30,47 -30,79 0,22 2,43 8,61 5,19 12,36 20,52l-67 26 -14 -19c-11,-14 -21,-32 -30,-56 -9,-23 -13,-48 -13,-73 0,-24 4,-47 14,-70 9,-23 23,-42 41,-59 19,-17 41,-30 69,-41 27,-10 59,-15 95,-15 51,0 96,11 134,32 38,21 70,46 96,76 26,30 47,61 63,94 16,33 28,61 36,85l119 0 0 76 -106 0 0 663 -91 0 0 -663z"/>
   <polygon id="111" class="fil5" points="2729,12864 2729,12125 2837,12125 2837,12459 3148,12125 3282,12125 2977,12452 3305,12864 3169,12864 2899,12526 2837,12593 2837,12864 "/>
   <path id="112" class="fil5" d="M3860 12600l-395 0 0 4c0,61 16,108 49,141 34,33 79,49 136,49 30,0 56,-2 79,-7 23,-4 48,-12 76,-23l21 76c-23,10 -50,18 -81,25 -30,6 -63,9 -99,9 -39,0 -77,-5 -112,-16 -34,-11 -65,-28 -92,-51 -26,-23 -47,-53 -62,-89 -16,-36 -23,-79 -23,-129 0,-43 6,-82 19,-117 13,-35 31,-65 55,-90 23,-24 51,-44 85,-57 33,-14 70,-21 112,-21 35,0 67,6 95,18 29,11 53,28 73,49 21,21 36,47 47,76 11,30 17,63 17,99l0 54zm-107 -74c0,-21 -2,-39 -8,-57 -5,-18 -12,-33 -23,-46 -11,-14 -24,-24 -40,-32 -17,-8 -37,-12 -60,-12 -43,0 -78,14 -105,41 -27,28 -44,64 -50,108l286 -2z"/>
   <path id="113" class="fil5" d="M3901 12312l110 0 117 316 40 131 3 0 39 -131 107 -316 106 0 -213 598c-23,67 -53,119 -88,156 -36,38 -78,65 -127,82l-45 -82c37,-14 70,-34 98,-61 29,-26 51,-63 66,-110l11 -31 -224 -552z"/>
   <path id="114" class="fil5" d="M5020 12588c0,44 -7,83 -20,118 -14,36 -32,66 -54,91 -23,25 -50,44 -80,57 -31,13 -63,20 -97,20 -36,0 -68,-5 -95,-15 -27,-10 -52,-26 -75,-47l-3 0 -10 52 -74 0 0 -833 102 0 0 351c25,-27 52,-47 83,-59 30,-13 61,-19 94,-19 70,0 126,25 167,75 41,50 62,120 62,209zm-108 1c0,-61 -13,-110 -39,-146 -26,-36 -62,-54 -109,-54 -30,0 -57,6 -81,20 -24,13 -47,32 -69,56l0 267c16,19 35,34 56,45 20,12 44,17 72,17 22,0 43,-4 64,-11 20,-8 38,-21 54,-37 16,-17 28,-38 38,-64 9,-26 14,-57 14,-93z"/>
   <path id="115" class="fil5" d="M5649 12582c0,46 -7,87 -21,124 -14,36 -33,67 -58,92 -24,25 -53,44 -86,57 -33,13 -68,19 -107,19 -38,0 -73,-6 -106,-18 -32,-12 -60,-30 -84,-54 -24,-24 -43,-53 -57,-88 -13,-35 -20,-75 -20,-120 0,-46 7,-87 21,-123 14,-36 33,-67 58,-91 25,-25 53,-44 86,-56 33,-13 69,-20 107,-20 38,0 74,6 106,18 33,11 61,29 84,53 24,23 43,52 57,87 13,35 20,75 20,120zm-108 6c0,-37 -4,-68 -14,-94 -9,-26 -21,-47 -37,-63 -15,-17 -32,-29 -52,-36 -19,-7 -39,-11 -60,-11 -20,0 -40,3 -59,9 -20,7 -37,17 -52,33 -15,16 -27,37 -36,63 -9,26 -13,59 -13,99 0,37 4,68 14,94 9,27 22,48 37,64 15,17 32,29 52,37 19,7 39,11 60,11 20,0 40,-3 60,-10 19,-6 36,-18 51,-34 15,-16 27,-37 36,-63 9,-26 13,-59 13,-99z"/>
   <path id="116" class="fil5" d="M5781 12362c18,-10 36,-18 52,-26 17,-7 33,-13 50,-18 16,-4 33,-8 50,-10 17,-3 36,-4 56,-4 31,0 59,3 84,10 26,7 48,18 66,34 18,15 33,36 43,61 10,26 15,57 15,96l0 359 -86 0 -13 -61 -2 0c-24,25 -51,44 -80,55 -29,11 -61,16 -96,16 -26,0 -51,-4 -73,-11 -22,-7 -42,-18 -58,-32 -17,-13 -29,-30 -38,-50 -9,-19 -14,-41 -14,-65 0,-58 23,-102 69,-132 46,-30 106,-45 181,-45l106 0 0 -47c0,-40 -11,-67 -31,-82 -20,-14 -48,-21 -82,-21 -20,0 -44,3 -70,10 -26,6 -56,19 -89,38l-40 -75zm313 247l-87 2c-59,2 -100,12 -125,31 -25,20 -37,43 -37,70 0,17 3,31 8,42 6,11 13,20 22,26 9,7 20,11 32,14 12,2 25,4 38,4 26,0 52,-6 78,-18 27,-12 50,-32 71,-58l0 -113z"/>
   <path id="117" class="fil5" d="M6346 12864l0 -552 77 0 18 111c13,-36 35,-64 66,-86 30,-22 65,-33 105,-33 20,0 37,2 50,5 14,3 26,7 37,12l-20 90c-9,-5 -20,-9 -31,-12 -11,-3 -25,-5 -41,-5 -22,0 -43,4 -62,12 -20,8 -36,20 -51,35 -14,16 -26,35 -34,58 -8,23 -12,50 -12,80l0 285 -102 0z"/>
   <path id="118" class="fil5" d="M7115 12031l103 0 0 833 -86 0 -13 -61 -4 0c-24,25 -49,43 -73,54 -25,11 -56,17 -93,17 -30,0 -59,-6 -87,-18 -27,-11 -52,-29 -74,-52 -22,-24 -40,-53 -53,-89 -13,-35 -20,-77 -20,-126 0,-43 6,-82 17,-117 12,-35 28,-65 49,-90 21,-25 47,-45 77,-58 31,-13 66,-20 105,-20 29,0 56,5 82,14 27,9 50,22 70,40l0 -327zm0 414c-37,-42 -80,-62 -130,-62 -21,0 -42,3 -62,11 -20,7 -37,19 -52,36 -16,16 -28,37 -37,63 -10,26 -14,57 -14,93 0,37 4,69 13,95 8,26 20,48 34,65 15,16 31,29 49,37 19,7 37,11 56,11 59,0 106,-25 143,-76l0 -273z"/>
   <path id="119" class="fil5" d="M7702 13043c-24,-32 -47,-66 -69,-103 -23,-36 -43,-75 -61,-116 -17,-42 -32,-86 -43,-133 -11,-48 -16,-99 -16,-155 0,-54 6,-106 17,-155 11,-49 26,-95 44,-137 18,-43 38,-82 61,-117 23,-36 46,-68 69,-96l56 40c-43,65 -78,136 -105,213 -27,76 -40,160 -40,252 0,46 3,90 10,131 7,41 16,81 28,119 12,37 27,75 45,112 18,36 39,73 62,111l-58 34z"/>
   <path id="120" class="fil5" d="M7858 12362c18,-10 36,-18 52,-26 17,-7 33,-13 50,-18 16,-4 33,-8 50,-10 17,-3 36,-4 56,-4 31,0 59,3 84,10 26,7 48,18 66,34 18,15 33,36 43,61 10,26 15,57 15,96l0 359 -86 0 -13 -61 -2 0c-24,25 -51,44 -80,55 -29,11 -61,16 -96,16 -26,0 -51,-4 -73,-11 -22,-7 -42,-18 -58,-32 -17,-13 -29,-30 -38,-50 -9,-19 -14,-41 -14,-65 0,-58 23,-102 69,-132 46,-30 106,-45 181,-45l106 0 0 -47c0,-40 -11,-67 -31,-82 -20,-14 -48,-21 -82,-21 -20,0 -44,3 -70,10 -26,6 -56,19 -89,38l-40 -75zm313 247l-87 2c-59,2 -100,12 -125,31 -25,20 -37,43 -37,70 0,17 3,31 8,42 6,11 13,20 22,26 9,7 20,11 32,14 12,2 25,4 38,4 26,0 52,-6 78,-18 27,-12 50,-32 71,-58l0 -113z"/>
   <path id="121" class="fil5" d="M8934 12588c0,44 -6,83 -20,118 -13,36 -31,66 -54,91 -22,25 -49,44 -79,57 -31,13 -63,20 -98,20 -36,0 -67,-5 -94,-15 -27,-10 -52,-26 -76,-47l-2 0 -11 52 -74 0 0 -833 102 0 0 351c25,-27 53,-47 83,-59 30,-13 62,-19 94,-19 71,0 127,25 168,75 41,50 61,120 61,209zm-108 1c0,-61 -13,-110 -38,-146 -26,-36 -63,-54 -109,-54 -30,0 -57,6 -81,20 -25,13 -48,32 -70,56l0 267c17,19 35,34 56,45 21,12 45,17 72,17 22,0 43,-4 64,-11 21,-8 39,-21 55,-37 15,-17 28,-38 37,-64 10,-26 14,-57 14,-93z"/>
   <path id="122" class="fil5" d="M9320 12794c25,0 47,-2 66,-8 18,-5 37,-12 55,-21l22 77c-42,22 -93,32 -151,32 -40,0 -77,-6 -112,-18 -35,-11 -66,-29 -92,-53 -26,-24 -46,-53 -61,-89 -15,-36 -23,-77 -23,-125 0,-44 7,-83 22,-118 14,-36 33,-65 58,-90 25,-25 55,-44 90,-57 36,-13 74,-20 117,-20 24,0 47,2 71,5 23,4 49,12 79,26l-24 78c-36,-20 -74,-30 -116,-30 -57,0 -103,18 -138,53 -35,36 -53,85 -53,150 0,39 5,73 16,99 11,27 26,48 44,64 18,16 38,28 61,35 22,7 46,10 69,10z"/>
   <polygon id="123" class="fil5" points="9755,12473 9755,12566 9497,12566 9497,12473 "/>
   <polygon id="124" class="fil5" points="10083,12473 10083,12566 9825,12566 9825,12473 "/>
   <polygon id="125" class="fil5" points="10196,12761 10547,12566 10196,12370 10196,12285 10623,12532 10623,12600 10196,12846 "/>
   <path id="126" class="fil5" d="M10922 12200l0 291 243 0 0 -291 -243 0zm0 451c-4,5 -11,10 -22,14 -10,5 -23,7 -37,7 -15,0 -30,-3 -44,-8 -13,-6 -26,-14 -37,-24 -11,-11 -19,-23 -26,-37 -6,-14 -9,-29 -9,-46 0,-20 6,-36 18,-48 12,-12 30,-18 52,-18l14 0 0 -291 -143 0 0 -75 674 0 0 75 -106 0 0 664 -91 0 0 -297 -243 0 0 84z"/>
   <path id="127" class="fil5" d="M11723 12822l-80 53 -226 -332c-13,-18 -21,-31 -26,-41 -4,-10 -6,-19 -6,-28 0,-16 6,-29 19,-37 12,-9 27,-13 43,-13l25 31c9,13 19,22 29,26 10,5 23,7 39,7 30,0 56,-11 77,-35 21,-23 32,-56 32,-98 0,-36 -6,-66 -17,-92 -11,-26 -23,-47 -36,-63l-258 0 0 -75 504 0 0 75 -156 0c13,14 25,35 38,64 12,28 19,60 19,95 0,32 -5,60 -14,85 -10,26 -23,47 -40,65 -17,18 -37,32 -60,42 -24,10 -49,15 -78,15 -3,0 -7,0 -9,0 -2,0 -5,-1 -9,-2l190 258z"/>
   <polygon id="128" class="fil5" points="11924,12200 11819,12200 11819,12125 12121,12125 12121,12200 12016,12200 12016,12864 11924,12864 "/>
   <path id="129" class="fil5" d="M12545 12340c24,9 48,21 71,36 24,16 45,34 64,55 18,22 33,47 45,76 11,29 17,61 17,97 0,40 -7,76 -21,109 -14,32 -34,60 -60,84 -26,23 -57,41 -93,54 -36,12 -75,18 -118,18 -40,0 -78,-6 -113,-18 -36,-12 -67,-30 -94,-53 -26,-23 -47,-51 -63,-83 -16,-33 -23,-71 -23,-113 0,-36 5,-68 17,-95 12,-27 28,-51 48,-72 20,-20 42,-37 68,-50 26,-13 53,-23 82,-30l82 -22 0 -133 -356 0 0 -75 716 0 0 75 -269 0 0 140zm101 262c0,-27 -5,-51 -13,-72 -8,-22 -19,-40 -32,-56 -13,-15 -28,-29 -45,-39 -17,-11 -34,-19 -50,-24l-66 15c-58,13 -104,34 -137,61 -34,26 -50,64 -50,113 0,33 5,62 17,86 11,24 26,43 44,58 19,15 40,26 63,33 24,7 47,10 70,10 25,0 50,-3 74,-10 24,-7 45,-18 63,-33 18,-15 33,-34 45,-58 11,-23 17,-51 17,-84z"/>
   <path id="130" class="fil5" d="M12885 12200l-106 0 0 -75 93 0c-6,-19 -16,-40 -29,-64 -14,-24 -30,-46 -50,-67 -20,-21 -43,-38 -69,-53 -26,-14 -54,-21 -85,-21 -45,0 -77,10 -98,32 -20,21 -30,48 -30,79 0,23 2,43 8,61 5,19 12,36 20,53l-67 25 -14 -18c-11,-14 -21,-33 -30,-57 -9,-23 -13,-47 -13,-72 0,-25 4,-48 14,-71 9,-22 23,-42 41,-59 19,-17 42,-30 69,-40 27,-10 59,-16 95,-16 51,0 96,11 134,32 38,21 70,47 96,76 26,30 47,61 63,94 16,33 28,61 36,86l119 0 0 75 -106 0 0 664 -91 0 0 -664z"/>
   <path id="131" class="fil5" d="M13211 12031c23,32 46,66 69,103 23,36 43,75 60,116 18,42 32,86 43,134 11,48 17,99 17,154 0,54 -6,106 -17,155 -12,49 -26,94 -44,137 -18,43 -39,82 -61,117 -23,36 -46,68 -70,96l-56 -40c43,-66 78,-137 105,-213 27,-76 41,-160 41,-252 0,-47 -4,-90 -10,-131 -7,-41 -16,-81 -29,-119 -12,-38 -27,-75 -45,-112 -18,-36 -38,-74 -62,-111l59 -34z"/>
   <path id="132" class="fil5" d="M13890 12312c42,0 78,8 106,23 29,15 51,31 66,49l0 -184 -459 0 0 -75 656 0 0 75 -105 0 0 664 -92 0 0 -185c-14,14 -34,29 -60,43 -26,14 -62,21 -106,21 -32,0 -62,-5 -90,-15 -29,-10 -53,-24 -75,-43 -21,-19 -38,-43 -51,-71 -12,-27 -19,-60 -19,-96 0,-34 6,-64 17,-89 12,-25 28,-47 48,-64 21,-17 45,-30 73,-39 28,-9 58,-14 91,-14zm172 166c-13,-22 -33,-42 -61,-60 -27,-18 -58,-27 -93,-27 -45,0 -81,11 -109,32 -28,22 -41,54 -41,98 0,52 14,89 42,110 28,21 66,32 113,32 21,0 40,-3 58,-10 18,-7 34,-16 47,-27 14,-11 25,-25 33,-40 7,-16 11,-33 11,-51l0 -57z"/>
   <polygon id="133" class="fil5" points="14341,12200 14236,12200 14236,12125 14539,12125 14539,12200 14433,12200 14433,12864 14341,12864 "/>
   <path id="134" class="fil5" d="M15138 12200l-106 0 0 664 -91 0 0 -283c-14,12 -33,23 -57,33 -23,9 -51,14 -84,14 -27,0 -53,-4 -77,-12 -25,-8 -46,-20 -65,-36 -19,-17 -34,-37 -44,-61 -11,-24 -17,-53 -17,-86l0 -233 -82 0 0 -75 623 0 0 75zm-449 224c0,44 10,76 30,96 20,19 49,29 87,29 29,0 56,-7 81,-20 25,-14 43,-31 54,-51l0 -278 -252 0 0 224z"/>
   <path id="135" class="fil5" d="M15499 12822l-80 53 -226 -332c-13,-18 -21,-31 -25,-41 -5,-10 -7,-19 -7,-28 0,-16 6,-29 19,-37 12,-9 27,-13 43,-13l25 31c9,13 19,22 29,26 10,5 23,7 39,7 30,0 56,-11 77,-35 21,-23 32,-56 32,-98 0,-36 -5,-66 -16,-92 -11,-26 -23,-47 -37,-63l-258 0 0 -75 505 0 0 75 -156 0c12,14 25,35 37,64 13,28 19,60 19,95 0,32 -5,60 -14,85 -10,26 -23,47 -40,65 -16,18 -36,32 -60,42 -23,10 -49,15 -77,15 -4,0 -7,0 -10,0 -2,0 -5,-1 -9,-2l190 258z"/>
   <polygon id="136" class="fil5" points="15701,12200 15595,12200 15595,12125 15898,12125 15898,12200 15792,12200 15792,12864 15701,12864 "/>
   <path id="137" class="fil5" d="M16161 12312c43,0 78,8 107,23 28,15 50,31 66,49l0 -184 -460 0 0 -75 657 0 0 75 -106 0 0 664 -91 0 0 -185c-14,14 -34,29 -61,43 -26,14 -61,21 -106,21 -32,0 -62,-5 -90,-15 -28,-10 -53,-24 -74,-43 -22,-19 -39,-43 -51,-71 -13,-27 -19,-60 -19,-96 0,-34 5,-64 17,-89 11,-25 27,-47 48,-64 21,-17 45,-30 73,-39 27,-9 58,-14 90,-14zm173 166c-13,-22 -34,-42 -61,-60 -28,-18 -59,-27 -94,-27 -45,0 -81,11 -108,32 -28,22 -42,54 -42,98 0,52 14,89 42,110 28,21 66,32 114,32 20,0 39,-3 57,-10 18,-7 34,-16 48,-27 14,-11 24,-25 32,-40 8,-16 12,-33 12,-51l0 -57z"/>
   <polygon id="138" class="fil5" points="16613,12200 16507,12200 16507,12125 16810,12125 16810,12200 16704,12200 16704,12864 16613,12864 "/>
   <path id="139" class="fil5" d="M16862 12800c0,-20 7,-37 21,-51 14,-14 31,-22 50,-22 20,0 36,8 50,22 14,14 20,31 20,51 0,23 -6,41 -20,54 -14,13 -30,20 -50,20 -19,0 -36,-7 -50,-20 -14,-13 -21,-31 -21,-54z"/>
   <path id="140" class="fil5" d="M2857 14344l0 290 243 0 0 -290 -243 0zm0 451c-4,5 -11,9 -22,14 -10,5 -22,7 -36,7 -16,0 -31,-3 -44,-9 -14,-5 -26,-13 -37,-24 -11,-10 -20,-22 -26,-36 -6,-14 -10,-29 -10,-46 0,-20 7,-36 19,-48 12,-12 29,-19 52,-19l14 0 0 -290 -143 0 0 -75 673 0 0 75 -106 0 0 663 -91 0 0 -296 -243 0 0 84z"/>
   <path id="141" class="fil5" d="M3820 14788c0,18 -4,34 -12,48 -8,13 -16,24 -24,33l79 183 -84 30 -61 -174c-38,18 -81,27 -131,27 -31,0 -61,-5 -92,-15 -30,-10 -58,-25 -82,-45 -24,-20 -44,-46 -59,-76 -14,-31 -22,-67 -22,-109 0,-41 7,-76 21,-105 14,-29 33,-53 56,-71 23,-19 49,-33 79,-42 30,-9 60,-13 92,-13l91 0 0 -115 -398 0 0 -75 629 0 0 75 -141 0 0 192 -150 0c-25,0 -48,3 -71,9 -22,6 -41,15 -58,28 -16,13 -29,29 -39,49 -10,19 -15,43 -15,70 0,28 5,52 14,73 9,21 20,38 35,51 14,14 31,23 49,30 19,6 37,9 56,9 45,0 80,-9 105,-27l-30 -96c19,-23 44,-34 75,-34 28,0 50,8 65,25 15,17 23,38 23,65z"/>
   <path id="142" class="fil5" d="M4166 14590c-48,0 -82,12 -103,36 -21,24 -32,55 -32,93 0,42 9,83 26,124 18,40 43,85 76,134l-79 41c-35,-49 -63,-98 -85,-146 -21,-48 -32,-100 -32,-157 0,-65 19,-116 56,-151 37,-36 89,-54 155,-54l198 0 0 -166 -479 0 0 -75 676 0 0 75 -105 0 0 663 -92 0 0 -417 -180 0z"/>
   <path id="143" class="fil5" d="M4626 14344l-106 0 0 -75 100 0c-6,-19 -13,-41 -22,-65 -9,-24 -20,-47 -34,-68 -14,-21 -30,-39 -49,-53 -19,-15 -41,-22 -65,-22 -54,0 -81,29 -81,86 0,22 4,44 13,65 8,21 18,40 29,57l-56 45 -27 -34c-15,-18 -28,-40 -38,-65 -11,-24 -16,-52 -16,-81 0,-43 15,-79 45,-109 30,-29 72,-44 126,-44 29,0 55,5 78,15 24,10 45,23 63,39 18,16 33,34 47,54 14,21 26,41 35,62 10,21 18,42 24,63 6,21 11,39 14,55l117 0 0 75 -106 0 0 663 -91 0 0 -663z"/>
   <path id="144" class="fil5" d="M5184 14966l-80 53 -226 -332c-13,-18 -21,-32 -26,-41 -4,-10 -6,-19 -6,-28 0,-16 6,-29 19,-37 12,-9 27,-13 43,-13l25 31c9,13 19,21 29,26 10,5 23,7 39,7 30,0 56,-12 77,-35 21,-24 32,-56 32,-99 0,-35 -6,-65 -17,-91 -11,-26 -23,-47 -36,-63l-258 0 0 -75 806 0 0 75 -106 0 0 663 -91 0 0 -303c-32,15 -75,23 -132,23 -27,0 -54,-5 -82,-14 -27,-9 -51,-21 -71,-35 -31,21 -68,32 -111,32 -3,0 -7,0 -9,0 -2,0 -5,-1 -9,-2l190 258zm81 -321c32,0 61,-4 85,-12 23,-8 43,-17 58,-29l0 -260 -261 0c13,14 25,35 38,64 12,28 19,60 19,95 0,48 -11,89 -33,123 14,7 28,11 43,14 15,3 32,5 51,5z"/>
   <polygon id="145" class="fil5" points="5687,14344 5581,14344 5581,14269 5884,14269 5884,14344 5778,14344 5778,15007 5687,15007 "/>
   <path id="146" class="fil5" d="M6307 14484c24,9 48,21 72,36 23,15 44,34 63,55 19,22 34,47 45,76 11,29 17,61 17,97 0,40 -7,76 -21,109 -14,32 -34,60 -60,84 -26,23 -57,41 -92,53 -36,13 -76,19 -119,19 -40,0 -77,-6 -113,-18 -36,-12 -67,-30 -93,-53 -27,-23 -48,-51 -64,-84 -15,-32 -23,-70 -23,-112 0,-36 6,-68 18,-95 11,-27 27,-51 47,-72 20,-20 43,-37 69,-50 25,-13 53,-24 82,-31l82 -21 0 -133 -357 0 0 -75 717 0 0 75 -270 0 0 140zm101 262c0,-27 -4,-51 -12,-72 -9,-22 -19,-40 -33,-56 -13,-16 -28,-29 -45,-39 -17,-11 -33,-19 -50,-24l-65 15c-59,13 -105,33 -138,60 -33,27 -50,65 -50,114 0,33 6,62 17,86 11,24 26,43 45,58 18,15 39,26 62,33 24,7 47,10 71,10 25,0 49,-3 73,-10 24,-7 45,-18 63,-33 19,-15 34,-34 45,-58 11,-23 17,-51 17,-84z"/>
   <path id="147" class="fil5" d="M6647 14344l-105 0 0 -75 92 0c-6,-19 -16,-40 -29,-64 -13,-24 -30,-46 -50,-67 -20,-21 -43,-38 -69,-53 -25,-14 -54,-22 -85,-22 -45,0 -77,11 -97,33 -21,21 -31,48 -31,79 0,22 3,43 8,61 6,19 12,36 20,53l-67 25 -14 -18c-11,-15 -21,-33 -30,-57 -9,-23 -13,-47 -13,-72 0,-25 5,-48 14,-71 9,-22 23,-42 42,-59 18,-17 41,-30 68,-40 28,-11 59,-16 95,-16 52,0 97,11 134,32 38,21 70,46 97,76 26,30 47,61 62,94 16,33 28,61 37,86l118 0 0 75 -105 0 0 663 -92 0 0 -663z"/>
   <path id="148" class="fil5" d="M10755 14966l-80 53 -226 -332c-13,-18 -21,-32 -25,-41 -5,-10 -7,-19 -7,-28 0,-16 6,-29 19,-37 12,-9 27,-13 43,-13l25 31c9,13 19,21 29,26 10,5 23,7 39,7 30,0 56,-12 77,-35 21,-24 32,-56 32,-99 0,-35 -5,-65 -16,-91 -11,-26 -23,-47 -37,-63l-258 0 0 -75 806 0 0 75 -106 0 0 663 -91 0 0 -303c-31,15 -75,23 -131,23 -28,0 -55,-5 -83,-14 -27,-9 -51,-21 -71,-35 -31,21 -67,32 -110,32 -4,0 -7,0 -10,0 -2,0 -5,-1 -9,-2l190 258zm81 -321c33,0 61,-4 85,-12 24,-8 43,-17 58,-29l0 -260 -260 0c12,14 25,35 37,64 13,28 19,60 19,95 0,48 -11,89 -33,123 14,7 29,11 43,14 15,3 32,5 51,5z"/>
   <path id="149" class="fil5" d="M10959 14100c0,-16 6,-30 18,-43 12,-13 28,-19 46,-19 20,0 35,6 47,19 11,13 17,27 17,43 0,18 -6,33 -18,45 -12,12 -27,18 -46,18 -18,0 -34,-6 -46,-18 -12,-12 -18,-27 -18,-45z"/>
   <path id="150" class="fil5" d="M11775 14344l-105 0 0 663 -92 0 0 -282c-14,12 -33,23 -56,33 -24,9 -52,14 -85,14 -27,0 -53,-4 -77,-12 -24,-8 -46,-20 -64,-36 -19,-17 -34,-37 -45,-61 -11,-25 -16,-53 -16,-86l0 -233 -83 0 0 -75 623 0 0 75zm-449 224c0,44 10,76 31,96 20,19 49,29 86,29 29,0 56,-7 81,-20 25,-14 43,-31 54,-51l0 -278 -252 0 0 224z"/>
   <path id="151" class="fil5" d="M12162 14595c-19,-22 -40,-36 -60,-45 -21,-9 -44,-13 -70,-13 -16,0 -32,3 -48,8 -15,5 -28,13 -40,23 -12,11 -21,24 -29,39 -7,16 -11,34 -11,56 0,43 12,76 35,99 23,24 53,35 89,35 18,0 35,-2 51,-7 16,-5 31,-13 43,-25 13,-11 23,-25 30,-43 7,-17 10,-38 10,-63l0 -64zm88 412l-89 0 0 -192c-13,20 -32,35 -57,46 -25,11 -52,16 -81,16 -28,0 -54,-4 -80,-14 -25,-9 -48,-23 -68,-42 -20,-19 -35,-42 -47,-69 -12,-28 -18,-60 -18,-96 0,-33 6,-62 17,-87 12,-24 27,-45 45,-61 19,-17 41,-29 66,-37 25,-8 51,-12 79,-12 60,0 108,20 144,61l0 -176 -409 0 0 -75 917 0 0 75 -419 0 0 191c13,-21 34,-39 62,-52 27,-13 58,-20 92,-20 26,0 52,4 76,13 24,8 45,20 64,36 18,17 33,37 44,61 11,25 16,52 16,84 0,36 -6,67 -17,93 -12,26 -28,48 -48,64 -20,17 -43,30 -70,38 -26,8 -54,12 -83,12 -9,0 -19,0 -30,-2 -12,-2 -21,-4 -27,-6l17 -75c12,2 24,4 38,4 17,0 33,-3 48,-7 16,-5 29,-13 41,-23 12,-11 21,-24 27,-40 7,-16 10,-36 10,-59 0,-36 -10,-64 -32,-84 -21,-20 -50,-30 -86,-30 -47,0 -82,14 -106,41 -24,28 -36,65 -36,111l0 313z"/>
   <path id="152" class="fil5" d="M12148 14273l0 -9c-7,-7 -15,-16 -23,-25 -8,-10 -16,-21 -23,-34 -7,-12 -13,-26 -17,-41 -5,-15 -7,-31 -7,-49 0,-25 4,-48 13,-67 9,-20 22,-37 38,-51 16,-15 34,-25 55,-33 21,-8 44,-12 68,-12 22,0 44,2 65,7 22,5 39,11 53,20l-24 71c-25,-12 -51,-18 -78,-18 -29,0 -53,8 -70,26 -18,17 -27,42 -27,75 0,14 3,29 7,42 4,14 10,27 16,38 7,12 14,23 22,32 8,10 15,17 21,24l-89 4z"/>
   <path id="153" class="fil5" d="M16594 14595c-20,-22 -40,-36 -61,-45 -21,-9 -44,-13 -70,-13 -16,0 -32,3 -47,8 -15,5 -29,13 -41,23 -11,11 -21,24 -28,39 -8,16 -11,34 -11,56 0,43 11,76 34,99 23,24 53,35 90,35 18,0 35,-2 51,-7 16,-5 30,-13 43,-25 12,-11 22,-25 29,-43 7,-17 11,-38 11,-63l0 -64zm87 412l-89 0 0 -192c-13,20 -32,35 -56,46 -25,11 -52,16 -82,16 -27,0 -54,-4 -79,-14 -26,-9 -48,-23 -68,-42 -20,-19 -36,-42 -48,-69 -11,-28 -17,-60 -17,-96 0,-33 5,-62 17,-87 11,-24 26,-45 45,-61 19,-17 41,-29 66,-37 25,-8 51,-12 78,-12 60,0 108,20 144,61l0 -176 -409 0 0 -75 917 0 0 75 -419 0 0 191c14,-21 34,-39 62,-52 28,-13 58,-20 92,-20 27,0 52,4 76,13 25,8 46,20 64,36 19,17 33,37 44,61 11,25 17,52 17,84 0,36 -6,67 -18,93 -12,26 -28,48 -47,64 -20,17 -44,30 -70,38 -27,8 -55,12 -83,12 -9,0 -19,0 -31,-2 -12,-2 -21,-4 -27,-6l18 -75c11,2 24,4 37,4 17,0 34,-3 49,-7 15,-5 29,-13 40,-23 12,-11 21,-24 28,-40 7,-16 10,-36 10,-59 0,-36 -11,-64 -32,-84 -22,-20 -51,-30 -87,-30 -47,0 -82,14 -106,41 -24,28 -36,65 -36,111l0 313z"/>
   <path id="154" class="fil5" d="M17473 14966l-80 53 -226 -332c-13,-18 -21,-32 -25,-41 -5,-10 -7,-19 -7,-28 0,-16 7,-29 19,-37 13,-9 27,-13 43,-13l25 31c9,13 19,21 29,26 11,5 23,7 39,7 31,0 56,-12 78,-35 21,-24 31,-56 31,-99 0,-35 -5,-65 -16,-91 -11,-26 -23,-47 -37,-63l-258 0 0 -75 505 0 0 75 -156 0c12,14 25,35 37,64 13,28 19,60 19,95 0,31 -5,60 -14,85 -9,26 -23,47 -39,65 -17,18 -37,32 -61,42 -23,10 -49,15 -77,15 -4,0 -7,0 -10,0 -2,0 -5,-1 -9,-2l190 258z"/>
   <polygon id="155" class="fil5" points="17675,14344 17569,14344 17569,14269 17872,14269 17872,14344 17766,14344 17766,15007 17675,15007 "/>
   <path id="156" class="fil5" d="M2933 15622c39,0 72,5 101,16 28,10 52,23 72,41 19,17 34,36 44,58 10,22 14,45 14,69 0,36 -11,69 -34,100 -23,31 -59,56 -106,75 54,23 94,49 120,78 26,29 39,67 39,113 0,35 -6,65 -19,91 -12,25 -29,47 -52,65 -22,18 -48,32 -79,41 -30,9 -64,13 -100,13 -35,0 -68,-4 -99,-14 -31,-9 -57,-23 -80,-40 -23,-17 -41,-38 -54,-62 -13,-25 -20,-53 -20,-84 0,-48 12,-86 37,-115 25,-29 63,-55 116,-78 -40,-18 -72,-41 -94,-71 -23,-29 -34,-63 -34,-101 0,-26 4,-50 14,-74 9,-23 23,-44 43,-62 19,-18 43,-32 71,-43 29,-10 62,-16 100,-16zm-131 189c0,18 4,34 11,48 8,14 17,27 30,37 12,11 26,20 42,28 17,8 34,16 52,22 18,-7 35,-15 50,-24 16,-8 30,-18 41,-29 12,-12 21,-24 28,-38 7,-14 10,-29 10,-46 0,-17 -4,-32 -11,-45 -7,-13 -16,-25 -28,-34 -12,-10 -27,-18 -43,-23 -16,-5 -33,-7 -51,-7 -22,0 -41,3 -57,9 -16,6 -30,15 -41,25 -11,10 -19,22 -25,35 -5,14 -8,28 -8,42zm122 216c-41,13 -75,31 -101,54 -26,23 -39,56 -39,97 0,33 13,62 37,87 25,25 62,37 112,37 23,0 44,-3 62,-10 18,-6 34,-15 46,-27 13,-12 22,-25 29,-40 7,-15 10,-30 10,-47 0,-19 -4,-37 -12,-53 -8,-16 -18,-30 -33,-42 -14,-13 -30,-23 -49,-33 -20,-9 -40,-17 -62,-23z"/>
   <path id="157" class="fil5" d="M3706 15622c41,0 79,8 114,22 35,14 65,37 91,67 26,31 46,70 61,118 14,48 21,106 21,173 0,67 -7,125 -23,173 -16,48 -37,88 -63,118 -27,31 -57,53 -92,67 -34,15 -71,22 -109,22 -41,0 -80,-7 -114,-22 -35,-14 -65,-36 -91,-67 -26,-30 -46,-70 -61,-118 -14,-48 -21,-106 -21,-173 0,-64 8,-120 23,-167 16,-48 37,-88 63,-119 26,-32 57,-56 91,-71 35,-15 72,-23 110,-23zm-179 380c0,62 5,112 15,151 10,39 23,69 40,91 16,22 35,37 57,45 22,8 45,12 68,12 24,0 46,-4 68,-13 21,-9 40,-25 57,-48 16,-23 29,-54 39,-92 10,-39 14,-87 14,-146 0,-61 -5,-111 -15,-150 -10,-39 -23,-69 -40,-91 -16,-22 -35,-37 -57,-45 -22,-9 -45,-13 -68,-13 -24,0 -46,5 -68,14 -21,9 -40,25 -56,48 -17,23 -30,54 -40,92 -10,38 -14,87 -14,145z"/>
   <path id="158" class="fil5" d="M4684 15631l0 85 -273 2 -23 195c10,-1 20,-3 32,-4 12,-1 24,-2 38,-2 28,0 58,4 88,12 30,8 57,21 82,38 24,18 44,41 59,69 16,29 24,64 24,105 0,35 -6,68 -19,99 -12,30 -31,57 -56,79 -24,23 -55,41 -91,54 -36,13 -78,19 -126,19 -28,0 -56,-3 -85,-9 -28,-6 -54,-15 -77,-26l23 -83c19,9 40,17 64,23 23,6 47,10 73,10 59,0 105,-14 137,-41 33,-27 49,-67 49,-121 0,-26 -5,-49 -14,-68 -9,-19 -21,-35 -37,-47 -16,-13 -35,-22 -57,-28 -22,-7 -46,-10 -71,-10 -22,0 -43,2 -65,4 -22,3 -44,7 -67,12l37 -365 355 -2z"/>
   <path id="159" class="fil5" d="M5431 15631l0 85 -273 2 -23 195c10,-1 20,-3 32,-4 12,-1 24,-2 37,-2 29,0 59,4 89,12 30,8 57,21 81,38 25,18 45,41 60,69 16,29 24,64 24,105 0,35 -7,68 -19,99 -13,30 -31,57 -56,79 -24,23 -55,41 -91,54 -37,13 -79,19 -126,19 -28,0 -56,-3 -85,-9 -29,-6 -54,-15 -77,-26l23 -83c19,9 40,17 64,23 23,6 47,10 72,10 60,0 106,-14 138,-41 33,-27 49,-67 49,-121 0,-26 -5,-49 -14,-68 -9,-19 -21,-35 -37,-47 -16,-13 -35,-22 -57,-28 -22,-7 -46,-10 -72,-10 -21,0 -42,2 -64,4 -22,3 -44,7 -67,12l36 -365 356 -2z"/>
   <path id="160" class="fil5" d="M6178 15631l0 85 -274 2 -22 195c9,-1 20,-3 32,-4 11,-1 24,-2 37,-2 29,0 59,4 89,12 30,8 57,21 81,38 25,18 44,41 60,69 16,29 24,64 24,105 0,35 -7,68 -19,99 -13,30 -31,57 -56,79 -25,23 -55,41 -91,54 -37,13 -79,19 -126,19 -28,0 -56,-3 -85,-9 -29,-6 -55,-15 -77,-26l23 -83c19,9 40,17 64,23 23,6 47,10 72,10 60,0 106,-14 138,-41 32,-27 49,-67 49,-121 0,-26 -5,-49 -14,-68 -9,-19 -21,-35 -37,-47 -16,-13 -35,-22 -57,-28 -22,-7 -46,-10 -72,-10 -21,0 -42,2 -64,4 -22,3 -44,7 -67,12l36 -365 356 -2z"/>
   <polygon id="161" class="fil5" points="6664,15633 6739,15633 6739,16372 6638,16372 6638,15741 6506,15802 6482,15716 "/>
   <polygon id="162" class="fil5" points="7512,15633 7512,15706 7193,16393 7105,16354 7409,15718 7052,15718 7052,15633 "/>
   <path id="163" class="fil5" d="M7733 15677c31,-20 62,-34 95,-42 33,-9 64,-13 94,-13 33,0 63,5 91,14 28,10 51,23 71,40 19,16 35,36 46,59 11,24 16,49 16,76 0,46 -12,85 -36,115 -24,31 -53,52 -87,65 43,9 78,29 107,61 28,32 42,70 42,114 0,40 -8,74 -24,101 -15,28 -36,50 -61,67 -25,16 -53,29 -85,36 -31,8 -64,12 -96,12 -33,0 -66,-3 -99,-9 -33,-6 -62,-15 -87,-27l24 -80c13,5 26,9 37,14 12,4 24,7 37,10 12,3 25,5 39,7 14,1 29,2 47,2 20,0 39,-2 59,-7 19,-5 36,-13 51,-24 14,-10 26,-24 36,-41 9,-17 14,-38 14,-63 0,-22 -4,-41 -12,-57 -9,-17 -20,-30 -34,-40 -15,-10 -32,-18 -51,-23 -20,-5 -41,-8 -65,-8l-88 0 0 -79 68 0c46,0 83,-11 113,-33 30,-22 45,-56 45,-101 0,-17 -3,-32 -9,-46 -7,-15 -16,-27 -27,-38 -12,-11 -25,-19 -40,-25 -16,-6 -32,-10 -50,-10 -25,0 -49,4 -71,10 -21,6 -47,18 -77,35l-33 -72z"/>
   <polygon id="164" class="fil5" points="8913,15633 8913,15706 8594,16393 8506,16354 8810,15718 8453,15718 8453,15633 "/>
   <polygon id="165" class="fil5" points="9634,15633 9634,15706 9315,16393 9227,16354 9531,15718 9174,15718 9174,15633 "/>
   <path id="166" class="fil5" d="M9853 16382c-20,-2 -36,-11 -46,-26 -10,-14 -15,-31 -15,-49 0,-19 6,-35 19,-50 13,-15 31,-23 55,-23 9,0 19,2 29,5 9,2 18,8 27,16 8,8 15,19 20,34 6,14 8,33 8,57 0,42 -12,81 -36,116 -24,35 -55,63 -93,83l-34 -47c21,-11 39,-25 55,-44 16,-18 27,-41 32,-68l-21 -4z"/>
   <path id="167" class="fil5" d="M10924 15622c38,0 71,5 100,16 29,10 53,23 72,41 20,17 34,36 44,58 10,22 15,45 15,69 0,36 -12,69 -35,100 -23,31 -58,56 -106,75 54,23 94,49 120,78 26,29 40,67 40,113 0,35 -7,65 -19,91 -13,25 -30,47 -52,65 -23,18 -49,32 -80,41 -30,9 -63,13 -99,13 -35,0 -68,-4 -99,-14 -31,-9 -58,-23 -81,-40 -22,-17 -40,-38 -54,-62 -13,-25 -20,-53 -20,-84 0,-48 13,-86 37,-115 25,-29 64,-55 116,-78 -40,-18 -71,-41 -94,-71 -23,-29 -34,-63 -34,-101 0,-26 5,-50 14,-74 10,-23 24,-44 43,-62 19,-18 43,-32 71,-43 29,-10 62,-16 101,-16zm-132 189c0,18 4,34 12,48 7,14 17,27 29,37 12,11 26,20 43,28 16,8 33,16 51,22 18,-7 35,-15 51,-24 15,-8 29,-18 41,-29 11,-12 21,-24 27,-38 7,-14 10,-29 10,-46 0,-17 -3,-32 -10,-45 -7,-13 -17,-25 -29,-34 -12,-10 -26,-18 -42,-23 -16,-5 -33,-7 -51,-7 -22,0 -41,3 -58,9 -16,6 -30,15 -41,25 -11,10 -19,22 -24,35 -6,14 -9,28 -9,42zm122 216c-41,13 -75,31 -100,54 -26,23 -39,56 -39,97 0,33 12,62 37,87 24,25 62,37 112,37 22,0 43,-3 61,-10 19,-6 34,-15 47,-27 12,-12 22,-25 28,-40 7,-15 10,-30 10,-47 0,-19 -4,-37 -11,-53 -8,-16 -19,-30 -33,-42 -14,-13 -31,-23 -50,-33 -19,-9 -40,-17 -62,-23z"/>
   <path id="168" class="fil5" d="M11696 15622c41,0 79,8 114,22 35,14 66,37 92,67 25,31 46,70 60,118 14,48 22,106 22,173 0,67 -8,125 -24,173 -15,48 -37,88 -63,118 -27,31 -57,53 -92,67 -34,15 -70,22 -109,22 -41,0 -79,-7 -114,-22 -35,-14 -65,-36 -91,-67 -26,-30 -46,-70 -60,-118 -15,-48 -22,-106 -22,-173 0,-64 8,-120 24,-167 15,-48 36,-88 62,-119 26,-32 57,-56 92,-71 35,-15 71,-23 109,-23zm-179 380c0,62 5,112 15,151 10,39 24,69 40,91 17,22 36,37 58,45 21,8 44,12 68,12 23,0 45,-4 67,-13 21,-9 40,-25 57,-48 16,-23 29,-54 39,-92 10,-39 15,-87 15,-146 0,-61 -5,-111 -15,-150 -11,-39 -24,-69 -40,-91 -17,-22 -36,-37 -58,-45 -22,-9 -44,-13 -68,-13 -23,0 -46,5 -67,14 -22,9 -41,25 -57,48 -16,23 -30,54 -39,92 -10,38 -15,87 -15,145z"/>
   <path id="169" class="fil5" d="M12674 15631l0 85 -273 2 -22 195c9,-1 20,-3 31,-4 12,-1 25,-2 38,-2 29,0 58,4 88,12 31,8 58,21 82,38 24,18 44,41 60,69 15,29 23,64 23,105 0,35 -6,68 -19,99 -12,30 -31,57 -55,79 -25,23 -55,41 -92,54 -36,13 -78,19 -126,19 -27,0 -55,-3 -84,-9 -29,-6 -55,-15 -78,-26l24 -83c19,9 40,17 63,23 24,6 48,10 73,10 59,0 105,-14 138,-41 32,-27 48,-67 48,-121 0,-26 -4,-49 -13,-68 -9,-19 -22,-35 -38,-47 -16,-13 -35,-22 -57,-28 -21,-7 -45,-10 -71,-10 -21,0 -43,2 -65,4 -21,3 -44,7 -66,12l36 -365 355 -2z"/>
   <path id="170" class="fil5" d="M13421 15631l0 85 -273 2 -22 195c9,-1 20,-3 31,-4 12,-1 24,-2 38,-2 29,0 58,4 88,12 30,8 58,21 82,38 24,18 44,41 60,69 15,29 23,64 23,105 0,35 -6,68 -19,99 -12,30 -31,57 -55,79 -25,23 -56,41 -92,54 -36,13 -78,19 -126,19 -27,0 -55,-3 -84,-9 -29,-6 -55,-15 -78,-26l24 -83c18,9 40,17 63,23 23,6 48,10 73,10 59,0 105,-14 137,-41 33,-27 49,-67 49,-121 0,-26 -4,-49 -13,-68 -9,-19 -22,-35 -38,-47 -16,-13 -35,-22 -57,-28 -22,-7 -45,-10 -71,-10 -21,0 -43,2 -65,4 -22,3 -44,7 -67,12l37 -365 355 -2z"/>
   <path id="171" class="fil5" d="M14168 15631l0 85 -273 2 -23 195c10,-1 20,-3 32,-4 12,-1 24,-2 38,-2 29,0 58,4 88,12 30,8 57,21 82,38 24,18 44,41 59,69 16,29 24,64 24,105 0,35 -6,68 -19,99 -12,30 -31,57 -56,79 -24,23 -55,41 -91,54 -36,13 -78,19 -126,19 -27,0 -56,-3 -85,-9 -28,-6 -54,-15 -77,-26l24 -83c18,9 39,17 63,23 23,6 48,10 73,10 59,0 105,-14 137,-41 33,-27 49,-67 49,-121 0,-26 -4,-49 -13,-68 -9,-19 -22,-35 -38,-47 -16,-13 -35,-22 -57,-28 -22,-7 -46,-10 -71,-10 -22,0 -43,2 -65,4 -22,3 -44,7 -67,12l37 -365 355 -2z"/>
   <path id="172" class="fil5" d="M14783 15622c54,0 101,8 142,24l-24 83c-17,-7 -34,-13 -53,-17 -19,-4 -39,-6 -61,-6 -34,0 -65,6 -90,19 -26,13 -48,31 -65,53 -18,23 -32,50 -41,82 -10,32 -16,68 -16,106 22,-27 48,-48 79,-60 31,-13 63,-20 95,-20 33,0 64,5 93,16 29,11 54,26 76,47 21,21 38,46 51,76 12,29 18,63 18,102 0,39 -6,74 -19,105 -13,31 -31,58 -54,80 -23,23 -50,40 -81,52 -32,12 -66,18 -103,18 -34,0 -67,-6 -98,-19 -31,-13 -59,-34 -84,-62 -24,-28 -44,-64 -59,-108 -15,-44 -22,-98 -22,-160 0,-76 9,-140 26,-192 18,-52 41,-94 71,-127 29,-32 62,-56 100,-70 38,-14 78,-22 119,-22zm-208 480c0,28 3,54 11,78 7,25 18,46 32,64 14,18 31,32 51,43 19,10 41,15 64,15 23,0 43,-4 62,-12 18,-9 34,-21 47,-37 13,-15 24,-34 31,-55 8,-21 11,-44 11,-69 0,-56 -14,-96 -42,-122 -28,-26 -66,-39 -112,-39 -36,0 -65,8 -89,25 -24,16 -42,35 -55,57 -4,9 -7,18 -9,26 -2,9 -2,17 -2,26z"/>
   <polygon id="173" class="fil5" points="15684,15633 15684,15706 15365,16393 15277,16354 15581,15718 15224,15718 15224,15633 "/>
   <path id="174" class="fil5" d="M15905 15677c31,-20 63,-34 95,-42 33,-9 64,-13 94,-13 33,0 63,5 91,14 28,10 51,23 71,40 20,16 35,36 46,59 11,24 16,49 16,76 0,46 -12,85 -36,115 -23,31 -53,52 -87,65 43,9 79,29 107,61 28,32 42,70 42,114 0,40 -8,74 -23,101 -16,28 -36,50 -61,67 -25,16 -54,29 -85,36 -32,8 -64,12 -97,12 -33,0 -66,-3 -99,-9 -33,-6 -61,-15 -87,-27l24 -80c13,5 26,9 37,14 12,4 24,7 37,10 12,3 25,5 39,7 14,1 30,2 48,2 19,0 38,-2 58,-7 19,-5 36,-13 51,-24 14,-10 27,-24 36,-41 9,-17 14,-38 14,-63 0,-22 -4,-41 -12,-57 -8,-17 -20,-30 -34,-40 -15,-10 -32,-18 -51,-23 -20,-5 -41,-8 -65,-8l-88 0 0 -79 68 0c46,0 83,-11 113,-33 31,-22 46,-56 46,-101 0,-17 -4,-32 -10,-46 -7,-15 -16,-27 -27,-38 -12,-11 -25,-19 -40,-25 -15,-6 -32,-10 -50,-10 -25,0 -48,4 -70,10 -22,6 -48,18 -78,35l-33 -72z"/>
   <polygon id="175" class="fil5" points="17085,15633 17085,15706 16766,16393 16678,16354 16982,15718 16625,15718 16625,15633 "/>
   <polygon id="176" class="fil5" points="17806,15633 17806,15706 17487,16393 17399,16354 17703,15718 17346,15718 17346,15633 "/>
   <path id="177" class="fil5" d="M3012 17329c-13,-14 -30,-25 -50,-32 -20,-7 -38,-10 -54,-10 -39,0 -70,10 -95,31 -24,22 -37,55 -37,101 0,32 6,61 16,86 11,26 25,49 43,70 18,21 39,41 63,58 23,17 49,33 75,47l-56 66c-32,-17 -62,-36 -91,-59 -28,-22 -53,-47 -74,-74 -21,-28 -38,-58 -51,-91 -12,-32 -19,-68 -19,-107 0,-36 6,-67 18,-93 12,-26 27,-47 47,-64 19,-17 42,-29 67,-37 26,-9 52,-13 80,-13 29,0 57,6 83,17 27,12 49,27 69,48 14,-20 33,-35 57,-46 24,-11 49,-16 77,-16 12,0 25,1 39,2 14,2 24,5 31,9l0 -150 -626 0 0 -75 823 0 0 75 -106 0 0 664 -91 0 0 -439c-6,-3 -14,-5 -23,-7 -9,-2 -20,-3 -33,-3 -40,0 -69,17 -86,51 -18,34 -28,84 -30,150l-91 0c0,-37 3,-69 8,-95 5,-26 11,-48 17,-64z"/>
   <path id="178" class="fil5" d="M2885 16727c14,-7 31,-13 51,-18 21,-5 42,-7 64,-7 57,0 105,14 142,42 38,29 70,69 96,119l89 169 -71 0 -90 -136c-11,-16 -22,-31 -33,-44 -11,-13 -23,-24 -36,-33 -13,-9 -27,-15 -43,-19 -15,-5 -33,-7 -54,-7 -15,0 -30,2 -45,5 -14,4 -27,8 -38,13l-32 -84z"/>
   <path id="179" class="fil5" d="M3711 17185c42,0 77,7 106,22 29,15 51,31 66,49l0 -184 -459 0 0 -75 656 0 0 75 -105 0 0 664 -92 0 0 -184c-14,14 -34,28 -60,42 -26,14 -62,21 -106,21 -32,0 -62,-5 -91,-15 -28,-9 -53,-24 -74,-43 -22,-19 -39,-43 -51,-70 -13,-28 -19,-60 -19,-97 0,-34 6,-63 17,-89 12,-25 28,-46 48,-63 21,-18 45,-31 73,-40 28,-9 58,-13 91,-13zm172 165c-13,-22 -33,-42 -61,-60 -27,-18 -58,-27 -94,-27 -44,0 -80,11 -108,33 -28,21 -42,54 -42,97 0,53 14,90 43,111 28,21 66,31 113,31 21,0 40,-3 58,-10 18,-6 34,-15 47,-27 14,-11 25,-24 33,-40 7,-16 11,-32 11,-50l0 -58z"/>
   <polygon id="180" class="fil5" points="4162,17072 4057,17072 4057,16997 4359,16997 4359,17072 4254,17072 4254,17736 4162,17736 "/>
   <path id="181" class="fil5" d="M4941 17300l0 -228 -449 0 0 -75 646 0 0 75 -105 0 0 664 -92 0 0 -358 -231 0 6 94c-3,4 -9,8 -19,14 -9,5 -22,7 -37,7 -31,0 -57,-11 -78,-33 -21,-23 -31,-50 -31,-83 0,-20 6,-38 19,-54 13,-16 33,-23 60,-23l311 0z"/>
   <path id="182" class="fil5" d="M5402 17185c42,0 78,7 106,22 29,15 51,31 66,49l0 -184 -459 0 0 -75 656 0 0 75 -105 0 0 664 -92 0 0 -184c-14,14 -34,28 -60,42 -26,14 -61,21 -106,21 -32,0 -62,-5 -90,-15 -28,-9 -53,-24 -75,-43 -21,-19 -38,-43 -51,-70 -12,-28 -19,-60 -19,-97 0,-34 6,-63 17,-89 12,-25 28,-46 49,-63 20,-18 44,-31 72,-40 28,-9 58,-13 91,-13zm172 165c-13,-22 -33,-42 -61,-60 -27,-18 -58,-27 -93,-27 -45,0 -81,11 -109,33 -28,21 -41,54 -41,97 0,53 14,90 42,111 28,21 66,31 114,31 20,0 39,-3 57,-10 18,-6 34,-15 47,-27 14,-11 25,-24 33,-40 8,-16 11,-32 11,-50l0 -58z"/>
   <path id="183" class="fil5" d="M6327 17072l0 664 -91 0 0 -208c-13,12 -33,23 -58,33 -25,10 -58,15 -100,15 -35,0 -68,-5 -100,-17 -32,-12 -61,-30 -86,-54 -25,-23 -45,-53 -61,-89 -15,-35 -24,-76 -24,-123l34 -2c58,-1 99,-11 122,-28 23,-18 35,-44 35,-79 0,-22 -5,-42 -14,-61 -10,-18 -22,-35 -37,-51l-199 0 0 -75 685 0 0 75 -106 0zm-91 0l-197 0c13,13 25,30 36,51 11,21 17,45 17,71 0,51 -17,91 -51,120 -33,30 -81,46 -143,50 8,40 27,72 59,96 31,25 72,37 124,37 33,0 63,-6 91,-18 28,-12 49,-27 64,-46l0 -361z"/>
   <path id="184" class="fil5" d="M6140 17769c12,-14 31,-26 55,-36 25,-10 51,-15 78,-15 55,0 97,16 126,46 30,31 44,68 44,114 0,51 -17,92 -53,125 -36,32 -86,48 -152,48 -57,0 -112,-14 -165,-41 -53,-28 -100,-67 -140,-118l62 -53c39,45 77,78 115,101 39,23 79,34 122,34 39,0 68,-9 88,-27 20,-18 30,-42 30,-72 0,-25 -7,-44 -20,-59 -14,-14 -34,-21 -61,-21 -16,0 -31,2 -44,8 -14,6 -27,15 -40,26l-45 -60z"/>
   <path id="185" class="fil5" d="M6697 17185c42,0 77,7 106,22 28,15 50,31 66,49l0 -184 -460 0 0 -75 657 0 0 75 -105 0 0 664 -92 0 0 -184c-14,14 -34,28 -60,42 -26,14 -62,21 -106,21 -32,0 -63,-5 -91,-15 -28,-9 -53,-24 -74,-43 -22,-19 -39,-43 -51,-70 -13,-28 -19,-60 -19,-97 0,-34 6,-63 17,-89 11,-25 27,-46 48,-63 21,-18 45,-31 73,-40 28,-9 58,-13 91,-13zm172 165c-13,-22 -34,-42 -61,-60 -27,-18 -59,-27 -94,-27 -44,0 -80,11 -108,33 -28,21 -42,54 -42,97 0,53 14,90 42,111 29,21 66,31 114,31 20,0 40,-3 58,-10 18,-6 33,-15 47,-27 14,-11 25,-24 32,-40 8,-16 12,-32 12,-50l0 -58z"/>
   <path id="186" class="fil5" d="M7453 17323c-19,-21 -40,-36 -60,-44 -21,-9 -44,-13 -70,-13 -16,0 -32,2 -48,7 -15,5 -28,13 -40,24 -12,10 -21,23 -29,39 -7,16 -11,34 -11,55 0,43 12,76 35,100 23,23 53,35 89,35 18,0 35,-3 51,-8 16,-5 31,-13 43,-24 13,-12 22,-26 30,-43 7,-17 10,-38 10,-63l0 -65zm88 413l-89 0 0 -192c-13,19 -32,34 -57,45 -25,11 -52,17 -81,17 -28,0 -54,-5 -80,-14 -25,-10 -48,-24 -68,-43 -20,-18 -35,-41 -47,-69 -12,-27 -18,-59 -18,-96 0,-33 6,-61 17,-86 12,-25 27,-45 45,-62 19,-16 41,-28 66,-37 25,-8 51,-12 79,-12 60,0 108,20 144,61l0 -176 -409 0 0 -75 917 0 0 75 -419 0 0 191c13,-21 34,-38 62,-51 27,-14 58,-20 92,-20 26,0 52,4 76,12 24,8 45,21 64,37 18,16 33,37 44,61 11,24 16,52 16,83 0,36 -6,67 -17,94 -12,26 -28,47 -48,64 -20,17 -43,29 -70,38 -26,8 -54,12 -83,12 -9,0 -19,-1 -30,-3 -12,-1 -21,-3 -27,-5l17 -75c12,2 24,3 38,3 17,0 33,-2 48,-7 16,-5 29,-12 41,-23 12,-10 21,-24 27,-40 7,-16 10,-35 10,-59 0,-36 -10,-64 -32,-84 -21,-20 -50,-30 -86,-30 -47,0 -82,14 -106,42 -24,28 -36,65 -36,111l0 313z"/>
   <path id="187" class="fil5" d="M8465 17695l-79 53 -227 -332c-12,-18 -21,-32 -25,-42 -4,-10 -6,-19 -6,-27 0,-17 6,-29 18,-38 13,-9 27,-13 44,-13l24 32c10,12 20,21 30,26 10,4 23,7 38,7 31,0 57,-12 78,-36 21,-23 31,-56 31,-98 0,-35 -5,-66 -16,-91 -11,-26 -23,-47 -36,-64l-258 0 0 -75 805 0 0 75 -105 0 0 664 -92 0 0 -304c-31,16 -75,24 -131,24 -27,0 -55,-5 -82,-14 -27,-10 -51,-22 -72,-36 -30,21 -67,32 -110,32 -4,0 -7,0 -9,0 -3,0 -6,0 -10,-1l190 258zm81 -321c33,0 61,-4 85,-12 24,-8 43,-18 58,-30l0 -260 -260 0c12,14 25,36 37,64 13,29 19,60 19,96 0,47 -11,88 -33,123 14,6 29,11 44,14 15,3 31,5 50,5z"/>
   <path id="188" class="fil5" d="M8669 16828c0,-15 6,-30 19,-43 12,-12 27,-19 46,-19 19,0 35,7 46,19 11,13 17,28 17,43 0,18 -6,33 -17,45 -12,13 -27,19 -46,19 -19,0 -34,-6 -46,-19 -13,-12 -19,-27 -19,-45z"/>
   <path id="189" class="fil5" d="M9346 17736l0 -172c-16,10 -39,21 -69,32 -31,10 -65,16 -102,16 -36,0 -69,-5 -99,-13 -29,-9 -55,-21 -76,-38 -21,-16 -37,-36 -49,-59 -12,-23 -18,-49 -18,-78 0,-36 9,-65 26,-88 17,-23 43,-40 79,-53 -40,-14 -68,-31 -83,-53 -14,-21 -22,-46 -22,-76 0,-17 4,-33 12,-49 8,-16 17,-27 27,-33l-109 0 0 -75 680 0 0 75 -106 0 0 664 -91 0zm-273 -664c-15,8 -26,19 -34,34 -8,15 -12,31 -12,49 0,29 10,53 31,71 21,19 53,28 98,28l62 0 0 77 -53 0c-50,0 -86,9 -107,27 -21,17 -31,41 -31,69 0,21 4,38 12,52 8,13 18,24 31,32 13,8 28,13 45,16 17,3 36,5 55,5 31,0 62,-5 94,-15 33,-11 60,-26 82,-46l0 -399 -273 0z"/>
   <path id="190" class="fil5" d="M9650 17746c-21,-2 -36,-10 -46,-25 -10,-15 -15,-32 -15,-50 0,-18 6,-35 19,-50 13,-15 31,-22 55,-22 9,0 19,1 28,4 10,3 19,8 27,16 8,8 15,20 21,34 5,15 8,34 8,57 0,42 -12,81 -36,116 -25,35 -55,63 -93,83l-34 -46c20,-11 39,-26 55,-44 16,-19 26,-42 32,-69l-21 -4z"/>
   <path id="191" class="fil5" d="M10297 17316c17,9 34,26 51,51 16,25 24,56 24,94 0,29 -5,56 -16,80 -10,23 -25,44 -44,61 -18,16 -41,29 -66,38 -26,9 -54,14 -84,14 -32,0 -62,-5 -88,-14 -26,-9 -49,-21 -69,-37 -20,-16 -38,-35 -53,-56 -14,-21 -27,-44 -37,-68l68 -36c20,40 44,73 71,96 28,24 63,36 105,36 15,0 31,-2 45,-7 14,-4 27,-12 38,-21 11,-9 20,-21 27,-36 6,-15 9,-33 9,-53 0,-49 -15,-85 -46,-108 -32,-23 -73,-34 -125,-34l-38 0 0 -76 431 0 0 -168 -620 0 0 -75 817 0 0 75 -105 0 0 664 -92 0 0 -420 -203 0z"/>
   <path id="192" class="fil5" d="M10949 17214c41,0 74,8 100,25 26,16 48,34 66,55 15,-27 36,-46 62,-59 26,-12 53,-19 81,-19l0 -144 -584 0 0 -75 900 0 0 75 -226 0 0 151c43,14 78,39 104,75 27,36 40,87 40,152 0,37 -5,70 -16,99 -11,30 -27,56 -47,77 -19,21 -43,37 -71,49 -28,12 -58,18 -91,18 -30,0 -58,-6 -86,-18 -28,-12 -51,-28 -69,-48 -37,46 -86,69 -149,69 -29,0 -57,-5 -85,-15 -27,-9 -52,-24 -74,-44 -21,-20 -38,-46 -52,-77 -13,-31 -20,-69 -20,-113 0,-38 6,-71 17,-100 11,-29 26,-54 45,-73 19,-20 42,-35 68,-45 27,-10 56,-15 87,-15zm191 350c14,15 30,28 51,38 20,9 42,14 64,14 43,0 77,-13 103,-38 27,-26 40,-68 40,-127 0,-54 -10,-94 -30,-120 -19,-25 -49,-38 -87,-38 -29,0 -54,7 -74,22 -21,15 -35,42 -41,81l-26 168zm-56 -209c-18,-22 -37,-38 -58,-48 -21,-9 -42,-14 -65,-14 -19,0 -36,2 -53,8 -16,5 -30,14 -43,27 -12,12 -21,29 -28,49 -7,20 -11,45 -11,74 0,30 3,56 10,77 7,21 16,39 27,52 11,13 25,23 40,29 16,6 33,8 52,8 25,0 47,-8 67,-24 19,-16 31,-37 35,-65l27 -173z"/>
   <path id="193" class="fil5" d="M11738 17384c14,-8 24,-24 32,-45 8,-22 12,-45 12,-71 0,-38 -8,-73 -23,-106 -15,-33 -36,-63 -62,-90l-146 0 0 -75 681 0 0 75 -105 0 0 664 -92 0 0 -664 -243 0c10,9 19,20 29,33 10,13 19,29 27,47 8,18 15,38 20,60 5,22 8,45 8,71 0,36 -5,68 -14,95 -9,28 -21,50 -36,69 -15,18 -33,32 -52,41 -19,10 -38,15 -58,15 -14,0 -27,-3 -40,-7 -12,-5 -24,-12 -34,-20 -10,-9 -18,-19 -24,-31 -6,-12 -9,-25 -9,-40 0,-21 7,-38 21,-50 14,-12 29,-18 46,-18l62 47z"/>
   <polygon id="194" class="fil5" points="12314,17072 12209,17072 12209,16997 12511,16997 12511,17072 12406,17072 12406,17736 12314,17736 "/>
   <path id="195" class="fil5" d="M12775 17185c42,0 78,7 106,22 29,15 51,31 66,49l0 -184 -459 0 0 -75 656 0 0 75 -105 0 0 664 -92 0 0 -184c-14,14 -34,28 -60,42 -26,14 -62,21 -106,21 -32,0 -62,-5 -90,-15 -29,-9 -53,-24 -75,-43 -21,-19 -38,-43 -51,-70 -12,-28 -19,-60 -19,-97 0,-34 6,-63 17,-89 12,-25 28,-46 48,-63 21,-18 45,-31 73,-40 28,-9 58,-13 91,-13zm172 165c-13,-22 -33,-42 -61,-60 -27,-18 -58,-27 -93,-27 -45,0 -81,11 -109,33 -28,21 -41,54 -41,97 0,53 14,90 42,111 28,21 66,31 114,31 20,0 39,-3 57,-10 18,-6 34,-15 47,-27 14,-11 25,-24 33,-40 8,-16 11,-32 11,-50l0 -58z"/>
   <circle class="fil3 str0" cx="1457" cy="11091" r="275"/>
  </g>
 </g>
</svg>
